<?xml version="1.0" encoding="utf-8"?>
<!-- Generator: Adobe Illustrator 26.0.1, SVG Export Plug-In . SVG Version: 6.00 Build 0)  -->
<svg version="1.1" id="Capa_1" xmlns="http://www.w3.org/2000/svg" xmlns:xlink="http://www.w3.org/1999/xlink" x="0px" y="0px"
	 viewBox="0 0 213.5 266.5" style="enable-background:new 0 0 213.5 266.5;" xml:space="preserve">
<style type="text/css">
	.st0{fill:#8D172D;}
	.st1{fill:#FFFFFF;}
	.st2{fill:#178D38;}
	.st3{fill:none;}
	.st4{fill:#3D0F17;}
</style>
<path class="st0" d="M89.7,103L72,85.3l0,0l-5.4-5.4c0,0-5.3-6.7-15,3s-4.1,14.6-4.1,14.6l3.1,3.1l4.5-4.5c0,0,5.2-5.5,10.5-0.2
	l8.9,8.9c0.1,0.1,0.3,0.3,0.4,0.4l2.5,2.5v17.9l12.3-12L89.7,103z"/>
<path class="st1" d="M76.9,125.6v-17.7l-2.4-2.4c-0.3-0.2-0.4-0.4-0.4-0.4l-8.9-8.8c-1.2-1.3-2.9-2.1-4.7-2.2
	c-1.9,0.2-3.7,1-5.1,2.4l-4.9,4.9l-3.5-3.5c-1.1-1.1-1.7-2.7-1.7-4.3c-0.1-3.3,1.9-7,5.9-11c3.7-3.8,7.3-5.6,10.6-5.4
	c1.9,0.1,3.8,1,5.1,2.4l23.2,23.2v10.8h-1v-10.4L66.3,80.3c-1.1-1.3-2.7-2-4.4-2.1c-3-0.2-6.3,1.6-9.9,5.1
	c-3.7,3.7-5.7,7.3-5.6,10.3c0,1.3,0.5,2.6,1.4,3.6l2.8,2.8l4.2-4.2c1.5-1.6,3.6-2.5,5.8-2.7h0.1c2,0,4,0.9,5.3,2.4l8.9,8.9
	c0,0,0.2,0.2,0.4,0.4l2.7,2.7v18.1L76.9,125.6z"/>
<path class="st2" d="M105.5,36.8l-3.1,3.1l4.5,4.5c0,0,5.5,5.2,0.2,10.5s-8.9,8.9-8.9,8.9c-0.1,0.1-0.3,0.3-0.4,0.4l-2.5,2.5H77.4
	v14.3c-3.8-0.1-9.4,1.8-17,9.4c-15.4,15.5-7.6,21.4-7.6,21.4l7.1,7L60,119l0,0l14.8-14.8l14.7-14.6l0,0V79H100l17.7-17.7l0,0
	l5.4-5.4c0,0,6.7-5.3-3-15S105.5,36.8,105.5,36.8z M61.2,102.6L61.2,102.6c0.2,0.1,0.4,0.2,0.6,0.3l0.1,0.1c0.2,0.1,0.4,0.3,0.6,0.5
	c1.5,1.4,1.7,3.8,0.3,5.3c-1.4,1.5-3.8,1.7-5.3,0.3c-0.1-0.1-0.2-0.2-0.3-0.3c-0.2-0.2-0.4-0.4-0.5-0.6c0,0,0-0.1,0-0.1
	c-0.1-0.2-0.2-0.4-0.3-0.6l0,0c-0.2-0.5-0.3-1-0.3-1.5c0-1,0.4-1.9,1.1-2.6c0.7-0.7,1.6-1.1,2.6-1.1
	C60.2,102.4,60.7,102.4,61.2,102.6z"/>
<path class="st1" d="M60,119.6l-0.4-0.4l-7-7c-1.3-1.2-2.1-2.9-2.1-4.6c-0.2-3.2,1.3-8.9,9.7-17.3c6.3-6.3,12-9.5,16.9-9.5V66.4
	h18.1l2.4-2.4c0.2-0.3,0.4-0.4,0.4-0.4l8.8-8.9c1.4-1.2,2.2-3,2.2-4.8c-0.2-2-1-3.8-2.4-5.2l-4.8-4.8l3.4-3.4
	c1.1-1.1,2.6-1.7,4.2-1.7c3.3-0.1,6.9,1.8,10.9,5.8c3.8,3.7,5.6,7.3,5.4,10.6c-0.1,1.9-0.9,3.7-2.4,5l-23.2,23.1H89.8v10.1l0.2,0.2
	l-0.3,0.3L60,119.6L60,119.6L60,119.6z M77.2,81.4c-4.7,0-10.2,3.1-16.4,9.3c-8.2,8.2-9.7,13.6-9.5,16.7c0,1.6,0.7,3.1,1.8,4.1
	l6.9,6.9l28.9-28.9l0,0l0.2-0.2V78.6h10.8l23-23c1.3-1.2,2-2.8,2.1-4.5c0.2-3-1.6-6.4-5.2-10c-3.8-3.8-7.4-5.7-10.4-5.6
	c-1.4,0-2.7,0.5-3.7,1.5l0,0l-2.8,2.9l4.2,4.2c1.6,1.5,2.5,3.6,2.7,5.7c0,2-0.9,4-2.4,5.3L98.5,64c0,0-0.2,0.2-0.4,0.4l-2.7,2.7
	H77.8v14.4L77.2,81.4L77.2,81.4z M60,110.3c-1.1,0-2.2-0.5-3-1.3c-0.2-0.2-0.4-0.4-0.6-0.7v-0.1c-0.1-0.2-0.3-0.4-0.3-0.7
	c-0.2-0.5-0.3-1.1-0.3-1.6c0-1.1,0.4-2.1,1.2-2.8c0.7-0.7,1.7-1.1,2.7-1.2c0.5,0,1.1,0.1,1.6,0.3l0,0c0.2,0.1,0.5,0.2,0.7,0.3
	l0.1,0.1c0.2,0.2,0.5,0.3,0.7,0.6c0.8,0.8,1.3,1.9,1.3,3c0,2.2-1.7,4-3.9,4.1C60.1,110.3,60,110.3,60,110.3z M59.8,102.7L59.8,102.7
	c-0.9,0-1.8,0.4-2.4,1c-0.6,0.6-1,1.4-1,2.3c0,0.5,0.1,0.9,0.2,1.3c0.1,0.2,0.2,0.4,0.3,0.6l0,0.1c0.1,0.2,0.3,0.4,0.5,0.6
	c1.3,1.4,3.5,1.4,4.8,0.1c0.7-0.6,1-1.5,1-2.4c0-0.9-0.4-1.8-1-2.4c-0.2-0.2-0.4-0.3-0.6-0.5l0.1-0.4l-0.2,0.3
	c-0.2-0.1-0.4-0.2-0.5-0.3l0.1-0.4L61,103C60.6,102.8,60.2,102.7,59.8,102.7L59.8,102.7z"/>
<path class="st0" d="M167.5,94.8l-3.1-3.1l-4.5,4.5c0,0-5.2,5.5-10.5,0.2l-8.9-8.9c-0.1-0.1-0.3-0.3-0.4-0.4l-2.5-2.5V66.7h-14.3
	c0.1-3.8-1.8-9.4-9.4-17c-15.5-15.5-21.4-7.6-21.4-7.6l-7,7.1l-0.1,0.1l0,0L100.1,64l14.7,14.7h10.6v10.6L143,107l0,0l5.4,5.4
	c0,0,5.3,6.7,15-3S167.5,94.8,167.5,94.8z M101.7,50.5L101.7,50.5c-0.1,0.2-0.2,0.4-0.3,0.6c0,0,0,0.1-0.1,0.1
	c-0.1,0.2-0.3,0.4-0.5,0.6c-1.3,1.6-3.7,1.8-5.3,0.4c-1.6-1.3-1.8-3.7-0.4-5.3c0.1-0.2,0.3-0.3,0.4-0.4c0.2-0.2,0.4-0.4,0.6-0.5
	l0.1-0.1c0.2-0.1,0.4-0.2,0.6-0.3l0,0c0.5-0.2,1-0.3,1.5-0.3c1,0,1.9,0.4,2.6,1.1c0.7,0.7,1.1,1.6,1.2,2.6
	C102,49.5,101.9,50,101.7,50.5z"/>
<path class="st1" d="M153.6,115.1h-0.5c-2-0.1-3.8-1-5.1-2.4l-23.2-23.2V79.2h-9.9l-0.2,0.2l-0.4-0.3L84.6,49.3l0.5-0.5l7-7
	c1.2-1.3,2.9-2.1,4.7-2.1c3.3-0.2,9,1.3,17.4,9.7c6.2,6.3,9.5,11.9,9.6,16.8h14.3v18.1l2.4,2.4c0.3,0.2,0.4,0.4,0.4,0.4l8.9,8.8
	c1.2,1.3,2.9,2.1,4.7,2.2c1.9-0.2,3.7-1,5.1-2.4l4.9-4.9l3.5,3.5c1.1,1.1,1.7,2.7,1.7,4.3c0.1,3.3-1.9,7-5.9,11
	C160.1,113.3,156.7,115.1,153.6,115.1z M143.2,106.5l0.1,0.1l5.4,5.4c1.1,1.3,2.7,2,4.4,2.1c3,0.2,6.3-1.6,9.9-5.1
	c3.7-3.8,5.7-7.3,5.6-10.3c0-1.3-0.5-2.6-1.4-3.6l0,0l-2.8-2.8l-4.2,4.2c-1.5,1.6-3.6,2.5-5.8,2.7c-2.1,0-4.1-0.9-5.5-2.5l-8.9-8.9
	c-0.1-0.1-0.3-0.2-0.4-0.3l-2.7-2.7V67.2h-14.3v-0.5c0.1-4.7-3.1-10.4-9.3-16.6c-8.1-8.1-13.4-9.6-16.6-9.4c-1.5,0-3,0.7-4.1,1.8
	L86,49.3l28.9,28.9h10.9v10.9L143.2,106.5z M98.1,53.5c-1.1,0-2.2-0.4-3-1.2c-1.7-1.7-1.6-4.4,0.1-6.1c0.2-0.2,0.4-0.4,0.7-0.6
	l0.1-0.1c0.2-0.1,0.4-0.3,0.7-0.3c0.5-0.2,1.1-0.3,1.7-0.3c2.3,0,4.1,1.9,4.1,4.1c0,0.6-0.1,1.1-0.3,1.7l0,0
	c-0.1,0.3-0.2,0.5-0.4,0.7l-0.1,0.1c-0.2,0.3-0.4,0.5-0.6,0.7C100.3,53,99.2,53.5,98.1,53.5z M98.2,45.9c-0.4,0-0.8,0.1-1.2,0.2
	c-0.2,0.1-0.4,0.2-0.6,0.3l-0.1,0c-0.2,0.1-0.4,0.3-0.5,0.4c-1.3,1.3-1.3,3.3,0,4.6s3.3,1.3,4.6,0c0.2-0.2,0.3-0.3,0.4-0.5
	c0,0,0-0.1,0-0.1c0.1-0.2,0.2-0.3,0.3-0.5l0.5,0.1l-0.5-0.2c0.2-0.4,0.2-0.8,0.2-1.3C101.4,47.3,100,45.9,98.2,45.9L98.2,45.9z"/>
<path class="st2" d="M109.5,155.5l3.1-3.1l-4.5-4.5c0,0-5.5-5.2-0.2-10.5l8.9-8.9c0.1-0.1,0.3-0.3,0.4-0.4l2.5-2.5h17.9v-14.3
	c3.8,0.1,9.4-1.8,17-9.4c15.5-15.5,7.6-21.4,7.6-21.4l-7.1-7l-0.1-0.1l0,0l-14.8,14.7l-14.6,14.7l0,0v10.6H115L97.3,131l0,0
	l-5.4,5.4c0,0-6.7,5.3,3,15S109.5,155.5,109.5,155.5z M153.9,89.7L153.9,89.7c-0.2-0.1-0.4-0.2-0.6-0.3c0,0-0.1,0-0.1-0.1
	c-0.2-0.1-0.4-0.3-0.6-0.5c-1.5-1.4-1.6-3.8-0.2-5.3c1.4-1.5,3.8-1.6,5.3-0.2c0.1,0.1,0.1,0.1,0.2,0.2c0.2,0.2,0.4,0.4,0.5,0.6
	c0,0,0,0.1,0.1,0.1c0.1,0.2,0.2,0.4,0.3,0.6l0,0c0.2,0.5,0.3,1,0.3,1.5c0,2-1.6,3.7-3.6,3.7c0,0,0,0-0.1,0
	C154.8,90,154.3,89.9,153.9,89.7z"/>
<path class="st1" d="M105.3,157.5c-3.2,0-6.8-2-10.7-5.8s-5.6-7.3-5.4-10.6c0.1-1.9,0.9-3.7,2.4-5l23.1-23.2h10.4v-10.1l-0.1-0.2
	l0.2-0.3L155,72.8l0,0l0,0l0.4,0.4l7,7c1.3,1.2,2.1,2.9,2.1,4.6c0.2,3.2-1.3,8.9-9.7,17.3c-6.3,6.3-12,9.5-16.9,9.5V126h-18.1
	l-2.4,2.4c-0.2,0.3-0.4,0.4-0.4,0.4l-8.9,8.9c-1.4,1.2-2.2,3-2.2,4.8c0.2,2,1,3.8,2.4,5.2l4.8,4.8l-3.4,3.4
	c-1.1,1.1-2.6,1.7-4.2,1.7L105.3,157.5z M97.7,131.2l-0.1,0.1l-5.4,5.4c-1.3,1.2-2,2.8-2.1,4.5c-0.2,3,1.6,6.4,5.1,10
	c3.8,3.8,7.3,5.7,10.3,5.6c1.4,0,2.7-0.5,3.7-1.5l0,0l2.9-2.9l-4.2-4.2c-1.5-1.5-2.5-3.6-2.6-5.7c0-2,0.9-4,2.4-5.3l8.9-8.9
	c0,0,0.2-0.2,0.4-0.4l2.7-2.7h17.7v-14.4h0.4c4.8,0.1,10.4-3,16.7-9.3c8.2-8.2,9.7-13.6,9.5-16.7c0-1.6-0.7-3-1.8-4.1l-6.9-6.9
	l-28.9,28.9l0,0l-0.2,0.2v10.8h-10.8L97.7,131.2z M155.2,90.3c-0.5,0-1-0.1-1.5-0.3l0,0c-0.2-0.1-0.5-0.2-0.7-0.3l-0.1-0.1
	c-0.2-0.2-0.5-0.4-0.7-0.6c-0.8-0.8-1.3-1.9-1.3-3c0-1.1,0.4-2.2,1.2-2.9c1.7-1.6,4.3-1.6,5.9,0.1c0.2,0.2,0.4,0.4,0.6,0.7V84
	c0.4,0.7,0.7,1.5,0.6,2.3C159.3,88.5,157.5,90.3,155.2,90.3L155.2,90.3z M153.4,89.1c0.2,0.1,0.4,0.2,0.5,0.3l-0.1,0.4l0.1-0.3
	c0.4,0.2,0.9,0.2,1.3,0.2c1.8-0.1,3.3-1.6,3.2-3.4c0-0.4-0.1-0.8-0.2-1.2c-0.1-0.2-0.2-0.4-0.3-0.6l0.3-0.2l-0.3,0.2
	c-0.1-0.2-0.3-0.4-0.5-0.6c-1.3-1.3-3.5-1.3-4.8,0c-1.3,1.3-1.3,3.5,0,4.8c0,0,0,0,0,0c0.2,0.2,0.4,0.3,0.6,0.5l-0.1,0.4L153.4,89.1
	z"/>
<path class="st3" d="M114.2,140.5c-0.2,0.2-0.4,0.4-0.5,0.6c0,0,0,0.1-0.1,0.1c-0.1,0.2-0.2,0.4-0.3,0.6l0,0c-0.2,0.5-0.3,1-0.3,1.5
	c0,1,0.4,1.9,1.1,2.6c0.7,0.7,1.6,1.1,2.6,1.1c0.5,0,1-0.1,1.5-0.3l0,0c0.2-0.1,0.4-0.2,0.6-0.3l0.1-0.1c0.2-0.2,0.4-0.3,0.6-0.5
	c1.5-1.4,1.6-3.8,0.2-5.3c-1.4-1.5-3.8-1.6-5.3-0.2C114.3,140.4,114.2,140.4,114.2,140.5L114.2,140.5z"/>
<path class="st0" d="M129.7,143L115,128.2l-14.7-14.6H89.7l-12.3,12h14.3c-0.1,3.8,1.8,9.4,9.4,17c15.5,15.5,21.4,7.6,21.4,7.6
	l7-7.1L129.7,143L129.7,143L129.7,143z M119.5,145.8c-0.2,0.2-0.4,0.4-0.6,0.5l-0.1,0.1c-0.2,0.1-0.4,0.2-0.6,0.3l0,0
	c-0.5,0.2-1,0.3-1.5,0.3c-1,0-1.9-0.4-2.6-1.1c-0.7-0.7-1.1-1.6-1.1-2.6c0-0.5,0.1-1,0.3-1.5l0,0c0.1-0.2,0.2-0.4,0.3-0.6
	c0,0,0-0.1,0.1-0.1c0.1-0.2,0.3-0.4,0.5-0.6c1.4-1.5,3.8-1.6,5.3-0.2c1.5,1.4,1.6,3.8,0.2,5.3C119.7,145.7,119.6,145.8,119.5,145.8
	L119.5,145.8z"/>
<path class="st1" d="M117.6,152.6c-3.3,0-8.8-1.8-16.8-9.8c-6.2-6.3-9.5-11.9-9.6-16.8H77.4v-1h14.8v0.5c-0.1,4.7,3.1,10.4,9.3,16.6
	c8.2,8.2,13.5,9.6,16.6,9.4c1.5,0,3-0.6,4.1-1.8l6.8-6.8l-28.7-28.7l0,0l-0.2-0.2H89.2v-1h10.9l0.2-0.2l0.4,0.3l29.8,29.8l-0.5,0.4
	l-7,7c-1.2,1.3-2.9,2.1-4.7,2.1L117.6,152.6z M116.8,147.4L116.8,147.4c-2.3,0-4.2-1.9-4.2-4.1c0-0.6,0.1-1.1,0.3-1.6
	c0.1-0.3,0.2-0.5,0.4-0.7l0.1-0.1c0.2-0.3,0.4-0.5,0.6-0.7c1.7-1.7,4.4-1.7,6.1-0.1c0.8,0.8,1.2,1.9,1.2,3c0,1.1-0.5,2.2-1.3,3.1
	c-0.2,0.2-0.4,0.4-0.7,0.6l-0.1,0.1c-0.2,0.1-0.4,0.3-0.7,0.4C117.9,147.3,117.3,147.4,116.8,147.4z M117,139.8
	c-0.9,0-1.8,0.4-2.4,1c-0.2,0.2-0.3,0.3-0.4,0.5v0.1c-0.1,0.2-0.2,0.3-0.3,0.5c-0.2,0.4-0.2,0.9-0.2,1.3c0,1.7,1.4,3.1,3.1,3.1
	c0.4,0,0.9-0.1,1.3-0.2c0.2-0.1,0.4-0.2,0.6-0.3l0.1-0.1c0.2-0.1,0.4-0.3,0.5-0.4c0.6-0.6,1-1.5,1-2.4c0-1.8-1.4-3.2-3.1-3.2
	C117.1,139.8,117,139.8,117,139.8L117,139.8z"/>
<path class="st4" d="M49.9,218l-0.1-1.8c-0.1-1.4-0.7-2.9-1.7-2.9c-1.7,0-2.1,1.8-2.1,6.9v3.4c0,4.1,0.6,7.1,2,7.1h0.1
	c0.6-0.1,1.1-0.6,1-1.2V223l-1.7-0.2V222h3.6v9.4h-1.6l-0.2-0.5c-0.5,0.6-1.2,0.9-2,0.8c-2.6,0-4.3-3-4.3-10.2v0.2
	c0-6.2,1.3-9.1,4.3-9.1c0.6,0,1.2,0.2,1.7,0.5c0.2,0.1,0.4,0.3,0.6,0.5h0c0,0,0.1,0,0.1,0.1c0,0,0.1,0,0.1-0.1h0l0.8-1h0.3v5.5
	L49.9,218z"/>
<path class="st4" d="M63.5,230.6l0.3,0.6c-0.1,0.2-0.6,0.4-1.3,0.4c-1.6,0-2.7-0.7-2.7-2.9v-3.4c0-0.1,0-0.1,0-0.2
	c0-0.9-0.5-2.4-1.9-2.4h-1v8h0.6v0.6h-4.1v-0.6h0.9v-17.3h-0.9v-0.6h4.5c2.5,0,4.8,1.4,4.8,4.4c0.1,1.5-0.3,2.9-1.1,4.1
	c-0.3,0.4-0.6,0.7-1.1,0.9c-0.1,0-0.1,0.1-0.1,0.1c0,0.1,0,0.1,0.1,0.1c0.4,0.3,0.8,0.6,1.1,0.9c0.7,0.8,1.1,1.8,1.1,2.9v3.4
	c0,0.5,0.1,1,0.5,1C63.2,230.7,63.3,230.7,63.5,230.6z M59.7,216.5c0-1.5-0.6-3.1-1.9-3.1h-1v8.6h1c1.2,0,1.9-1.4,1.9-3.3V216.5z"/>
<path class="st4" d="M66.6,231.4h-3.1v-0.6h1.1l4.4-18h1.6l4,18h0.9v0.6h-4.9v-0.6h1l-0.6-3.2h-4.6l-0.7,3.2h0.8L66.6,231.4z
	 M66.7,226.9h4.1l-2.1-9.4l-0.3,1.8L66.7,226.9z"/>
<path class="st4" d="M84.2,212.8h3.2v0.6h-1v17.9h-2.2l-5.7-12.5v11.8h1.1v0.6h-3.2v-0.6h1.1v-17.3h-1.1v-0.6h2.5l6.5,13.2v-12.4
	h-1.1V212.8z"/>
<path class="st4" d="M90.4,231.4h-3.1v-0.6h1.1l4.4-18h1.6l4,18h0.9v0.6h-4.9v-0.6h1l-0.6-3.2h-4.6l-0.7,3.2h0.8L90.4,231.4z
	 M90.6,226.9h4.1l-2.1-9.4l-0.3,1.8L90.6,226.9z"/>
<path class="st4" d="M105.5,212.8c3,0,5.2,3.3,5.2,9c0,6.5-1.1,9.6-5.2,9.6h-4.7v-0.6h0.9v-17.3h-0.9v-0.6H105.5z M107.8,220.8
	c0-2.5-0.4-7.4-2.3-7.4h-1.2v17.3h1.2c2.3,0,2.3-6,2.3-8.7V220.8z"/>
<path class="st4" d="M113.6,231.4h-3.1v-0.6h1.1l4.4-18h1.6l4,18h0.9v0.6h-4.9v-0.6h1l-0.6-3.2h-4.6l-0.7,3.2h0.8V231.4z
	 M113.7,226.9h4.2l-2.1-9.4l-0.3,1.8L113.7,226.9z"/>
<path class="st4" d="M133.2,212.5c2.3-0.1,4.2,1.7,4.3,3.9c0,0.1,0,0.3,0,0.4c0,5.4-6.1,8.6-6.7,12.2h3.8c1.1,0,1.9-0.5,2.1-2.2h0.6
	l-0.3,4.5h-8c0-6.2,5.5-10.4,5.5-14.9c0-2.2-0.6-3.1-1.9-3.1c-0.9-0.1-1.8,0.6-2,1.5c0.7,0.1,1.2,0.7,1.1,1.4c0,0.8-0.6,1.4-1.4,1.4
	c0,0,0,0,0,0c-0.8,0-1.4-0.6-1.4-1.4c0,0,0,0,0,0c0-2.1,1.8-3.8,3.9-3.7C133.1,212.4,133.2,212.5,133.2,212.5z"/>
<path class="st4" d="M144.8,212.5c3.2,0,4.4,4.3,4.4,9.2c0,5.7-1.1,9.9-4.3,9.9h-0.6c-3,0-4.4-4.3-4.4-9.9c0-5,1.3-9.2,4.4-9.2
	H144.8z M146.4,221.7v-0.1c0-3.3-0.3-8.6-2-8.6s-1.9,5.4-1.9,8.6v0.1c0,4.2,0.4,9.4,2.1,9.4C146.1,231.1,146.4,226,146.4,221.7
	L146.4,221.7z"/>
<path class="st4" d="M156,212.5c2.3-0.1,4.2,1.7,4.3,4c0,0.1,0,0.3,0,0.4c0,5.4-6.1,8.6-6.7,12.2h3.8c1.1,0,1.9-0.5,2.1-2.2h0.6
	l-0.3,4.5h-8c0-6.2,5.5-10.4,5.5-14.9c0-2.2-0.6-3.1-1.9-3.1c-0.9-0.1-1.8,0.6-2,1.5c0.7,0.1,1.2,0.7,1.1,1.4c0,0.8-0.6,1.4-1.4,1.4
	c0,0,0,0,0,0c-0.8,0-1.4-0.6-1.4-1.4c0,0,0,0,0,0c0-2.1,1.8-3.8,3.9-3.7C155.8,212.4,155.9,212.5,156,212.5z"/>
<path class="st4" d="M167.2,212.5c2.3-0.1,4.2,1.7,4.3,4c0,0.1,0,0.3,0,0.4c0,5.4-6.1,8.6-6.7,12.2h3.8c1.1,0,1.9-0.5,2.1-2.2h0.6
	l-0.3,4.5h-8c0-6.2,5.5-10.4,5.5-14.9c0-2.2-0.6-3.1-1.9-3.1c-0.9-0.1-1.8,0.6-2,1.5c0.7,0.1,1.2,0.7,1.1,1.4c0,0.8-0.6,1.4-1.4,1.4
	c0,0,0,0,0,0c-0.8,0-1.4-0.6-1.4-1.4c0,0,0,0,0,0c0-2.1,1.8-3.8,3.9-3.7C167,212.4,167.1,212.5,167.2,212.5z"/>
<path class="st0" d="M53.1,169.3c3.9,0,9,2.5,9,9.1c0,8.6-3.6,10.6-9.4,10.6h-2v16h1.8v1.2h-8.7V205h1.8v-34.4h-1.7v-1.2H53.1z
	 M56.3,175.7c0-2.5-1.2-5-3.6-5h-2v16.9h2c2.5,0,3.6-2.3,3.6-5.4V175.7z"/>
<path class="st0" d="M77.1,169.3h6.2v1.3h-2.5l-5.5,20v13.9h1.5v1.8h-8.3v-1.8h1.4v-16.1l-5.3-17.8h-2.3v-1.3h8.6v1.3h-1.3l4.5,17.5
	h0.1l4.9-17.5h-2L77.1,169.3z"/>
<path class="st0" d="M153.3,169.3v9.3h-1.7v-3c0-3.3-2.9-5-6-5h-1.9v17c2.2,0,4.4-1.1,4.6-3.4v-2.5h1.1v13.1h-1.1v-2.4
	c-0.2-2.2-2.4-3.4-4.6-3.4v15.9h2c3.1,0,5.9-1.8,5.9-5v-5.8h1.7v12.1h-16.4V205h1.8v-34.4h-1.8v-1.3H153.3z"/>
<path class="st0" d="M159.8,204.7c-0.1-0.1-0.2-0.1-0.3-0.1c-0.1,0-0.2,0-0.3,0.1l-0.1,0.1l-1.5,2h-0.9l0.2-10.8h1.9l0.7,6
	c0.3,1,0.7,2.5,2.9,2.5c2.6,0,3.7-2.5,3.7-5.2c0-10.1-10.3-12.5-10.3-23.3c0-4.8,2.8-7.4,7-7.4c1.6-0.1,3.1,0.5,4.2,1.6l0.1,0.1
	c0.1,0.1,0.1,0.1,0.3,0.1s0.2,0,0.2-0.1l0.1-0.1l1.2-1.6h0.7v10.8h-1.9l-0.8-6.8c-0.4-1.4-1.7-2.3-3.1-2.2c-2,0-3.1,1.9-3.1,4
	c0,8.4,10.4,10.5,10.4,21c0,8.1-2.8,11.1-7.5,11.1c-1.5,0-2.9-0.6-3.8-1.8C159.9,204.8,159.9,204.8,159.8,204.7z"/>
<path class="st0" d="M89.7,190.5c0,7.2,0.7,10.1,3,10.1c1.9,0,2.9-3.5,2.9-5.8H97c0,3.2-1.1,7-5.3,7c-3.6,0-7-4.2-7.2-14.4
	c0-9,2.5-13.6,6.9-13.6c0.9,0,1.7,0.2,2.4,0.7c0.3,0.2,0.5,0.4,0.7,0.7c0,0.1,0,0.1,0,0.1c0.1,0,0.1,0,0.2,0c0.2,0,0.2-0.1,0.3-0.1
	l1-1.4h0.5v8h-1.4l-0.2-2.9c-0.2-2-0.7-3.9-2.2-3.9c-2.1,0-3,1.3-3,10.2L89.7,190.5z"/>
<path class="st0" d="M107.6,173.8c4.6,0,7.5,6.2,7.5,13.7c0,8.6-2.8,14.3-7.5,14.3h-0.8c-4.3,0-7.5-5.8-7.5-14.3
	c0-7.5,3.1-13.7,7.5-13.7L107.6,173.8z M107.4,200.6c2,0,2.4-3.3,2.4-9.4v-7.5c0-4.7-0.4-8.6-2.8-8.6s-2.6,3.9-2.6,8.6v7.5
	c0,6.1,0.4,9.4,2.8,9.4H107.4z"/>
<path class="st0" d="M128.3,174.1h4.5v1.1h-1.4v26h-3.1l-7.9-17.7v16.6h1.5v1.1h-4.5v-1.1h1.5v-25h-1.5V174h3.4l9,19.2v-18h-1.4
	L128.3,174.1z"/>
<rect x="87.5" y="204.5" class="st2" width="45.1" height="1.8"/>
<rect x="87.5" y="169.3" class="st2" width="45.1" height="1.8"/>
</svg>
