<?xml version="1.0" encoding="UTF-8" standalone="no"?>
<!-- Generator: Adobe Illustrator 26.0.1, SVG Export Plug-In . SVG Version: 6.00 Build 0)  -->

<svg
   xmlns:dc="http://purl.org/dc/elements/1.1/"
   xmlns:cc="http://creativecommons.org/ns#"
   xmlns:rdf="http://www.w3.org/1999/02/22-rdf-syntax-ns#"
   xmlns:svg="http://www.w3.org/2000/svg"
   xmlns="http://www.w3.org/2000/svg"
   xmlns:sodipodi="http://sodipodi.sourceforge.net/DTD/sodipodi-0.dtd"
   xmlns:inkscape="http://www.inkscape.org/namespaces/inkscape"
   version="1.1"
   id="Capa_1"
   x="0px"
   y="0px"
   viewBox="0 0 130.5 130"
   xml:space="preserve"
   sodipodi:docname="piconesGR_mini.svg"
   width="130.5"
   height="130"
   inkscape:version="0.92.5 (2060ec1f9f, 2020-04-08)"><metadata
   id="metadata4104"><rdf:RDF><cc:Work
       rdf:about=""><dc:format>image/svg+xml</dc:format><dc:type
         rdf:resource="http://purl.org/dc/dcmitype/StillImage" /><dc:title></dc:title></cc:Work></rdf:RDF></metadata><defs
   id="defs4102" /><sodipodi:namedview
   pagecolor="#ffffff"
   bordercolor="#666666"
   borderopacity="1"
   objecttolerance="10"
   gridtolerance="10"
   guidetolerance="10"
   inkscape:pageopacity="0"
   inkscape:pageshadow="2"
   inkscape:window-width="1920"
   inkscape:window-height="1014"
   id="namedview4100"
   showgrid="false"
   inkscape:zoom="3.0281426"
   inkscape:cx="106.75"
   inkscape:cy="106.83116"
   inkscape:window-x="0"
   inkscape:window-y="0"
   inkscape:window-maximized="1"
   inkscape:current-layer="Capa_1" />
<style
   type="text/css"
   id="style4035">
	.st0{fill:#8D172D;}
	.st1{fill:#FFFFFF;}
	.st2{fill:#178D38;}
	.st3{fill:none;}
	.st4{fill:#3D0F17;}
</style>
<path
   class="st0"
   d="m 48.090335,71.845105 -17.7,-17.7 v 0 l -5.4,-5.4 c 0,0 -5.3,-6.7 -15.0000004,3 -9.7,9.7 -4.1,14.6 -4.1,14.6 l 3.1,3.1 4.5000004,-4.5 c 0,0 5.2,-5.5 10.5,-0.2 l 8.9,8.9 c 0.1,0.1 0.3,0.3 0.4,0.4 l 2.5,2.5 v 17.9 l 12.3,-12 z"
   id="path4037"
   inkscape:connector-curvature="0"
   style="fill:#8d172d" />
<path
   class="st1"
   d="m 35.290335,94.445105 v -17.7 l -2.4,-2.4 c -0.3,-0.2 -0.4,-0.4 -0.4,-0.4 l -8.9,-8.8 c -1.2,-1.3 -2.9,-2.1 -4.7,-2.2 -1.9,0.2 -3.7,1 -5.1,2.4 l -4.9000004,4.9 -3.5,-3.5 c -1.1,-1.1 -1.7,-2.7 -1.7,-4.3 -0.1,-3.3 1.9,-7 5.9,-11 3.7000004,-3.8 7.3000004,-5.6 10.6000004,-5.4 1.9,0.1 3.8,1 5.1,2.4 l 23.2,23.2 v 10.8 h -1 v -10.4 l -22.8,-22.9 c -1.1,-1.3 -2.7,-2 -4.4,-2.1 -3,-0.2 -6.3,1.6 -9.9,5.1 -3.7000004,3.7 -5.7000004,7.3 -5.6000004,10.3 0,1.3 0.5,2.6 1.4,3.6 l 2.8,2.8 4.2000004,-4.2 c 1.5,-1.6 3.6,-2.5 5.8,-2.7 h 0.1 c 2,0 4,0.9 5.3,2.4 l 8.9,8.9 c 0,0 0.2,0.2 0.4,0.4 l 2.7,2.7 v 18.1 z"
   id="path4039"
   inkscape:connector-curvature="0"
   style="fill:#ffffff" />
<path
   class="st2"
   d="m 63.890335,5.6451054 -3.1,3.0999999 4.5,4.4999997 c 0,0 5.5,5.2 0.2,10.5 -5.3,5.3 -8.9,8.9 -8.9,8.9 -0.1,0.1 -0.3,0.3 -0.4,0.4 l -2.5,2.5 h -17.9 v 14.3 c -3.8,-0.1 -9.4,1.8 -17,9.4 -15.4000004,15.5 -7.6,21.4 -7.6,21.4 l 7.1,7 0.1,0.2 v 0 l 14.8,-14.8 14.7,-14.6 v 0 -10.6 h 10.5 l 17.7,-17.7 v 0 l 5.4,-5.4 c 0,0 6.7,-5.3 -3,-14.9999997 -9.7,-9.70000002 -14.6,-4.1 -14.6,-4.0999999 z m -44.3,65.7999996 v 0 c 0.2,0.1 0.4,0.2 0.6,0.3 l 0.1,0.1 c 0.2,0.1 0.4,0.3 0.6,0.5 1.5,1.4 1.7,3.8 0.3,5.3 -1.4,1.5 -3.8,1.7 -5.3,0.3 -0.1,-0.1 -0.2,-0.2 -0.3,-0.3 -0.2,-0.2 -0.4,-0.4 -0.5,-0.6 0,0 0,-0.1 0,-0.1 -0.1,-0.2 -0.2,-0.4 -0.3,-0.6 v 0 c -0.2,-0.5 -0.3,-1 -0.3,-1.5 0,-1 0.4,-1.9 1.1,-2.6 0.7,-0.7 1.6,-1.1 2.6,-1.1 0.4,0.1 0.9,0.1 1.4,0.3 z"
   id="path4041"
   inkscape:connector-curvature="0"
   style="fill:#178d38" />
<path
   class="st1"
   d="m 18.390335,88.445105 -0.4,-0.4 -7,-7 c -1.3000004,-1.2 -2.1000004,-2.9 -2.1000004,-4.6 -0.2,-3.2 1.3000004,-8.9 9.7000004,-17.3 6.3,-6.3 12,-9.5 16.9,-9.5 v -14.4 h 18.1 l 2.4,-2.4 c 0.2,-0.3 0.4,-0.4 0.4,-0.4 l 8.8,-8.9 c 1.4,-1.2 2.2,-3 2.2,-4.8 -0.2,-2 -1,-3.8 -2.4,-5.2 l -4.8,-4.7999997 3.4,-3.3999999 c 1.1,-1.1000001 2.6,-1.7000001 4.2,-1.7000001 3.3,-0.1 6.9,1.8000001 10.9,5.8 3.8,3.6999997 5.6,7.2999997 5.4,10.5999997 -0.1,1.9 -0.9,3.7 -2.4,5 l -23.2,23.1 h -10.3 v 10.1 l 0.2,0.2 -0.3,0.3 z m 17.2,-38.2 c -4.7,0 -10.2,3.1 -16.4,9.3 -8.2,8.2 -9.7000004,13.6 -9.5000004,16.7 0,1.6 0.7000004,3.1 1.8000004,4.1 l 6.9,6.9 28.9,-28.9 v 0 l 0.2,-0.2 v -10.7 h 10.8 l 23,-23 c 1.3,-1.2 2,-2.8 2.1,-4.5 0.2,-3 -1.6,-6.4 -5.2,-9.9999997 -3.8,-3.8 -7.4,-5.7 -10.4,-5.6 -1.4,0 -2.7,0.5000001 -3.7,1.5 v 0 l -2.8,2.9 4.2,4.1999997 c 1.6,1.5 2.5,3.6 2.7,5.7 0,2 -0.9,4 -2.4,5.3 l -8.9,8.9 c 0,0 -0.2,0.2 -0.4,0.4 l -2.7,2.7 h -17.6 v 14.4 z m -17.2,28.9 c -1.1,0 -2.2,-0.5 -3,-1.3 -0.2,-0.2 -0.4,-0.4 -0.6,-0.7 v -0.1 c -0.1,-0.2 -0.3,-0.4 -0.3,-0.7 -0.2,-0.5 -0.3,-1.1 -0.3,-1.6 0,-1.1 0.4,-2.1 1.2,-2.8 0.7,-0.7 1.7,-1.1 2.7,-1.2 0.5,0 1.1,0.1 1.6,0.3 v 0 c 0.2,0.1 0.5,0.2 0.7,0.3 l 0.1,0.1 c 0.2,0.2 0.5,0.3 0.7,0.6 0.8,0.8 1.3,1.9 1.3,3 0,2.2 -1.7,4 -3.9,4.1 -0.1,0 -0.2,0 -0.2,0 z m -0.2,-7.6 v 0 c -0.9,0 -1.8,0.4 -2.4,1 -0.6,0.6 -1,1.4 -1,2.3 0,0.5 0.1,0.9 0.2,1.3 0.1,0.2 0.2,0.4 0.3,0.6 v 0.1 c 0.1,0.2 0.3,0.4 0.5,0.6 1.3,1.4 3.5,1.4 4.8,0.1 0.7,-0.6 1,-1.5 1,-2.4 0,-0.9 -0.4,-1.8 -1,-2.4 -0.2,-0.2 -0.4,-0.3 -0.6,-0.5 l 0.1,-0.4 -0.2,0.3 c -0.2,-0.1 -0.4,-0.2 -0.5,-0.3 l 0.1,-0.4 -0.1,0.4 c -0.4,-0.2 -0.8,-0.3 -1.2,-0.3 z"
   id="path4043"
   inkscape:connector-curvature="0"
   style="fill:#ffffff" />
<path
   class="st0"
   d="m 125.89033,63.645105 -3.1,-3.1 -4.5,4.5 c 0,0 -5.2,5.5 -10.5,0.2 l -8.899995,-8.9 c -0.1,-0.1 -0.3,-0.3 -0.4,-0.4 l -2.5,-2.5 v -17.9 h -14.3 c 0.1,-3.8 -1.8,-9.4 -9.4,-17 -15.5,-15.4999997 -21.4,-7.6 -21.4,-7.6 l -7,7.1 -0.1,0.1 v 0 l 14.7,14.7 14.7,14.7 h 10.6 v 10.6 l 17.599995,17.7 v 0 l 5.4,5.4 c 0,0 5.3,6.7 15,-3 9.7,-9.7 4.1,-14.6 4.1,-14.6 z m -65.799995,-44.3 v 0 c -0.1,0.2 -0.2,0.4 -0.3,0.6 0,0 0,0.1 -0.1,0.1 -0.1,0.2 -0.3,0.4 -0.5,0.6 -1.3,1.6 -3.7,1.8 -5.3,0.4 -1.6,-1.3 -1.8,-3.7 -0.4,-5.3 0.1,-0.2 0.3,-0.3 0.4,-0.4 0.2,-0.2 0.4,-0.4 0.6,-0.5 l 0.1,-0.1 c 0.2,-0.1 0.4,-0.2 0.6,-0.3 v 0 c 0.5,-0.2 1,-0.3 1.5,-0.3 1,0 1.9,0.4 2.6,1.1 0.7,0.7 1.1,1.6 1.2,2.6 -0.1,0.5 -0.2,1 -0.4,1.5 z"
   id="path4045"
   inkscape:connector-curvature="0"
   style="fill:#8d172d" />
<path
   class="st1"
   d="m 111.99033,83.945105 h -0.5 c -2,-0.1 -3.8,-1 -5.1,-2.4 l -23.199995,-23.2 v -10.3 h -9.9 l -0.2,0.2 -0.4,-0.3 -29.7,-29.8 0.5,-0.5 7,-7 c 1.2,-1.2999997 2.9,-2.0999997 4.7,-2.0999997 3.3,-0.2 9,1.3 17.4,9.6999997 6.2,6.3 9.5,11.9 9.6,16.8 h 14.3 v 18.1 l 2.4,2.4 c 0.3,0.2 0.4,0.4 0.4,0.4 l 8.899995,8.8 c 1.2,1.3 2.9,2.1 4.7,2.2 1.9,-0.2 3.7,-1 5.1,-2.4 l 4.9,-4.9 3.5,3.5 c 1.1,1.1 1.7,2.7 1.7,4.3 0.1,3.3 -1.9,7 -5.9,11 -3.7,3.7 -7.1,5.5 -10.2,5.5 z m -10.4,-8.6 0.1,0.1 5.4,5.4 c 1.1,1.3 2.7,2 4.4,2.1 3,0.2 6.3,-1.6 9.9,-5.1 3.7,-3.8 5.7,-7.3 5.6,-10.3 0,-1.3 -0.5,-2.6 -1.4,-3.6 v 0 l -2.8,-2.8 -4.2,4.2 c -1.5,1.6 -3.6,2.5 -5.8,2.7 -2.1,0 -4.1,-0.9 -5.5,-2.5 l -8.899995,-8.9 c -0.1,-0.1 -0.3,-0.2 -0.4,-0.3 l -2.7,-2.7 v -17.6 h -14.3 v -0.5 c 0.1,-4.7 -3.1,-10.4 -9.3,-16.6 -8.1,-8.1 -13.4,-9.5999997 -16.6,-9.3999997 -1.5,0 -3,0.6999997 -4.1,1.7999997 l -6.6,6.8 28.9,28.9 h 10.9 v 10.9 z m -45.099995,-53 c -1.1,0 -2.2,-0.4 -3,-1.2 -1.7,-1.7 -1.6,-4.4 0.1,-6.1 0.2,-0.2 0.4,-0.4 0.7,-0.6 l 0.1,-0.1 c 0.2,-0.1 0.4,-0.3 0.7,-0.3 0.5,-0.2 1.1,-0.3 1.7,-0.3 2.3,0 4.1,1.9 4.1,4.1 0,0.6 -0.1,1.1 -0.3,1.7 v 0 c -0.1,0.3 -0.2,0.5 -0.4,0.7 l -0.1,0.1 c -0.2,0.3 -0.4,0.5 -0.6,0.7 -0.8,0.8 -1.9,1.3 -3,1.3 z m 0.1,-7.6 c -0.4,0 -0.8,0.1 -1.2,0.2 -0.2,0.1 -0.4,0.2 -0.6,0.3 h -0.1 c -0.2,0.1 -0.4,0.3 -0.5,0.4 -1.3,1.3 -1.3,3.3 0,4.6 1.3,1.3 3.3,1.3 4.6,0 0.2,-0.2 0.3,-0.3 0.4,-0.5 0,0 0,-0.1 0,-0.1 0.1,-0.2 0.2,-0.3 0.3,-0.5 l 0.5,0.1 -0.5,-0.2 c 0.2,-0.4 0.2,-0.8 0.2,-1.3 0.1,-1.6 -1.3,-3 -3.1,-3 z"
   id="path4047"
   inkscape:connector-curvature="0"
   style="fill:#ffffff" />
<path
   class="st2"
   d="m 67.890335,124.34511 3.1,-3.1 -4.5,-4.5 c 0,0 -5.5,-5.2 -0.2,-10.5 l 8.9,-8.900001 c 0.1,-0.1 0.3,-0.3 0.4,-0.4 l 2.5,-2.500004 h 17.9 v -14.3 c 3.8,0.1 9.399995,-1.8 16.999995,-9.4 15.5,-15.5 7.6,-21.4 7.6,-21.4 l -7.1,-7 -0.1,-0.1 v 0 l -14.799995,14.7 -14.6,14.7 v 0 10.6 h -10.6 l -17.7,17.600004 v 0 l -5.4,5.400001 c 0,0 -6.7,5.3 3,15 9.7,9.7 14.6,4.1 14.6,4.1 z M 112.29033,58.545105 v 0 c -0.2,-0.1 -0.4,-0.2 -0.6,-0.3 0,0 -0.1,0 -0.1,-0.1 -0.2,-0.1 -0.4,-0.3 -0.6,-0.5 -1.5,-1.4 -1.6,-3.8 -0.2,-5.3 1.4,-1.5 3.8,-1.6 5.3,-0.2 0.1,0.1 0.1,0.1 0.2,0.2 0.2,0.2 0.4,0.4 0.5,0.6 0,0 0,0.1 0.1,0.1 0.1,0.2 0.2,0.4 0.3,0.6 v 0 c 0.2,0.5 0.3,1 0.3,1.5 0,2 -1.6,3.7 -3.6,3.7 0,0 0,0 -0.1,0 -0.6,0 -1.1,-0.1 -1.5,-0.3 z"
   id="path4049"
   inkscape:connector-curvature="0"
   style="fill:#178d38" />
<path
   class="st1"
   d="m 63.690335,126.34511 c -3.2,0 -6.8,-2 -10.7,-5.8 -3.9,-3.8 -5.6,-7.3 -5.4,-10.6 0.1,-1.9 0.9,-3.7 2.4,-5 l 23.1,-23.200005 h 10.4 v -10.1 l -0.1,-0.2 0.2,-0.3 29.799995,-29.5 v 0 0 l 0.4,0.4 7,7 c 1.3,1.2 2.1,2.9 2.1,4.6 0.2,3.2 -1.3,8.9 -9.7,17.3 -6.3,6.3 -12,9.5 -16.899995,9.5 v 14.4 h -18.1 l -2.4,2.400004 c -0.2,0.3 -0.4,0.4 -0.4,0.4 l -8.9,8.900001 c -1.4,1.2 -2.2,3 -2.2,4.8 0.2,2 1,3.8 2.4,5.2 l 4.8,4.8 -3.4,3.4 c -1.1,1.1 -2.6,1.7 -4.2,1.7 z m -7.6,-26.3 -0.1,0.1 -5.4,5.4 c -1.3,1.2 -2,2.8 -2.1,4.5 -0.2,3 1.6,6.4 5.1,10 3.8,3.8 7.3,5.7 10.3,5.6 1.4,0 2.7,-0.5 3.7,-1.5 v 0 l 2.9,-2.9 -4.2,-4.2 c -1.5,-1.5 -2.5,-3.6 -2.6,-5.7 0,-2 0.9,-4 2.4,-5.3 l 8.9,-8.900001 c 0,0 0.2,-0.2 0.4,-0.4 l 2.7,-2.700004 h 17.7 v -14.4 h 0.4 c 4.799995,0.1 10.399995,-3 16.699995,-9.3 8.2,-8.2 9.7,-13.6 9.5,-16.7 0,-1.6 -0.7,-3 -1.8,-4.1 l -6.9,-6.9 -28.899995,28.9 v 0 l -0.2,0.2 v 10.8 h -10.8 z M 113.59033,59.145105 c -0.5,0 -1,-0.1 -1.5,-0.3 v 0 c -0.2,-0.1 -0.5,-0.2 -0.7,-0.3 l -0.1,-0.1 c -0.2,-0.2 -0.5,-0.4 -0.7,-0.6 -0.8,-0.8 -1.3,-1.9 -1.3,-3 0,-1.1 0.4,-2.2 1.2,-2.9 1.7,-1.6 4.3,-1.6 5.9,0.1 0.2,0.2 0.4,0.4 0.6,0.7 v 0.1 c 0.4,0.7 0.7,1.5 0.6,2.3 0.1,2.2 -1.7,4 -4,4 z m -1.8,-1.2 c 0.2,0.1 0.4,0.2 0.5,0.3 l -0.1,0.4 0.1,-0.3 c 0.4,0.2 0.9,0.2 1.3,0.2 1.8,-0.1 3.3,-1.6 3.2,-3.4 0,-0.4 -0.1,-0.8 -0.2,-1.2 -0.1,-0.2 -0.2,-0.4 -0.3,-0.6 l 0.3,-0.2 -0.3,0.2 c -0.1,-0.2 -0.3,-0.4 -0.5,-0.6 -1.3,-1.3 -3.5,-1.3 -4.8,0 -1.3,1.3 -1.3,3.5 0,4.8 0,0 0,0 0,0 0.2,0.2 0.4,0.3 0.6,0.5 l -0.1,0.4 z"
   id="path4051"
   inkscape:connector-curvature="0"
   style="fill:#ffffff" />
<path
   class="st3"
   d="m 72.590335,109.34511 c -0.2,0.2 -0.4,0.4 -0.5,0.6 0,0 0,0.1 -0.1,0.1 -0.1,0.2 -0.2,0.4 -0.3,0.6 v 0 c -0.2,0.5 -0.3,1 -0.3,1.5 0,1 0.4,1.9 1.1,2.6 0.7,0.7 1.6,1.1 2.6,1.1 0.5,0 1,-0.1 1.5,-0.3 v 0 c 0.2,-0.1 0.4,-0.2 0.6,-0.3 l 0.1,-0.1 c 0.2,-0.2 0.4,-0.3 0.6,-0.5 1.5,-1.4 1.6,-3.8 0.2,-5.3 -1.4,-1.5 -3.8,-1.6 -5.3,-0.2 -0.1,0.1 -0.2,0.1 -0.2,0.2 z"
   id="path4053"
   inkscape:connector-curvature="0"
   style="fill:none" />
<path
   class="st0"
   d="m 88.090335,111.84511 -14.7,-14.800001 -14.7,-14.600004 h -10.6 l -12.3,12 h 14.3 c -0.1,3.800004 1.8,9.400005 9.4,17.000005 15.5,15.5 21.4,7.6 21.4,7.6 l 7,-7.1 z m -10.2,2.8 c -0.2,0.2 -0.4,0.4 -0.6,0.5 l -0.1,0.1 c -0.2,0.1 -0.4,0.2 -0.6,0.3 v 0 c -0.5,0.2 -1,0.3 -1.5,0.3 -1,0 -1.9,-0.4 -2.6,-1.1 -0.7,-0.7 -1.1,-1.6 -1.1,-2.6 0,-0.5 0.1,-1 0.3,-1.5 v 0 c 0.1,-0.2 0.2,-0.4 0.3,-0.6 0,0 0,-0.1 0.1,-0.1 0.1,-0.2 0.3,-0.4 0.5,-0.6 1.4,-1.5 3.8,-1.6 5.3,-0.2 1.5,1.4 1.6,3.8 0.2,5.3 0,0.1 -0.1,0.2 -0.2,0.2 z"
   id="path4055"
   inkscape:connector-curvature="0"
   style="fill:#8d172d" />
<path
   class="st1"
   d="m 75.990335,121.44511 c -3.3,0 -8.8,-1.8 -16.8,-9.8 -6.2,-6.3 -9.5,-11.900001 -9.6,-16.800005 h -13.8 v -1 h 14.8 v 0.5 c -0.1,4.700004 3.1,10.400005 9.3,16.600005 8.2,8.2 13.5,9.6 16.6,9.4 1.5,0 3,-0.6 4.1,-1.8 l 6.8,-6.8 -28.7,-28.700005 v 0 l -0.2,-0.2 h -10.9 v -1 h 10.9 l 0.2,-0.2 0.4,0.3 29.8,29.800005 -0.5,0.4 -7,7 c -1.2,1.3 -2.9,2.1 -4.7,2.1 z m -0.8,-5.2 v 0 c -2.3,0 -4.2,-1.9 -4.2,-4.1 0,-0.6 0.1,-1.1 0.3,-1.6 0.1,-0.3 0.2,-0.5 0.4,-0.7 l 0.1,-0.1 c 0.2,-0.3 0.4,-0.5 0.6,-0.7 1.7,-1.7 4.4,-1.7 6.1,-0.1 0.8,0.8 1.2,1.9 1.2,3 0,1.1 -0.5,2.2 -1.3,3.1 -0.2,0.2 -0.4,0.4 -0.7,0.6 l -0.1,0.1 c -0.2,0.1 -0.4,0.3 -0.7,0.4 -0.6,0 -1.2,0.1 -1.7,0.1 z m 0.2,-7.6 c -0.9,0 -1.8,0.4 -2.4,1 -0.2,0.2 -0.3,0.3 -0.4,0.5 v 0.1 c -0.1,0.2 -0.2,0.3 -0.3,0.5 -0.2,0.4 -0.2,0.9 -0.2,1.3 0,1.7 1.4,3.1 3.1,3.1 0.4,0 0.9,-0.1 1.3,-0.2 0.2,-0.1 0.4,-0.2 0.6,-0.3 l 0.1,-0.1 c 0.2,-0.1 0.4,-0.3 0.5,-0.4 0.6,-0.6 1,-1.5 1,-2.4 0,-1.8 -1.4,-3.2 -3.1,-3.2 -0.1,0.1 -0.2,0.1 -0.2,0.1 z"
   id="path4057"
   inkscape:connector-curvature="0"
   style="fill:#ffffff" />




















</svg>
