<?xml version="1.0" encoding="UTF-8" standalone="no"?>
<!-- Generator: Adobe Illustrator 26.0.1, SVG Export Plug-In . SVG Version: 6.00 Build 0)  -->

<svg
   xmlns:dc="http://purl.org/dc/elements/1.1/"
   xmlns:cc="http://creativecommons.org/ns#"
   xmlns:rdf="http://www.w3.org/1999/02/22-rdf-syntax-ns#"
   xmlns:svg="http://www.w3.org/2000/svg"
   xmlns="http://www.w3.org/2000/svg"
   xmlns:sodipodi="http://sodipodi.sourceforge.net/DTD/sodipodi-0.dtd"
   xmlns:inkscape="http://www.inkscape.org/namespaces/inkscape"
   version="1.1"
   id="Capa_1"
   x="0px"
   y="0px"
   viewBox="0 0 130.5 130"
   xml:space="preserve"
   sodipodi:docname="piconesGR_mini.svg"
   width="130.5"
   height="130"
   inkscape:version="0.92.5 (2060ec1f9f, 2020-04-08)"><metadata
   id="metadata4104"><rdf:RDF><cc:Work
       rdf:about=""><dc:format>image/svg+xml</dc:format><dc:type
         rdf:resource="http://purl.org/dc/dcmitype/StillImage" /><dc:title></dc:title></cc:Work></rdf:RDF></metadata><defs
   id="defs4102" /><sodipodi:namedview
   pagecolor="#ffffff"
   bordercolor="#666666"
   borderopacity="1"
   objecttolerance="10"
   gridtolerance="10"
   guidetolerance="10"
   inkscape:pageopacity="0"
   inkscape:pageshadow="2"
   inkscape:window-width="1912"
   inkscape:window-height="1046"
   id="namedview4100"
   showgrid="false"
   inkscape:zoom="3.0281426"
   inkscape:cx="60.682156"
   inkscape:cy="106.83116"
   inkscape:window-x="0"
   inkscape:window-y="0"
   inkscape:window-maximized="0"
   inkscape:current-layer="Capa_1" />
<style
   type="text/css"
   id="style4035">
	.st0{fill:#8D172D;}
	.st1{fill:#FFFFFF;}
	.st2{fill:#178D38;}
	.st3{fill:none;}
	.st4{fill:#3D0F17;}
</style>
<path
   class="st0"
   d="m 48.090335,71.845105 -17.7,-17.7 v 0 l -5.4,-5.4 c 0,0 -5.3,-6.7 -15.0000004,3 -9.7,9.7 -4.1,14.6 -4.1,14.6 l 3.1,3.1 4.5000004,-4.5 c 0,0 5.2,-5.5 10.5,-0.2 l 8.9,8.9 c 0.1,0.1 0.3,0.3 0.4,0.4 l 2.5,2.5 v 17.9 l 12.3,-12 z"
   id="path4037"
   inkscape:connector-curvature="0"
   style="fill:#8d172d" />

<path
   class="st2"
   d="m 63.890335,5.6451054 -3.1,3.0999999 4.5,4.4999997 c 0,0 5.5,5.2 0.2,10.5 -5.3,5.3 -8.9,8.9 -8.9,8.9 -0.1,0.1 -0.3,0.3 -0.4,0.4 l -2.5,2.5 h -17.9 v 14.3 c -3.8,-0.1 -9.4,1.8 -17,9.4 -15.4000004,15.5 -7.6,21.4 -7.6,21.4 l 7.1,7 0.1,0.2 v 0 l 14.8,-14.8 14.7,-14.6 v 0 -10.6 h 10.5 l 17.7,-17.7 v 0 l 5.4,-5.4 c 0,0 6.7,-5.3 -3,-14.9999997 -9.7,-9.70000002 -14.6,-4.1 -14.6,-4.0999999 z m -44.3,65.7999996 v 0 c 0.2,0.1 0.4,0.2 0.6,0.3 l 0.1,0.1 c 0.2,0.1 0.4,0.3 0.6,0.5 1.5,1.4 1.7,3.8 0.3,5.3 -1.4,1.5 -3.8,1.7 -5.3,0.3 -0.1,-0.1 -0.2,-0.2 -0.3,-0.3 -0.2,-0.2 -0.4,-0.4 -0.5,-0.6 0,0 0,-0.1 0,-0.1 -0.1,-0.2 -0.2,-0.4 -0.3,-0.6 v 0 c -0.2,-0.5 -0.3,-1 -0.3,-1.5 0,-1 0.4,-1.9 1.1,-2.6 0.7,-0.7 1.6,-1.1 2.6,-1.1 0.4,0.1 0.9,0.1 1.4,0.3 z"
   id="path4041"
   inkscape:connector-curvature="0"
   style="fill:#178d38" />

<path
   class="st0"
   d="m 125.89033,63.645105 -3.1,-3.1 -4.5,4.5 c 0,0 -5.2,5.5 -10.5,0.2 l -8.899995,-8.9 c -0.1,-0.1 -0.3,-0.3 -0.4,-0.4 l -2.5,-2.5 v -17.9 h -14.3 c 0.1,-3.8 -1.8,-9.4 -9.4,-17 -15.5,-15.4999997 -21.4,-7.6 -21.4,-7.6 l -7,7.1 -0.1,0.1 v 0 l 14.7,14.7 14.7,14.7 h 10.6 v 10.6 l 17.599995,17.7 v 0 l 5.4,5.4 c 0,0 5.3,6.7 15,-3 9.7,-9.7 4.1,-14.6 4.1,-14.6 z m -65.799995,-44.3 v 0 c -0.1,0.2 -0.2,0.4 -0.3,0.6 0,0 0,0.1 -0.1,0.1 -0.1,0.2 -0.3,0.4 -0.5,0.6 -1.3,1.6 -3.7,1.8 -5.3,0.4 -1.6,-1.3 -1.8,-3.7 -0.4,-5.3 0.1,-0.2 0.3,-0.3 0.4,-0.4 0.2,-0.2 0.4,-0.4 0.6,-0.5 l 0.1,-0.1 c 0.2,-0.1 0.4,-0.2 0.6,-0.3 v 0 c 0.5,-0.2 1,-0.3 1.5,-0.3 1,0 1.9,0.4 2.6,1.1 0.7,0.7 1.1,1.6 1.2,2.6 -0.1,0.5 -0.2,1 -0.4,1.5 z"
   id="path4045"
   inkscape:connector-curvature="0"
   style="fill:#8d172d" />

<path
   class="st2"
   d="m 67.890335,124.34511 3.1,-3.1 -4.5,-4.5 c 0,0 -5.5,-5.2 -0.2,-10.5 l 8.9,-8.900001 c 0.1,-0.1 0.3,-0.3 0.4,-0.4 l 2.5,-2.500004 h 17.9 v -14.3 c 3.8,0.1 9.399995,-1.8 16.999995,-9.4 15.5,-15.5 7.6,-21.4 7.6,-21.4 l -7.1,-7 -0.1,-0.1 v 0 l -14.799995,14.7 -14.6,14.7 v 0 10.6 h -10.6 l -17.7,17.600004 v 0 l -5.4,5.400001 c 0,0 -6.7,5.3 3,15 9.7,9.7 14.6,4.1 14.6,4.1 z M 112.29033,58.545105 v 0 c -0.2,-0.1 -0.4,-0.2 -0.6,-0.3 0,0 -0.1,0 -0.1,-0.1 -0.2,-0.1 -0.4,-0.3 -0.6,-0.5 -1.5,-1.4 -1.6,-3.8 -0.2,-5.3 1.4,-1.5 3.8,-1.6 5.3,-0.2 0.1,0.1 0.1,0.1 0.2,0.2 0.2,0.2 0.4,0.4 0.5,0.6 0,0 0,0.1 0.1,0.1 0.1,0.2 0.2,0.4 0.3,0.6 v 0 c 0.2,0.5 0.3,1 0.3,1.5 0,2 -1.6,3.7 -3.6,3.7 0,0 0,0 -0.1,0 -0.6,0 -1.1,-0.1 -1.5,-0.3 z"
   id="path4049"
   inkscape:connector-curvature="0"
   style="fill:#178d38" />


<path
   class="st0"
   d="m 88.090335,111.84511 -14.7,-14.800001 -14.7,-14.600004 h -10.6 l -12.3,12 h 14.3 c -0.1,3.800004 1.8,9.400005 9.4,17.000005 15.5,15.5 21.4,7.6 21.4,7.6 l 7,-7.1 z m -10.2,2.8 c -0.2,0.2 -0.4,0.4 -0.6,0.5 l -0.1,0.1 c -0.2,0.1 -0.4,0.2 -0.6,0.3 v 0 c -0.5,0.2 -1,0.3 -1.5,0.3 -1,0 -1.9,-0.4 -2.6,-1.1 -0.7,-0.7 -1.1,-1.6 -1.1,-2.6 0,-0.5 0.1,-1 0.3,-1.5 v 0 c 0.1,-0.2 0.2,-0.4 0.3,-0.6 0,0 0,-0.1 0.1,-0.1 0.1,-0.2 0.3,-0.4 0.5,-0.6 1.4,-1.5 3.8,-1.6 5.3,-0.2 1.5,1.4 1.6,3.8 0.2,5.3 0,0.1 -0.1,0.2 -0.2,0.2 z"
   id="path4055"
   inkscape:connector-curvature="0"
   style="fill:#8d172d" />





















</svg>
