<svg width="1080" height="1080" viewBox="0 0 1080 1080" fill="none" xmlns="http://www.w3.org/2000/svg">
<rect width="1080" height="1080" fill="white"/>
<path d="M177.464 609C164.489 609 153.572 606.093 144.714 600.28C135.856 594.341 129.618 586.316 126 576.206L148.083 563.126C153.198 576.648 163.241 583.409 178.212 583.409C185.448 583.409 190.751 582.082 194.119 579.429C197.488 576.775 199.172 573.426 199.172 569.382C199.172 564.706 197.114 561.104 192.997 558.577C188.879 555.923 181.519 553.08 170.914 550.047C165.05 548.277 160.06 546.508 155.943 544.739C151.95 542.97 147.896 540.632 143.778 537.725C139.786 534.692 136.729 530.901 134.608 526.352C132.488 521.802 131.427 516.495 131.427 510.429C131.427 498.423 135.607 488.882 143.966 481.805C152.449 474.602 162.617 471 174.47 471C185.074 471 194.369 473.654 202.354 478.962C210.463 484.143 216.763 491.409 221.255 500.761L199.546 513.462C194.307 502.088 185.948 496.401 174.47 496.401C169.105 496.401 164.863 497.665 161.744 500.192C158.75 502.593 157.253 505.753 157.253 509.67C157.253 513.841 158.937 517.253 162.305 519.907C165.799 522.434 172.411 525.214 182.142 528.247C186.135 529.511 189.129 530.522 191.125 531.28C193.246 531.912 196.053 532.986 199.546 534.503C203.165 535.893 205.909 537.22 207.781 538.484C209.777 539.747 212.023 541.453 214.518 543.602C217.013 545.75 218.884 547.962 220.132 550.236C221.504 552.511 222.627 555.291 223.501 558.577C224.499 561.736 224.998 565.212 224.998 569.003C224.998 581.261 220.569 590.992 211.711 598.195C202.977 605.398 191.562 609 177.464 609Z" fill="#061B2B"/>
<path d="M316.72 473.654H342.546V606.346H322.896L266.754 525.214V606.346H240.928V473.654H260.578L316.72 554.596V473.654Z" fill="#061B2B"/>
<path d="M495.412 535.071V545.308C495.412 564.264 489.424 579.618 477.447 591.371C465.47 603.124 449.999 609 431.036 609C410.824 609 394.044 602.365 380.695 589.096C367.47 575.701 360.858 559.398 360.858 540.19C360.858 520.854 367.408 504.489 380.508 491.093C393.732 477.698 410.076 471 429.538 471C441.765 471 452.931 473.843 463.037 479.53C473.142 485.091 481.002 492.547 486.617 501.898L464.534 514.788C461.415 509.354 456.674 504.931 450.311 501.519C444.073 498.107 437.087 496.401 429.351 496.401C416.875 496.401 406.582 500.571 398.473 508.912C390.488 517.126 386.496 527.552 386.496 540.19C386.496 552.701 390.551 563.063 398.66 571.277C406.894 579.365 417.749 583.409 431.223 583.409C441.204 583.409 449.438 581.198 455.925 576.775C462.538 572.225 467.029 566.033 469.4 558.198H429.726V535.071H495.412Z" fill="#061B2B"/>
<path d="M561.711 609C547.114 609 535.137 604.83 525.78 596.489C516.423 588.148 511.745 576.964 511.745 562.937V473.654H537.383V560.852C537.383 567.802 539.317 573.299 543.184 577.343C547.177 581.387 553.352 583.409 561.711 583.409C570.07 583.409 576.184 581.387 580.051 577.343C584.043 573.299 586.04 567.802 586.04 560.852V473.654H611.865V562.937C611.865 576.964 607.187 588.148 597.829 596.489C588.472 604.83 576.433 609 561.711 609Z" fill="#061B2B"/>
<path d="M660.956 581.324H710.923V606.346H635.131V473.654H660.956V581.324Z" fill="#061B2B"/>
<path d="M813.463 606.346L805.603 582.462H753.391L745.531 606.346H717.647L763.496 473.654H795.497L841.534 606.346H813.463ZM761.625 558.008H797.556L779.59 503.794L761.625 558.008Z" fill="#061B2B"/>
<path d="M926.116 606.346L899.729 560.283H880.079V606.346H854.254V473.654H906.653C918.755 473.654 929.048 477.951 937.532 486.544C946.015 495.137 950.257 505.5 950.257 517.632C950.257 525.846 947.949 533.492 943.333 540.569C938.717 547.519 932.603 552.764 924.993 556.302L954 606.346H926.116ZM880.079 498.107V537.346H906.653C911.519 537.346 915.698 535.451 919.192 531.659C922.685 527.742 924.432 523.066 924.432 517.632C924.432 512.198 922.685 507.585 919.192 503.794C915.698 500.003 911.519 498.107 906.653 498.107H880.079Z" fill="#061B2B"/>
</svg>
