<?xml version="1.0" encoding="UTF-8" standalone="no"?>
<svg
   xmlns:dc="http://purl.org/dc/elements/1.1/"
   xmlns:cc="http://creativecommons.org/ns#"
   xmlns:rdf="http://www.w3.org/1999/02/22-rdf-syntax-ns#"
   xmlns:svg="http://www.w3.org/2000/svg"
   xmlns="http://www.w3.org/2000/svg"
   xmlns:xlink="http://www.w3.org/1999/xlink"
   xmlns:sodipodi="http://sodipodi.sourceforge.net/DTD/sodipodi-0.dtd"
   xmlns:inkscape="http://www.inkscape.org/namespaces/inkscape"
   viewBox="0 0 170 170"
   version="1.1"
   id="svg128"
   sodipodi:docname="2021.svg"
   width="170"
   height="170"
   inkscape:version="0.92.5 (2060ec1f9f, 2020-04-08)">
  <metadata
     id="metadata132">
    <rdf:RDF>
      <cc:Work
         rdf:about="">
        <dc:format>image/svg+xml</dc:format>
        <dc:type
           rdf:resource="http://purl.org/dc/dcmitype/StillImage" />
        <dc:title></dc:title>
      </cc:Work>
    </rdf:RDF>
  </metadata>
  <sodipodi:namedview
     pagecolor="#ffffff"
     bordercolor="#666666"
     borderopacity="1"
     objecttolerance="10"
     gridtolerance="10"
     guidetolerance="10"
     inkscape:pageopacity="0"
     inkscape:pageshadow="2"
     inkscape:window-width="1912"
     inkscape:window-height="1046"
     id="namedview130"
     showgrid="false"
     inkscape:zoom="1.2783014"
     inkscape:cx="-83.165799"
     inkscape:cy="92.309998"
     inkscape:window-x="0"
     inkscape:window-y="0"
     inkscape:window-maximized="0"
     inkscape:current-layer="svg128" />
  <defs
     id="defs48">
    <clipPath
       id="h"
       clipPathUnits="userSpaceOnUse">
      <use
         width="100%"
         height="100%"
         xlink:href="#a"
         id="use2"
         x="0"
         y="0" />
    </clipPath>
    <clipPath
       id="j"
       clipPathUnits="userSpaceOnUse">
      <use
         width="100%"
         height="100%"
         xlink:href="#b"
         id="use5"
         x="0"
         y="0" />
    </clipPath>
    <clipPath
       id="k"
       clipPathUnits="userSpaceOnUse">
      <path
         d="m 2.79,50.95 h 39.6 V 90.2 H 2.79 Z"
         id="path8"
         inkscape:connector-curvature="0"
         style="fill:none;stroke-width:0.25999999" />
    </clipPath>
    <clipPath
       id="i"
       clipPathUnits="userSpaceOnUse">
      <path
         d="M 0,1.37 H 212.47 V 191.9 H 0 Z M 2.8,50.95 V 94.43 H 47.07 V 50.95 Z"
         class="powerclip"
         id="path11"
         inkscape:connector-curvature="0"
         style="fill:none;stroke-width:0.25999999" />
    </clipPath>
    <clipPath
       id="l"
       clipPathUnits="userSpaceOnUse">
      <path
         d="m 568.85,564.72 13.2,-24.07 27.05,-4.96 -18.8,-20.04 3.6,-27.22 -24.84,11.68 -24.75,-11.86 3.42,27.27 -18.93,19.88 26.96,5.18 z"
         id="path14"
         inkscape:connector-curvature="0" />
    </clipPath>
    <clipPath
       id="n"
       clipPathUnits="userSpaceOnUse">
      <path
         d="m 568.85,564.72 13.2,-24.07 27.05,-4.96 -18.8,-20.04 3.6,-27.22 -24.84,11.68 -24.75,-11.86 3.42,27.27 -18.93,19.88 26.96,5.18 z"
         id="path17"
         inkscape:connector-curvature="0" />
    </clipPath>
    <clipPath
       id="p"
       clipPathUnits="userSpaceOnUse">
      <path
         d="m 568.85,564.72 13.2,-24.07 27.05,-4.96 -18.8,-20.04 3.6,-27.22 -24.84,11.68 -24.75,-11.86 3.42,27.27 -18.93,19.88 26.96,5.18 z"
         id="path20"
         inkscape:connector-curvature="0" />
    </clipPath>
    <clipPath
       id="r"
       clipPathUnits="userSpaceOnUse">
      <path
         d="m 568.85,564.72 13.2,-24.07 27.05,-4.96 -18.8,-20.04 3.6,-27.22 -24.84,11.68 -24.75,-11.86 3.42,27.27 -18.93,19.88 26.96,5.18 z"
         id="path23"
         inkscape:connector-curvature="0" />
    </clipPath>
    <clipPath
       id="d"
       clipPathUnits="userSpaceOnUse">
      <path
         d="M 0,1.37 H 212.47 V 191.9 H 0 Z"
         class="powerclip"
         id="path26"
         inkscape:connector-curvature="0"
         style="fill:none;stroke-width:0.25999999" />
    </clipPath>
    <clipPath
       id="e"
       clipPathUnits="userSpaceOnUse">
      <path
         d="m 2.79,50.95 h 39.6 V 90.2 H 2.79 Z"
         id="path29"
         inkscape:connector-curvature="0"
         style="fill:none;stroke-width:0.25999999" />
    </clipPath>
    <clipPath
       id="f"
       clipPathUnits="userSpaceOnUse">
      <path
         d="m 2.79,50.95 h 39.6 V 90.2 H 2.79 Z"
         id="path32"
         inkscape:connector-curvature="0"
         style="fill:none;stroke-width:0.25999999" />
    </clipPath>
    <clipPath
       id="t"
       clipPathUnits="userSpaceOnUse">
      <path
         d="M 40.49,4.56 H 209.76 V 189.18 H 40.49 Z"
         id="path35"
         inkscape:connector-curvature="0"
         style="fill:none;stroke-width:0.25999999" />
    </clipPath>
    <linearGradient
       id="c"
       x1="0"
       x2="1"
       y1="0"
       y2="0"
       gradientTransform="matrix(76.736527,25.616127,25.616127,-76.736527,538.04029,512.32057)"
       gradientUnits="userSpaceOnUse"
       spreadMethod="pad">
      <stop
         offset="0"
         stop-color="#fff"
         id="stop38" />
      <stop
         offset="1"
         stop-color="#e2e6ea"
         id="stop40" />
    </linearGradient>
    <linearGradient
       id="m"
       x1="0"
       x2="1"
       y1="0"
       y2="0"
       gradientTransform="matrix(76.736527,25.616127,25.616127,-76.736527,538.04029,512.32057)"
       gradientUnits="userSpaceOnUse"
       spreadMethod="pad"
       xlink:href="#c" />
    <linearGradient
       id="o"
       x1="0"
       x2="1"
       y1="0"
       y2="0"
       gradientTransform="matrix(76.736527,25.616127,25.616127,-76.736527,538.04029,512.32057)"
       gradientUnits="userSpaceOnUse"
       spreadMethod="pad"
       xlink:href="#c" />
    <linearGradient
       id="q"
       x1="0"
       x2="1"
       y1="0"
       y2="0"
       gradientTransform="matrix(76.736527,25.616127,25.616127,-76.736527,538.04029,512.32057)"
       gradientUnits="userSpaceOnUse"
       spreadMethod="pad"
       xlink:href="#c" />
    <linearGradient
       id="s"
       x1="0"
       x2="1"
       y1="0"
       y2="0"
       gradientTransform="matrix(76.736527,25.616127,25.616127,-76.736527,538.04029,512.32057)"
       gradientUnits="userSpaceOnUse"
       spreadMethod="pad"
       xlink:href="#c" />
    <path
       id="g"
       d="m 40.48,189.16 h 163.76 v 39.93 H 40.48 Z"
       inkscape:connector-curvature="0" />
  </defs>
  <g
     clip-path="url(#h)"
     transform="matrix(0.98853846,0,0,0.90254238,-40.432692,-0.74296159)"
     id="g51">
    <path
       id="a"
       d="m 93.75,186.33 c -7.04,-0.76 -11.33,-1.86 -16.64,-4.3 -2.16,-0.98 -5.77,-2.52 -8.03,-3.4 -4.7,-1.85 -9.76,-4.3 -11.58,-5.61 a 87.04,87.04 0 0 1 -7.4,-6.34 c -1.67,-1.69 -4.3,-5.38 -5.03,-7.06 -0.5,-1.17 -0.54,-1.5 -0.41,-4.38 a 29.9,29.9 0 0 1 1.36,-8.2 c 0.69,-2.28 1.13,-3.13 3.44,-6.53 2.4,-3.54 3.75,-5.1 5.2,-6 1.4,-0.88 1.32,-0.79 1.09,-1.16 -0.4,-0.63 -0.52,-2.86 0.16,-2.76 0.46,0.07 1,2.34 1.2,2.79 0.36,0.89 2.85,2.7 6.27,4.55 5.19,2.81 7.55,3.67 11.14,4.03 0.87,0.09 2.11,0.31 2.77,0.5 2.57,0.73 12.31,1.1 15.37,0.6 0.73,-0.13 2.14,-0.3 3.14,-0.4 a 11.2,11.2 0 0 0 3.63,-0.95 c 5.87,-2.58 7.75,-3.09 13.78,-3.72 1.27,-0.13 3.17,-0.34 4.24,-0.47 4.56,-0.56 23.21,-0.74 26.76,-0.26 2.56,0.34 9.07,2.59 11.12,3.83 1.02,0.63 1.47,0.63 2.03,0 0.51,-0.56 3.5,-2.38 6.04,-3.69 3.33,-1.71 8.68,-2.6 15.23,-2.54 2.92,0.04 4.66,0.16 5.3,0.38 1.35,0.47 1.58,0.41 1.96,-0.5 1.04,-2.47 0.94,-7.24 -0.22,-11.6 -0.32,-1.2 -1.67,-4.31 -1.62,-4.36 0.05,-0.05 1.46,1.57 1.78,1.65 0.52,0.13 0.66,0.93 1.12,2.9 1.02,4.38 1.09,8.86 0.19,11.47 -0.2,0.55 -0.25,1 -0.14,1 0.46,0 4.46,2.15 4.36,2.32 -0.3,0.48 -0.32,0.9 -3.94,-0.9 -0.9,-0.45 -1.89,-0.7 -2.11,-0.7 -0.23,0 -0.55,-0.13 -0.72,-0.3 -0.2,-0.2 -1.71,-0.34 -4.94,-0.44 -7.98,-0.24 -13.12,0.66 -17.43,3.06 -3.25,1.8 -4.37,2.57 -4.46,3.04 -0.09,0.45 1.85,1.26 4.19,1.73 1.41,0.3 5,0.97 4.29,1.2 -1.37,0.47 -5.99,-0.48 -9.77,-2.33 a 60.62,60.62 0 0 0 -10.35,-4.1 c -1.75,-0.48 -2.35,-0.5 -13.68,-0.49 -6.52,0.01 -12.56,0.07 -13.42,0.14 -2.84,0.23 -12.19,1.61 -13.47,2 -0.69,0.2 -1.34,0.35 -1.45,0.32 -0.1,-0.02 -0.47,0.07 -0.8,0.2 l -1.51,0.64 c -1.01,0.42 -1.53,1.27 -1.3,2.15 0.07,0.32 1.04,1.39 2.13,2.37 1.1,0.99 3.36,3.2 5.03,4.9 a 81.95,81.95 0 0 0 4.48,4.32 c 0.8,0.66 2.19,1.89 3.09,2.72 0.9,0.84 2.48,1.98 3.5,2.54 a 24.4,24.4 0 0 1 2.84,1.79 28.87,28.87 0 0 0 6.2,3.56 c 1.14,0.49 3.48,1.58 5.2,2.43 1.7,0.84 3.82,1.85 4.68,2.22 0.87,0.38 1.96,0.92 2.44,1.22 a 78.38,78.38 0 0 0 9.15,4.34 l 4.12,1.6 -0.4,0.1 c -1.58,0.43 -6.25,-1.34 -10.48,-3.68 -2.83,-1.56 -3.38,-1.77 -3.38,-1.27 0,0.87 -5.14,5.37 -7.62,6.68 -1.91,1 -5.83,2.76 -7.37,3.29 -0.87,0.3 -2.39,0.88 -3.39,1.29 -4.02,1.64 -6.88,2.22 -14.54,2.92 -3.91,0.36 -6.56,0.29 -12.42,-0.35 z m 15.67,-0.97 c 6.32,-0.69 11.9,-2.5 20.27,-6.63 3.5,-1.72 8.83,-6.13 8.63,-7.16 -0.08,-0.44 -2.5,-1.97 -3.13,-1.99 -0.8,-0.02 -11.74,-5.4 -13.27,-6.52 a 54.44,54.44 0 0 0 -3.5,-2.31 33.96,33.96 0 0 1 -4.33,-3.35 3636.52,3636.52 0 0 1 -7.7,-7.04 c -0.37,-0.33 -0.67,-0.68 -0.67,-0.77 0,-0.1 -0.54,-0.72 -1.2,-1.37 a 7.28,7.28 0 0 1 -1.22,-1.4 c 0,-0.33 0.52,0.2 0.15,0.2 -0.6,0 -3.54,-3.01 -3.54,-3.66 0,-0.78 -0.5,-0.92 -1.74,-0.48 -1.84,0.65 -4.86,0.93 -10.27,0.95 -5.84,0.03 -7.45,-0.07 -10.48,-0.64 a 22.67,22.67 0 0 0 -2.9,-0.4 c -0.46,0 -2.24,-0.42 -3.95,-0.94 a 42.32,42.32 0 0 1 -11.14,-5.64 c -1.25,-0.9 -2.15,-1.37 -2.6,-1.37 -0.38,0 -0.69,0.09 -0.69,0.2 0,0.1 -0.43,0.38 -0.95,0.6 -1.2,0.53 -2.26,1.8 -5.06,6.02 -2.44,3.68 -3.45,6.24 -3.94,9.94 a 12.52,12.52 0 0 1 -0.47,2.35 c -0.12,0.23 -0.22,1.3 -0.22,2.36 0,2.17 0.42,3.25 2.5,6.31 1.34,2 6.91,7.27 9.83,9.31 a 51.38,51.38 0 0 0 11,5.37 c 0.54,0.16 3.6,1.47 6.79,2.9 5.75,2.59 6.5,2.84 12.83,4.3 1.22,0.29 3.72,0.63 5.56,0.77 1.85,0.14 3.4,0.3 3.46,0.36 0.26,0.26 8.85,0.07 11.95,-0.27 z m 67.6,-2.45 c 0.17,-0.07 0.38,-0.06 0.46,0.02 0.08,0.08 -0.06,0.14 -0.32,0.13 -0.28,-0.01 -0.34,-0.07 -0.15,-0.15 z m 21.56,-9.42 c 0.14,-0.2 0.68,-1.25 2.66,-3.92 3.63,-4.92 5.35,-9.2 5,-12.5 -0.3,-2.87 -3.2,-8.39 -5.84,-11.08 -1.07,-1.1 -2.54,-2.27 -2.22,-2.27 0.25,0 1.58,0.66 1.5,0.54 -0.08,-0.13 -0.97,-0.76 -0.64,-0.6 0.8,0.41 3.87,3.3 4.9,4.93 4.4,6.93 4.63,10.84 1,17.48 a 69.56,69.56 0 0 1 -5.47,7.85 c -0.55,0.63 -1.66,0.75 -1.41,0.38 z m -34.32,-28.54 a 3.36,3.36 0 0 1 -1.45,-0.36 c -0.07,-0.07 1.96,-0.24 4.51,-0.2 2.55,0.04 6,-0.59 5.18,-0.04 -0.43,0.28 -4.73,0.75 -4.99,0.74 z M 55.08,131.08 c -0.52,-1.34 0.35,-5.33 2.12,-9.79 a 27.63,27.63 0 0 0 1.12,-3.13 c 0,-0.18 0.43,-1.17 0.97,-2.2 0.53,-1.03 0.96,-2.02 0.96,-2.21 0,-0.45 2.83,-4.76 4.15,-6.33 0.7,-0.82 1.42,-1.4 2.14,-1.67 0.6,-0.23 1.13,-0.45 1.17,-0.48 a 3.2,3.2 0 0 0 -0.54,-0.98 c -0.79,-1.15 -3.49,-5.34 -2.72,-5.34 0.33,0 3.3,3.91 3.3,4.04 0,0.76 3.26,4.2 4.71,4.97 0.27,0.14 1.8,1.01 3.4,1.93 3.24,1.87 3,1.77 8.82,3.74 5.09,1.72 7.12,2.06 13.78,2.27 2.73,0.1 5.72,0.27 6.65,0.4 4.68,0.64 13.79,1.08 14.04,0.68 0.07,-0.12 0.93,-0.21 1.91,-0.2 2.34,0 3.92,-0.24 4.83,-0.77 0.91,-0.52 4.66,-1.85 6.17,-2.17 1.1,-0.24 7.03,-2.56 9.81,-3.85 0.8,-0.36 2.87,-1.13 4.6,-1.7 a 35.6,35.6 0 0 0 3.86,-1.45 c 0.4,-0.23 1.55,-0.66 2.55,-0.95 1,-0.3 3,-1.03 4.47,-1.63 3.99,-1.65 5.42,-2.76 6.46,-5 0.46,-1 0.55,-1.6 0.55,-3.62 0,-2.26 -0.05,-2.5 -0.81,-3.98 a 47.2,47.2 0 0 0 -5.38,-7.58 8.9,8.9 0 0 0 -5.99,-2.92 c -0.85,-0.06 -1.72,-0.15 -1.93,-0.22 -1.18,-0.36 -7.18,-0.85 -10.45,-0.85 -3.73,0 -3.8,0 -7.56,1.07 a 53.18,53.18 0 0 1 -6.75,1.45 c -1.63,0.2 -4.05,0.53 -5.38,0.73 -3.39,0.48 -11.21,0.67 -15.21,0.37 -5,-0.39 -7.16,-0.92 -12.48,-3.09 -2.2,-0.9 -2.35,-1.01 -3.43,-2.48 -0.62,-0.86 -1.4,-1.83 -1.72,-2.16 -0.64,-0.65 -1.7,-3.53 -2.22,-6.03 -0.36,-1.68 -0.18,-8.33 0.34,-13.02 0.37,-3.37 0.85,-5.19 1.83,-6.98 0.18,-0.34 0.55,-1.14 0.82,-1.77 A 15,15 0 0 1 91.14,44 c 0.44,-0.43 0.8,-0.93 0.8,-1.1 0,-0.18 -0.71,-0.57 -1.57,-0.87 a 24.36,24.36 0 0 1 -5.84,-3.22 c -1.43,-1.05 -3.48,-3.35 -3.48,-3.9 0,-0.64 0.47,-0.72 0.7,-0.13 0.38,0.94 3.23,3.7 4.67,4.53 3.05,1.74 4.2,2.25 5.99,2.68 1.12,0.26 2.53,0.65 3.14,0.85 3.04,1.03 14.35,0.93 16.46,-0.15 a 4.8,4.8 0 0 1 1.26,-0.48 c 0.17,0 1.38,-0.7 2.7,-1.57 1.3,-0.86 2.61,-1.56 2.9,-1.55 0.5,0 2.4,0.47 9.22,2.26 3.05,0.8 3.84,0.92 7.98,1.1 5,0.23 10.69,-0.11 14.15,-0.86 2.2,-0.48 4.72,-1.71 6.57,-3.2 1.78,-1.45 1.82,-2.2 0.1,-2.2 -0.29,0 -0.64,-0.11 -0.77,-0.24 a 15.4,15.4 0 0 0 -3.4,-1.94 c -0.17,0 -0.81,0.38 -1.4,0.83 a 6.2,6.2 0 0 1 -2.49,1.11 c -0.77,0.16 -1.5,0.37 -1.64,0.48 -0.32,0.25 -2.37,0.44 -6.67,0.62 -2.9,0.12 -4.17,0.06 -7.06,-0.36 a 61.9,61.9 0 0 1 -3.85,-0.63 26.4,26.4 0 0 0 -2.13,-0.45 c -3.11,-0.57 -7.97,-2.31 -7.98,-2.86 0,-0.25 0.64,-0.23 1.15,0.03 1.23,0.62 2.97,1.27 3.93,1.45 0.6,0.11 1.96,0.42 3.02,0.69 a 36.02,36.02 0 0 0 11,1.38 c 6.98,0 10.86,-0.75 13.02,-2.52 0.89,-0.73 1.5,-0.93 1.5,-0.5 0,0.14 0.52,0.52 1.15,0.86 0.63,0.34 1.47,0.82 1.87,1.06 0.4,0.24 1.24,0.5 1.86,0.59 1.1,0.14 1.15,0.11 1.67,-0.72 0.48,-0.78 0.52,-1.08 0.4,-3.2 -0.11,-2 -0.24,-2.55 -0.86,-3.71 -0.4,-0.75 -0.77,-1.5 -0.83,-1.67 -0.09,-0.25 -0.28,-0.22 -0.85,0.1 -1.05,0.6 -1.69,0.53 -2.52,-0.3 -0.67,-0.66 -0.72,-0.83 -0.58,-1.79 l 0.16,-1.05 -1.28,-0.74 c -0.7,-0.4 -1.93,-1.25 -2.73,-1.9 -1.55,-1.24 -2.4,-1.7 -4.8,-2.58 a 93.26,93.26 0 0 1 -7.04,-2.76 l -1.43,-0.67 0.73,-0.26 c 0.6,-0.2 0.99,-0.17 2.64,0.42 5.14,1.81 9.3,3.57 10.05,4.31 0.21,0.22 0.64,0.55 0.94,0.75 0.3,0.2 0.83,0.59 1.18,0.86 0.35,0.28 1.18,0.81 1.84,1.19 2.18,1.24 4.96,3.57 4.96,4.15 0,0.18 0.08,0.32 0.18,0.32 0.61,0 1.64,4.46 1.57,6.83 -0.07,2.74 -2.74,5.67 -7.2,7.9 a 19.3,19.3 0 0 0 -2.16,1.2 c -0.12,0.13 -0.64,0.23 -1.14,0.23 -0.5,0 -2.08,0.19 -3.52,0.42 -2,0.32 -4.06,0.42 -8.77,0.42 -6.55,0 -8.52,-0.24 -11.6,-1.4 -0.74,-0.26 -2.15,-0.68 -3.15,-0.91 l -3.34,-0.8 -1.53,-0.39 -1.5,1.02 c -1.82,1.23 -5.23,2.76 -6.84,3.06 -2.47,0.47 -5.2,0.54 -9.77,0.28 -2.6,-0.15 -5.35,-0.44 -6.13,-0.64 L 93.34,43.4 92.7,44.09 a 20.54,20.54 0 0 0 -4.27,6.16 22.96,22.96 0 0 0 -1.42,3.9 c -0.52,2.39 -0.9,7.07 -0.96,11.58 -0.04,3.44 0.02,4.06 0.52,5.65 0.61,1.94 0.7,2.1 2.65,5.01 l 1.33,1.98 2.93,1.32 c 4.95,2.22 7.7,2.77 14.78,2.98 7.66,0.21 17.6,-0.85 23.1,-2.49 1.66,-0.49 3.56,-0.98 4.22,-1.08 2.5,-0.39 7.48,-0.23 12.94,0.4 6.72,0.77 7.79,1.14 10.15,3.48 1.94,1.91 5.25,6.55 6.2,8.68 0.63,1.42 0.7,1.82 0.7,4.1 -0.02,2.12 -0.11,2.75 -0.6,3.86 a 8.86,8.86 0 0 1 -1.05,1.87 l -0.48,0.54 0.82,0.33 c 1.29,0.51 6.38,2.44 9.05,3.42 3.02,1.1 4.02,1.69 6,3.5 1.76,1.61 3.92,4.94 5.11,7.91 0.6,1.49 1.7,3.06 1.41,3.24 -0.58,0.37 -1.8,-1.1 -2.72,-3.23 -0.94,-2.15 -3.28,-6 -3.65,-6 -0.12,0 -0.22,-0.15 -0.22,-0.34 0,-0.51 -2.71,-3.03 -3.27,-3.03 -0.5,0 -5.16,-1.65 -10.34,-3.64 -1.7,-0.66 -3.3,-1.2 -3.57,-1.2 -0.27,0 -1.05,0.33 -1.75,0.72 -1.61,0.9 -5.83,2.58 -7.01,2.8 -0.5,0.09 -0.9,0.26 -0.9,0.37 0,0.12 -0.26,0.22 -0.57,0.22 -0.75,0 0.64,-0.54 0.64,-0.28 0,0.11 -3.87,1.53 -4.37,1.6 -0.5,0.09 -1.26,0.31 -1.7,0.5 -0.44,0.2 -1,0.35 -1.27,0.35 -0.26,0 0.47,-0.18 0.47,-0.06 0,0.11 -1.25,0.56 -1.61,0.66 -0.37,0.09 -2.1,0.8 -3.87,1.6 a 79.46,79.46 0 0 1 -7.13,2.65 77.9,77.9 0 0 0 -5.5,1.91 18.69,18.69 0 0 1 -5.93,1.56 86,86 0 0 1 -12.9,-0.22 c -1.82,-0.2 -5.7,-0.48 -8.63,-0.63 -5.94,-0.3 -10.16,-0.75 -10.94,-1.16 -0.28,-0.16 -0.79,-0.28 -1.13,-0.28 -0.34,0 -0.62,-0.1 -0.62,-0.2 0,-0.26 -4.06,-1.49 -4.92,-1.49 -0.36,0 -0.64,-0.1 -0.64,-0.24 0,-0.13 0.48,0.07 0.3,0.07 -1.21,0 -8.7,-3.92 -11.06,-5.8 -1.75,-1.4 -2.27,-1.5 -3.9,-0.83 -1.08,0.44 -3.98,3.55 -4.33,4.63 -0.1,0.33 -0.44,0.98 -0.75,1.44 -0.3,0.47 -0.63,1.31 -0.72,1.88 -0.09,0.56 -0.26,1.02 -0.37,1.02 -0.3,0 -1.3,2.06 -1.76,3.6 -0.21,0.73 -0.5,1.39 -0.63,1.47 -0.73,0.45 -2.49,7.25 -2.38,9.18 0.08,1.33 0.08,3.25 -0.4,3.25 -0.29,0 -0.62,-2 -0.7,-2.2 z M 64.22,99.2 c -0.44,-0.3 -1.91,-3 -2.46,-4.52 a 39.9,39.9 0 0 1 -1.5,-6.63 c 0,-0.32 -0.65,-5.24 -0.35,-5.24 0.38,0 1.33,5.02 1.55,6.14 0.73,3.72 1.12,4.96 2.33,7.39 0.71,1.44 3.26,5.48 3.26,5.6 0,0.25 -2.47,-2.5 -2.83,-2.74 z m -31.5,-15.51 -2.1,-2.18 -2.9,1.08 -2.9,1.08 -7.61,-7.58 -7.62,-7.58 1.93,-1.93 1.93,-1.94 L 11.7,62.9 9.96,61.16 8.56,62.54 7.16,63.93 6.08,62.83 5,61.74 l 3.93,-3.91 3.92,-3.91 1.1,1.09 1.08,1.09 -1.33,1.3 -1.33,1.32 1.74,1.76 1.75,1.76 1.95,-1.93 1.94,-1.93 7.58,7.56 7.58,7.56 -1,2.74 c -0.54,1.5 -0.99,2.85 -0.99,3 0,0.14 0.88,1.12 1.96,2.18 2.17,2.13 2.54,2.76 2.12,3.56 -0.37,0.7 -0.68,0.88 -1.5,0.89 -0.57,0 -1.1,-0.41 -2.79,-2.18 z m -4.63,-4.3 1.81,-0.68 0.72,-2.08 0.73,-2.09 -1.69,-1.7 -1.68,-1.68 -2.85,2.83 -2.84,2.83 1.62,1.63 c 0.9,0.9 1.8,1.63 2,1.62 a 15,15 0 0 0 2.18,-0.69 z m -5.44,-13.53 -3.03,-3.02 -2.84,2.83 -2.83,2.83 3.01,3.02 3.02,3.02 2.85,-2.84 2.84,-2.83 z m -4.06,3.9 -1.14,-1.15 1.15,-1.14 1.16,-1.14 1.14,1.16 1.14,1.15 -1.16,1.14 -1.15,1.14 z m 41.17,12.77 c -0.25,-4.35 -0.37,-8.1 -0.5,-9.93 -0.17,-2.29 -0.24,-2.8 0.25,-2.68 0.63,0.16 0.72,1.62 0.95,8.04 0.14,4.17 0.61,8.79 0.22,8.89 -0.23,0.06 -0.92,-4.23 -0.92,-4.32 z m -0.77,-15.9 c -0.14,-4.65 0.62,-12.61 1.58,-16.46 0.73,-2.9 1.11,-3.83 3.55,-8.68 a 69.8,69.8 0 0 1 2.94,-5.5 c 0.11,-0.05 0.2,-0.2 0.2,-0.32 0,-0.12 0.2,-0.52 0.46,-0.88 0.75,-1.1 2.8,-4.47 3.18,-5.24 0.2,-0.4 0.46,-0.84 0.6,-1 0.13,-0.14 0.4,-0.5 0.6,-0.8 0.2,-0.3 0.56,-0.76 0.79,-1.03 0.23,-0.28 0.42,-0.57 0.42,-0.65 0,-0.09 0.45,-0.64 1,-1.23 0.54,-0.6 1.44,-1.67 1.99,-2.4 1.23,-1.64 3.07,-3.62 3.34,-3.62 0.12,0 1,-0.77 1.95,-1.72 1.72,-1.68 3.55,-3.1 4.01,-3.1 0.13,0 0.3,-0.15 0.36,-0.33 0.07,-0.17 0.76,-0.56 1.54,-0.85 0.77,-0.3 1.8,-0.79 2.26,-1.1 0.47,-0.3 1.83,-0.86 3.03,-1.22 1.19,-0.37 2.62,-0.87 3.18,-1.11 a 22.3,22.3 0 0 1 3.02,-0.92 c 7.94,-1.86 7.18,-1.75 14.1,-1.97 3.6,-0.12 6.7,-0.16 6.9,-0.1 0.2,0.06 1.6,0.27 3.1,0.46 1.52,0.2 2.88,0.46 3.03,0.57 0.81,0.61 2.66,0.99 5.21,1.06 1.91,0.06 2.7,0.21 2.87,0.35 l 0.41,0.33 c 0.13,0.1 0.7,0.43 1.17,0.95 0.61,0.67 0.9,1.26 1.03,2.07 0.14,0.96 0.32,1.06 0.86,1.37 3.18,1.81 1.4,1.24 0.15,1.24 -1.15,0 -2.11,-0.79 -2.11,-2.1 0,-0.59 -0.24,-1 -0.96,-1.71 a 5.27,5.27 0 0 0 -5.42,-1.32 c -0.84,0.23 -1.1,0.18 -2.54,-0.5 -0.88,-0.43 -2.31,-0.88 -3.18,-1 -0.86,-0.12 -2.22,-0.33 -3.02,-0.46 -2.37,-0.4 -13.56,0.1 -15.96,0.7 -1.06,0.27 -2.75,0.66 -3.75,0.88 -2.69,0.6 -9.2,2.8 -10.1,3.41 -0.45,0.3 -1.32,0.7 -1.94,0.88 -1.27,0.38 -4.32,2.47 -6.34,4.36 -0.73,0.68 -1.8,1.62 -2.38,2.08 -0.58,0.47 -1.66,1.65 -2.4,2.64 -0.75,1 -1.8,2.3 -2.34,2.92 -0.54,0.62 -1.14,1.33 -1.34,1.59 a 19.13,19.13 0 0 0 -2.66,3.93 c -0.43,0.86 -0.97,1.84 -1.2,2.18 a 53.07,53.07 0 0 0 -3.65,6.28 16.49,16.49 0 0 1 -1.46,2.61 c -0.12,0.05 -0.88,1.39 -1.69,2.99 A 18.8,18.8 0 0 0 61.42,50.38 77.88,77.88 0 0 0 60,65.91 c 0.02,3.35 0.3,5.99 -0.56,5.67 -0.4,-0.14 -0.35,-2.34 -0.44,-4.94 z m 47.45,-27.29 c -1.73,-0.94 -2.17,-3.16 -0.97,-4.84 0.27,-0.38 0.49,-0.77 0.49,-0.87 0,-0.22 1.95,-2.6 2.23,-2.71 0.32,-0.14 0.2,-1 -0.14,-1 -0.84,0 -3.37,-2.48 -3.5,-3.43 -0.03,-0.19 0.09,0.02 0,-0.08 -0.25,-0.24 -0.55,-2.99 -0.29,-3.15 0.12,-0.07 0.08,0.28 0,0.03 -0.12,-0.35 1.09,-2.16 1.12,-2.1 0.18,0.35 0.02,0.28 -0.07,0.28 -0.28,0 0.97,-1.21 1.74,-1.69 3.1,-1.91 7.28,-0.08 8.24,3.6 0.78,3.02 -1.4,6.14 -4.76,6.8 -0.78,0.15 -1.43,0.37 -1.43,0.5 a 19,19 0 0 0 0.97,2.25 c 1.06,2.22 1.23,3.6 0.64,5.02 -0.65,1.55 -2.73,2.23 -4.27,1.4 z m 3.34,-0.64 c 0.46,-0.32 0.53,-0.6 0.53,-1.92 0,-1.26 -0.14,-1.85 -0.77,-3.12 -0.43,-0.87 -0.9,-1.58 -1.05,-1.58 -0.36,0 -1.37,1.11 -2.14,2.35 -0.9,1.46 -0.9,3.44 0,4.15 0.78,0.61 2.63,0.68 3.42,0.12 z m -1.17,-10.83 c 0.64,-0.77 -0.3,-1.95 -1.14,-1.43 -0.84,0.53 -0.54,1.78 0.42,1.78 0.24,0 0.56,-0.15 0.72,-0.35 z m 3.37,-2.4 c 0.38,-0.2 0.82,-0.7 1,-1.11 0.67,-1.62 -1.06,-3.31 -2.69,-2.64 -1.06,0.44 -1.6,1.64 -1.19,2.64 0.3,0.72 1.22,1.42 1.89,1.44 0.17,0 0.62,-0.15 1,-0.34 z m 34.68,3 c -1.4,-0.85 -1.34,-2.6 0.12,-3.45 0.67,-0.4 0.9,-0.42 1.5,-0.17 1.84,0.76 1.88,2.9 0.08,3.83 -0.7,0.36 -0.8,0.35 -1.7,-0.2 z"
       clip-path="url(#i)"
       inkscape:connector-curvature="0"
       style="fill:#0b281d;stroke-width:0.23999999" />
  </g>
  <g
     transform="matrix(1.0000071,0,0,0.91732514,-40.149416,-3.6711347)"
     id="g124">
    <path
       d="m 149.19,55.57 7.15,5.35 -13,16.5 -7.16,-5.36 z"
       id="path53"
       inkscape:connector-curvature="0"
       style="fill:#ffffff" />
    <ellipse
       cx="109.74"
       cy="24.469999"
       rx="5.5100002"
       ry="4.8699999"
       id="ellipse55"
       style="fill:#ffffff" />
    <path
       d="M 40.48,4.54 H 209.75 V 189.16 H 40.48 Z"
       id="path57"
       inkscape:connector-curvature="0"
       style="fill:none" />
    <path
       d="m 97.48,185.98 c -0.93,-0.09 -2.54,-0.24 -3.73,-0.33 -1.2,-0.09 -2.96,-0.45 -3.82,-0.64 -0.87,-0.19 -2.42,-0.58 -3.42,-0.8 -3.36,-0.7 -5.18,-1.3 -9.68,-3.32 -2.46,-1.1 -5,-1.93 -5.65,-2.21 -0.65,-0.3 -2.06,-1.03 -3.05,-1.34 A 56.5,56.5 0 0 1 57.77,172.1 c -1.5,-1.13 -6.9,-5.96 -8.2,-7.29 a 27.25,27.25 0 0 1 -3.7,-5.05 6.2,6.2 0 0 1 -0.65,-2.86 c 0,-2.39 -0.01,-5.96 1.07,-4.12 0.5,0.87 2.83,4.44 2.98,4.6 0.15,0.16 1.04,1 1.76,1.85 1.87,2.21 1.73,2.8 4.06,4.64 4.2,3.31 6.78,4.51 13.33,7.47 8.4,3.8 19.86,5.36 30.34,6.28 3.56,0.31 10.95,1.2 13.1,0.8 0.74,-0.15 2.36,-0.42 3.23,-0.56 2.22,-0.38 5.56,-1.07 8.12,-2.3 1.2,-0.57 3.37,-2.1 5.08,-3.22 1.7,-1.13 3.55,-1.7 4.3,-2.05 l 2.1,-0.95 2.14,0.81 c 2.38,0.91 2.18,1.77 1,3.1 -1.11,1.26 -5.36,4.23 -6.84,4.99 -3.09,1.58 -8.25,4.23 -11.4,5.34 -5.98,2.1 -15.09,3.06 -22.11,2.4 z m 82.68,-2.82 c 0.17,-0.07 0.38,-0.07 0.46,0.01 0.08,0.08 -0.06,0.14 -0.32,0.13 -0.28,-0.01 -0.33,-0.07 -0.14,-0.14 z m -9.33,-1.45 c -1.76,-0.24 -3.92,-0.52 -6.02,-0.84 -2.1,-0.31 -4.12,-0.67 -5.58,-1.1 -4.8,-1.37 -15.2,-5.8 -19,-8.04 -0.7,-0.41 -1.95,-1 -2.77,-1.34 -0.82,-0.34 -3.07,-1.46 -4.87,-2.35 -1.8,-0.89 -3.89,-1.98 -4.95,-2.44 -1.8,-0.76 -5.36,-2.56 -6.47,-3.52 a 17.28,17.28 0 0 0 -2.4,-1.65 38.09,38.09 0 0 1 -4.8,-3.58 c -2.82,-2.47 -7.58,-7 -8.14,-7.8 -0.19,-0.26 -1,-1.05 -1.74,-1.66 -3.68,-3.1 -4.23,-4.53 -3.44,-5.57 0.31,-0.41 3.04,-1.61 3.65,-1.61 0.67,0 4.33,2.87 6.88,5.92 3.7,4.46 5.76,6.35 9.94,9.29 2,1.4 3.46,2.74 3.59,2.85 0.13,0.11 0.94,0.63 1.4,0.86 0.47,0.23 2,0.83 3.2,1.62 1.2,0.8 2.13,1.76 2.33,1.85 0.43,0.19 2.67,1.33 3.59,1.91 0.35,0.23 1.44,0.67 1.77,0.85 0.33,0.18 1.9,1.12 3.7,2.13 6.02,3.39 13.54,6.2 21.2,8.76 4.58,1.52 15.88,4.87 18.08,5.1 0.9,0.1 1.6,0.3 1.66,0.47 0.13,0.4 -6.01,0.56 -9.31,0.1 z m 8.1,0 c 0.3,-0.07 1.64,-0.1 1.87,-0.04 0.23,0.06 0.38,0.77 -0.15,0.77 -0.53,0 -5.58,-0.26 -1.71,-0.74 z m 20.36,-38.13 -0.59,-0.66 0.67,0.58 c 0.37,0.32 0.66,0.62 0.66,0.67 0,0.18 -0.2,0.03 -0.74,-0.59 z M 82.71,143.33 a 34.4,34.4 0 0 1 -4.6,-0.51 c -0.86,-0.2 -2.37,-0.42 -3.3,-0.54 -2.56,-0.33 -5.84,-1.2 -7.46,-2.03 a 221.43,221.43 0 0 1 -6.59,-3.53 c -1.26,-0.75 -3.6,-2.35 -3.92,-2.96 -0.2,-0.39 -0.08,-1.34 -0.2,-1.34 -0.13,0 -0.22,-0.3 -0.2,-0.68 0,-0.38 -0.58,-0.74 -0.67,-0.88 -0.43,-0.7 1.7,-9.6 2.48,-10.45 0.37,-0.4 1.58,1.62 1.57,4.83 -0.02,3.86 0.9,3.32 2.5,5.44 3.26,4.29 9.35,7.46 20.44,8.38 5.63,0.47 8.67,0.27 13.81,-0.69 16.6,-3.08 22.44,-3.14 26.2,-2.57 2.05,0.31 4.41,1.11 3.76,1.33 -0.2,0.06 -4.76,0.17 -7.09,0.26 -2.33,0.08 -2.78,0.29 -3.25,0.41 -0.47,0.12 -1.9,0.31 -2.79,0.39 -2.36,0.2 -5.03,0.64 -6.73,1.03 -1.54,0.36 -5.76,1.78 -6.6,2.3 -0.7,0.42 -2.5,0.96 -3.9,1.25 -1.1,0.22 -2.7,0.34 -8.47,0.62 -1.06,0.05 -1.93,0.1 -3.6,0.01 l -0.7,-0.03 z m 111.49,-3.6 c -0.3,-0.4 -0.3,-0.4 0.1,-0.1 0.22,0.18 0.41,0.37 0.41,0.42 0,0.2 -0.2,0.07 -0.51,-0.33 z M 193.23,139 c -0.3,-0.38 -0.29,-0.4 0.1,-0.1 0.23,0.19 0.42,0.38 0.42,0.43 0,0.2 -0.2,0.07 -0.52,-0.33 z m -79.42,-21.8 c -2.33,0 0.53,0.06 -0.87,-0.14 -2.38,-0.36 -15.7,-1.2 -17.53,-1.1 -2,0.1 -6.3,-0.78 -10.4,-2.1 -2.32,-0.76 -4.5,-1.2 -4.77,-1.39 -0.26,-0.18 -0.72,-0.65 -0.97,-0.65 -0.48,0 -6.15,-2.95 -6.4,-3.35 -0.08,-0.12 -0.7,-0.65 -0.93,-0.65 -0.23,0 -0.79,-0.53 -1.12,-0.83 -1.03,-0.93 -3.35,-3.34 -3.35,-3.63 0,-0.15 -0.31,-1.14 -1.03,-2.1 -1.3,-1.76 -4,-5.7 -4,-6.45 0,-0.22 -0.45,-1.78 -0.71,-2.79 -0.9,-3.53 -1.2,-2.68 -1.32,-7.23 -0.08,-2.52 -0.3,-10.25 -0.43,-11.57 -0.27,-2.76 -0.56,-10.09 -0.34,-11.35 0.08,-0.47 0.26,-2.53 0.4,-4.64 0.15,-2.1 0.47,-4.08 0.58,-4.3 0.1,-0.21 0.39,-1.89 0.62,-3.15 0.42,-2.28 2.08,-6.26 2.62,-6.26 0.13,0 0.43,-0.72 0.43,-0.98 0,-0.26 1.23,-1.72 1.38,-1.81 0.16,-0.1 1.9,-0.62 1.81,-0.48 -0.08,0.13 -1.76,4.59 -1.97,6.16 -0.2,1.58 -0.87,3.9 -1,4.84 -1.64,11.45 -0.7,24.51 1.6,33.45 1.72,6.72 4.54,11.83 8,15.42 0.83,0.86 1.42,2.59 1.78,3.02 0.36,0.44 1.77,0.78 2.65,1.4 0.88,0.63 1.71,1.99 1.84,2.1 2.83,2.2 9.31,4.34 14.61,5.38 a 81.88,81.88 0 0 0 25.38,0.7 c 6.8,-0.96 19.86,-4.12 24.23,-5.59 0.8,-0.26 6.07,-0.54 6.26,-0.54 0.74,-0.02 -3.03,1.72 -5.24,2.45 a 31.43,31.43 0 0 0 -3.53,1.4 c -0.18,0.14 -1.26,0.28 -2.02,0.6 -2.83,1.17 -6.6,2.75 -6.81,2.75 -0.63,0 -4.8,1.2 -6.47,1.96 -1.66,0.75 -3.33,1.1 -5.64,1.26 -1.47,0.1 -2.83,0.31 -3.23,0.37 -0.4,0.06 -0.86,-0.18 -3.03,-0.18 z M 101,43.42 c -3.13,-0.15 -4.17,-0.05 -6.86,-0.8 -1.72,-0.49 -2.4,-0.54 -2.5,-0.54 -0.08,0 -3.08,0.62 -3.96,-1.66 l -3.52,-0.78 1.61,-1.93 c 0.78,-0.92 0.67,-2.03 1.19,-1.45 0.63,0.7 3.32,2.08 4.85,2.34 0.77,0.13 3,0.3 5.2,0.38 3.8,0.13 3.98,-0.7 5.87,-0.52 l 2.83,-0.06 1.16,0.87 c 1.6,1.21 1.77,-2 3.77,-2.6 1.64,-0.48 0.5,0.91 0.5,0.91 0.5,-1.9 4.83,-3.8 5.92,-4.17 2.51,-0.88 2.89,-0.63 4.57,0.19 1.42,0.69 2.08,0.76 6.77,1.9 3.6,0.88 7.01,1.7 12.25,1.57 6.2,-0.15 8.59,-1.36 10.7,-2.38 l 1.3,-0.63 1.58,0.32 c 2.03,0.41 3.13,1.8 3.76,1.8 1.59,0 -0.58,2.72 -3.66,4.3 -3.17,1.6 -7.48,2.13 -14.86,2.18 -5.6,0.05 -8.2,-0.16 -11.79,-1.14 a 85.76,85.76 0 0 0 -8.84,-1.99 c -0.22,0 -0.78,0.32 -2.1,1.2 -1.3,0.87 -2.2,1.52 -2.47,1.55 -0.27,0.03 -1.38,0.48 -1.8,0.7 -1.49,0.77 -6.4,0.67 -11.48,0.44 z"
       id="path59"
       inkscape:connector-curvature="0"
       style="fill:#bbe7d7" />
    <path
       d="m 90.63,159.54 c -5.72,-0.88 -9.1,-2.67 -11.73,-6.2 -1.53,-2.05 -1.96,-3.07 -1.97,-4.7 l -0.01,-1.38 -1.14,1.25 c -1.57,1.71 -3.89,2.65 -6.94,2.8 -3.07,0.15 -8.11,-0.62 -9.73,-1.48 -0.28,-0.15 -1.45,-0.87 -2.56,-2.08 l -1.97,-2.14 -0.46,-4.51 c -0.23,-2.37 0.27,-3.4 0.44,-4.02 0.34,-1.25 1.1,-2.49 1.87,-2.49 0.47,0 2.22,0.96 3.3,1.82 0.03,0.04 0.24,0.92 0.02,1.67 -0.27,0.94 -0.7,1.5 -0.59,2.3 0.14,1.02 0.34,1.35 1.43,2.38 1.98,1.86 2.94,1.8 5.68,1.83 2.98,0.04 4.57,0.1 5.74,-0.93 0.8,-0.7 1.34,-1.27 2.9,-1.12 0.9,0.08 2.91,0.66 3.84,0.86 0.93,0.2 2.06,0.3 2.52,0.2 l 0.82,-0.15 0.26,1.38 c 0.28,1.54 -0.61,3.01 -0.14,3.81 0.78,1.33 3.77,1.98 7.4,2.62 2.12,0.37 5.81,0.02 7.5,-0.77 1.08,-0.5 4.43,-3.43 4.43,-3.43 0.38,-0.97 0.5,-0.63 0.73,-0.8 0.45,-0.32 0.7,0.18 2.74,2.16 0.56,0.56 0.77,1.19 0.84,1.41 0.07,0.22 0.64,0.29 0.83,0.36 0.49,0.19 0.13,1.77 -0.36,1.77 -0.2,0 -0.36,0.2 -0.36,0.44 0,0.24 -0.16,0.65 -0.36,0.9 -0.2,0.26 -0.35,0.64 -0.36,0.85 0,0.38 -3.26,3.89 -4.58,4.7 -0.64,0.4 -6.28,1.1 -7.4,1.05 -0.26,-0.01 -1.45,-0.17 -2.63,-0.36 z m 89.34,-3.23 a 3.6,3.6 0 0 0 -1.26,-0.49 c -0.52,0 -3.8,-1.37 -6.48,-2.71 a 19.14,19.14 0 0 1 -3.42,-2.24 c -2.12,-1.88 -3.25,-2.6 -3.82,-2.41 -0.28,0.09 -1.45,0.78 -2.62,1.54 a 37.06,37.06 0 0 1 -6.95,3.78 c -1.37,0.51 -2,0.6 -4.5,0.6 -1.73,0 -3.56,-0.15 -4.53,-0.37 -1.46,-0.33 -1.87,-0.58 -4.05,-2.39 a 72.96,72.96 0 0 1 -5.24,-5.01 c -2.89,-3.07 -3.17,-3.56 -3.38,-5.83 l -0.07,-0.69 -1.47,1.42 c -2.14,2.06 -3.37,2.44 -6.74,2.07 -2.06,-0.23 -2.94,-0.09 -4.28,-0.76 -2.14,-1.08 -4.37,-2.27 -3.91,-3.52 l 0.5,-1.35 1.05,0.02 c 0.59,0 5.65,-0.05 11.26,-0.13 l 10.19,-0.15 0.17,1.7 c 0.15,1.48 0.84,1.84 1.86,3.38 1.78,2.69 2.86,3.33 4.42,4.69 l 2.07,1.39 3.14,0.1 3.33,-0.45 1.5,-0.83 c 1.46,-0.8 1.72,-0.83 2.3,-1.94 0.38,-0.71 0.92,-1.7 1.16,-1.78 0.23,-0.08 1.86,0.26 2.84,0.5 1.24,0.3 2.36,0.5 4.6,0.5 1.76,0 3.37,0.21 3.37,0.3 0,0.1 0.6,0.74 1.31,1.43 a 9.15,9.15 0 0 0 3.31,2.07 c 1.82,0.73 2.31,0.1 4.53,0.1 2.97,0 2.94,0.68 4.35,-2.73 l 0.98,-2.35 -1.15,-1.75 c -1.22,-1.85 -2.85,-3.5 -4.1,-4.15 -0.95,-0.49 -4.4,-0.5 -6.88,-0.03 -2,0.38 -3.88,1.22 -4.68,2.1 -0.6,0.66 -0.37,2.85 0.08,3.13 0.14,0.09 -0.4,0.9 -0.4,1.1 0,0.33 -0.42,0.64 -1.8,0.5 a 45.27,45.27 0 0 1 -8.27,-1.87 c -2.18,-0.82 -1.1,-1.17 3.93,-3.96 4.3,-2.4 9.46,-3.3 17.4,-3.06 l 4.6,0.14 1.99,1.67 c 3.76,3.17 5.36,5.94 5.36,9.29 0,3.74 -1.14,6.05 -3.88,7.85 -0.92,0.6 -1.83,1.1 -2.02,1.1 -0.2,0 -0.53,0.17 -0.74,0.38 -0.26,0.26 -1,0.9 -2.29,0.97 -1.55,0.09 -1.97,-0.47 -2.67,-0.87 z M 97.62,130.4 c -0.54,-0.2 -1.88,-0.58 -3,-0.87 -3.4,-0.86 -7.94,-3.36 -9.01,-4.98 -1.16,-1.75 -1.48,-2.6 -1.63,-4.35 l -0.15,-1.75 -2.16,1.21 c -1.63,0.9 -2.74,1.33 -4.48,1.7 -2.14,0.47 -2.54,0.49 -5.69,0.22 a 28.92,28.92 0 0 1 -4.71,-0.73 c -0.74,-0.24 -1.61,-0.5 -1.95,-0.57 -0.91,-0.2 -3.6,-2.47 -4.01,-3.68 -0.44,-1.3 0.45,-2.56 1.21,-3.72 0.31,-0.46 0.65,-1.11 0.75,-1.44 0.2,-0.66 0.58,-1.66 0.82,-1.65 0.08,0 0.53,1.31 1,2.36 l 1.61,2.29 0.92,0.34 c 3.37,1.24 4.04,1 6.97,0.85 3.1,-0.16 3.91,-0.93 5.88,-2.11 0.78,-0.47 2.3,0.1 2.58,0.1 0.75,0 4.77,1.24 4.77,1.48 0,0.1 2.1,0.29 1.7,0.24 l -0.25,-0.04 0.94,1.92 -0.66,1.95 1.63,1.38 c 0.78,0.66 0.84,1.88 1.4,2.27 0.57,0.38 1.44,1.07 1.94,1.53 1.05,0.95 1.4,1.1 4.12,1.82 1.1,0.29 2,0.63 2,0.76 0,0.15 0.73,0.2 1.87,0.15 a 7.74,7.74 0 0 0 3.69,-0.95 c 1,-0.48 2.41,-1.07 3.14,-1.3 0.8,-0.27 2.15,-1.06 3.39,-2 2.04,-1.55 2.06,-1.57 2.61,-3.36 l 0.56,-1.8 2.22,0.06 c 1.22,0.03 2.95,-0.03 3.84,-0.14 l 1.61,-0.18 1,1.28 c 1.3,1.65 4.21,5.46 6.05,6.31 a 14.48,14.48 0 0 0 5.57,1.57 c 1.64,0.12 1.75,-0.78 2.87,-1.35 a 7.68,7.68 0 0 0 3.34,-3.55 c 0.26,-0.52 1.45,-2.06 1.9,-3.8 0.7,-2.7 -0.15,-3.83 -0.15,-6.13 0,-2.54 1.01,-2.47 1.46,-2.47 0.26,0 0.83,-0.16 1.27,-0.35 0.44,-0.19 1.06,-0.62 1.56,-0.7 0.5,-0.08 1.05,-0.03 1.05,-0.14 0,-0.28 3.11,-1.37 3.11,-1.37 0.53,0 1.65,0.35 2.1,1.3 0.72,1.55 2.58,4.84 4.1,5.6 0.66,0.33 1.47,0.08 1.54,0.16 0.34,0.44 2.26,-1.35 5.26,-0.18 l 3.78,1.47 0.53,-1.52 c 0.32,-0.9 3.21,-0.97 4.17,-1.82 1.58,-1.43 1.75,-2.33 1.9,-3.4 0.2,-1.54 0.59,-0.84 2.36,0.87 1.24,1.2 1.87,1.64 1.74,2.26 -0.2,0.89 -4.08,4.7 -5.48,5.69 a 24.73,24.73 0 0 1 -5.89,2.9 c -1.55,0.41 -2.6,0.4 -5.5,-0.03 -1.87,-0.28 -2.88,-0.6 -4.94,-1.57 -3.5,-1.65 -6.41,-0.95 -7.3,-3.48 l -0.2,-0.57 -0.8,0.92 c 0,3.53 -0.13,5.55 -1.5,8.37 a 15.63,15.63 0 0 1 -5.36,5.82 c -1.42,0.95 -3.69,1.33 -6.74,1.12 -3.25,-0.22 -5.02,-0.68 -7.04,-1.83 a 14,14 0 0 0 -1.83,-0.95 c -0.1,0 -0.9,-0.43 -1.78,-0.96 a 9.68,9.68 0 0 0 -1.88,-0.97 c -0.54,0 -2.96,-2.4 -3.4,-3.36 -0.5,-1.12 -0.69,-1.2 -1.16,-0.45 -1.7,2.73 -5.11,6.23 -6.95,7.15 -1.97,0.99 -3.73,1.6 -8.95,1.74 -3.42,0.08 -4.52,-0.32 -5.28,-0.6 z M 95.14,94.78 a 18.87,18.87 0 0 1 -3.8,-1.05 37.9,37.9 0 0 0 -1.87,-0.84 c -0.31,-0.11 -1.26,-0.73 -2.1,-1.37 -2.06,-1.54 -2.83,-3.23 -3.1,-6.76 -0.1,-1.33 -0.03,-1.62 0.65,-2.84 0.43,-0.74 0.68,-1.35 0.57,-1.35 -0.12,0 -0.7,0.18 -1.3,0.39 -2.4,0.84 -6.17,0.28 -8.74,-2.06 C 74.4,77.94 74.32,77 74.08,75.98 73.92,75.3 73.8,74.38 73.8,73.92 c 0,-1.1 1.33,-5.07 2,-5.94 a 45.04,45.04 0 0 1 4.04,-4.47 14.3,14.3 0 0 1 4.06,-2.4 4.96,4.96 0 0 0 1.42,-0.81 c 0.1,-0.15 -0.4,1.4 -0.4,2.94 v 2.82 l -1.66,0.76 c -1.4,0.65 -1.84,1 -2.78,2.28 -0.98,1.33 -1.12,1.68 -1.12,2.71 0,1.36 0.81,3.99 1.38,4.46 0.6,0.5 3.54,0.32 4.82,-0.3 1,-0.48 1.1,-1 1.66,-0.63 0.33,0.21 0.6,1 0.6,1.12 0,0.12 0.58,0.58 1.24,1.44 1.1,1.45 1.49,1.29 1.28,2.01 -0.34,1.18 -0.63,3.5 -0.22,4.37 0.2,0.42 1.06,1.46 1.91,2.3 l 1.54,1.51 2.5,0.46 c 1.58,0.28 3.65,0.45 5.57,0.45 h 3.05 l 2.63,-1.35 c 2.78,-1.44 3.07,-1.69 3.4,-2.98 l 0.22,-0.8 3.25,-0.09 c 1.8,-0.04 4.1,-0.2 5.14,-0.35 1.04,-0.15 2.26,-0.55 2.3,-0.5 1.5,2.3 2.65,3.55 6.19,4.4 1.61,0.39 2.79,-0.27 6.76,-0.27 4.73,0 4.52,0.3 6,-0.35 1.3,-0.57 2.17,-0.57 4.07,-2.77 a 9.77,9.77 0 0 0 1.86,-3.79 c 0,-0.41 0.46,0 1.87,0.15 2.29,0.24 3.48,-0.01 3.31,0.64 -0.07,0.29 -0.5,1.66 -0.59,1.73 -0.3,0.25 -1.61,2.65 -1.95,3.77 -0.77,2.57 -2.6,4.03 -6.5,5.21 -1.36,0.41 -3.01,0.94 -3.68,1.16 -1.71,0.6 -10.1,0.6 -11.73,0.01 -0.6,-0.21 -1.85,-0.63 -2.78,-0.92 a 9.7,9.7 0 0 1 -2.06,-0.84 c -0.2,-0.17 -0.73,-0.49 -1.17,-0.72 -1.1,-0.55 -2.4,-1.76 -2.6,-2.39 a 2.9,2.9 0 0 0 -0.46,-0.87 c -0.17,-0.2 -0.35,-0.58 -0.4,-0.84 -0.08,-0.38 -0.35,-0.1 -1.21,1.22 a 10.2,10.2 0 0 1 -4.31,3.89 35.5,35.5 0 0 0 -2.42,1.46 c -2.67,1.8 -5.35,2.46 -9.92,2.42 A 35.28,35.28 0 0 1 95.14,94.78 Z M 84.3,37.65 c -1.15,-0.84 -2.48,-2.25 -2.14,-2.46 0.13,-0.08 0.06,-0.97 0.06,-1.26 0,-0.93 1.87,-2.18 3.63,-3.82 5.02,-4.74 16.65,-11.3 18.73,-9.98 0.23,0.14 1.65,0.47 1.27,1.2 -0.38,0.74 -1.6,2.1 -1.56,3.52 l 0.87,1.87 -1.55,-0.13 c 0,0 -12.81,6.25 -16.81,10.47 -0.68,0.71 -1.45,1.54 -1.53,1.54 -0.08,0 -0.43,-0.56 -0.96,-0.95 z"
       id="path61"
       inkscape:connector-curvature="0"
       style="fill:#3fc28f" />
    <path
       d="m 106.36,38.58 c -1.2,-0.94 -0.82,-4.06 0.88,-6.08 0.98,-1.16 1.88,-0.66 2.7,1.1 0.54,1.13 0.37,2.1 0.37,3.13 0,1.31 -0.04,1.77 -0.78,2.22 -1.03,0.62 -2.36,0.27 -3.17,-0.37 z"
       id="path63"
       inkscape:connector-curvature="0"
       style="fill:#2698ca" />
    <path
       d="m 181.4,182.02 c -0.14,-0.1 -2.06,-0.73 -3.55,-0.96 -6.48,-1 -16.92,-4.08 -25.22,-7.46 a 145.26,145.26 0 0 1 -17.29,-8.58 c -14.55,-8.52 -19.2,-11.93 -24,-17.61 -3.1,-3.68 -4.81,-5.5 -5.95,-6.33 -0.6,-0.44 -1.45,-0.9 -1.24,-0.96 0.18,-0.06 1.31,-0.04 1.74,-0.18 0.43,-0.14 2.25,-0.76 4.35,-1.03 2.1,-0.28 5.25,-0.72 6.06,-0.85 2.02,-0.32 1.43,0.05 1.6,1.06 0.18,1.17 1.44,2.4 3.49,3.42 1.19,0.6 2.07,0.82 4.05,1.04 3.37,0.37 4.6,0 6.74,-2.07 l 1.47,-1.42 0.07,0.69 c 0.21,2.27 0.5,2.76 3.38,5.83 1.55,1.64 3.9,3.9 5.24,5.01 2.18,1.81 2.6,2.06 4.05,2.39 0.97,0.22 2.8,0.37 4.53,0.37 2.5,0 3.13,-0.09 4.5,-0.6 1.87,-0.7 4.05,-1.89 6.95,-3.78 a 22.2,22.2 0 0 1 2.62,-1.54 c 0.57,-0.18 1.7,0.53 3.82,2.41 0.76,0.67 2.3,1.68 3.42,2.24 2.69,1.34 5.96,2.71 6.48,2.71 0.23,0 0.84,0.23 1.37,0.52 0.82,0.43 1.23,0.49 2.72,0.38 1.13,-0.09 1.89,-0.27 2.14,-0.52 0.2,-0.2 0.54,-0.38 0.73,-0.38 0.2,0 1.1,-0.49 2.02,-1.1 2.73,-1.78 3.88,-4.1 3.88,-7.8 0,-3.41 -3.21,-7.5 -7.08,-10.73 -1.3,-1.07 0.63,0.1 2.9,1.02 2.52,1.02 5,2.23 8.53,4.79 4.08,2.97 5.72,5.1 7.41,7.94 3.2,5.33 4.13,8.82 2.4,13.03 -0.86,2.08 -3.2,4.94 -5.01,7.34 -0.93,1.24 -1.74,3 -2.04,3.6 a 15.1,15.1 0 0 1 -3.83,4.38 c -2,1.22 -5.51,2.48 -10.41,3.33 -3.01,0.52 -2.73,0.68 -3.05,0.4 z m -81.6,-2.57 c -18.93,-1.37 -37.83,-8.4 -47.78,-17.76 -2.85,-2.68 -6.04,-7.31 -6.04,-8.77 0,-0.98 -0.1,-3.37 0.62,-5.66 1.02,-3.2 7.5,-12.05 8.73,-12.05 0.32,0 0.28,0.44 -0.09,1 -0.38,0.58 -1.04,2.25 -0.65,5.9 l 0.17,2.48 2,2.81 a 10.7,10.7 0 0 0 2.35,2.43 c 1.62,0.86 6.66,1.63 9.73,1.48 3.05,-0.15 5.37,-1.09 6.94,-2.8 l 1.14,-1.25 v 1.38 c 0.02,1.62 0.45,2.66 1.95,4.67 2.71,3.63 6.1,5.38 12.1,6.26 2.47,0.36 2.73,0.36 5.64,-0.11 1.67,-0.27 3.35,-0.69 3.73,-0.92 1.33,-0.82 4.9,-4.01 4.9,-4.39 0,-0.2 0.17,-0.59 0.36,-0.85 0.2,-0.25 0.36,-0.66 0.36,-0.9 0,-0.24 0.16,-0.44 0.36,-0.44 0.2,0 0.37,-0.21 0.37,-0.48 0,-0.26 0.16,-0.76 0.27,-0.76 0.1,0 1.41,1.2 2.46,2.2 1.06,1 2.14,2.07 2.67,2.49 0.54,0.41 1.58,1.53 2.58,2.48 1,0.94 2.68,2.23 3.74,2.86 1.07,0.63 2.73,1.52 3.48,2.1 0.82,0.64 3.88,2.19 7.23,3.78 3.1,1.46 5.57,2.7 5.57,2.7 a 8,8 0 0 1 -1.5,0.8 c -0.73,0.34 -2.67,1.48 -4.3,2.53 -6.08,3.91 -10.25,5.5 -16.91,6.43 a 67.9,67.9 0 0 1 -12.19,0.36 z M 89.23,151.8 c -3.6,-0.65 -6.19,-1.78 -6.96,-3.02 a 5.85,5.85 0 0 1 -0.46,-3.71 l 0.27,-1.62 5.81,0.13 c 5.7,0.12 8.98,-0.43 10.3,-1.03 0.86,-0.4 2.03,-0.2 2.03,0.6 0,0.47 0.29,1.09 1.1,1.84 0.64,0.57 1.14,1.05 1.34,1.05 0.26,0 0.08,0.3 -0.34,0.65 -0.33,0.28 -0.58,0.57 -0.55,0.66 0.09,0.3 -3.37,3.14 -4.43,3.64 -0.95,0.44 -2.82,0.78 -5.66,1.03 -0.46,0.04 -1.57,-0.06 -2.45,-0.22 z m 86.29,-3.07 c -1.35,-0.56 -3.39,-1.25 -4.32,-2.15 -1.39,-1.34 -2.77,-1.71 -2.08,-1.72 A 6,6 0 0 0 170.5,144 c 0.4,-0.3 2.18,0.29 1.81,0.15 -0.22,-0.09 -0.52,-0.06 -0.67,0.05 -0.15,0.1 -0.93,0.22 -1.72,0.25 -1.4,0.06 -1.36,0.56 -1.66,-0.13 -0.44,-0.99 -0.25,-3.64 0.42,-4.38 0.79,-0.87 2.67,-1.72 4.67,-2.1 2.48,-0.48 5.93,-0.46 6.88,0.03 1.25,0.64 2.88,2.3 4.1,4.15 l 1.15,1.75 -0.98,2.35 c -1.42,3.43 -1.43,3.44 -4.53,3.41 -2.3,-0.02 -2.74,-0.1 -4.45,-0.8 z m -26.76,0.12 c -1.62,-0.37 -3.69,-1.78 -5.16,-3.53 -2.23,-2.64 -3,-4.07 -3.2,-5.94 l -0.16,-1.6 2.05,-0.17 c 3.86,-0.3 7.94,1.84 14.23,4.9 l 3.85,1.52 -0.83,1.7 c -0.6,1.22 -0.97,1.49 -2.44,2.29 -1.67,0.9 -1.74,0.91 -4.6,0.96 -1.6,0.04 -3.28,-0.03 -3.74,-0.13 z M 64.73,145 c -1.56,-0.22 -2.58,-0.77 -4.14,-2.25 -1.09,-1.02 -1.29,-1.35 -1.43,-2.37 -0.1,-0.8 -0.03,-1.6 0.23,-2.5 l 0.32,-1.54 1.4,0.7 c 2.4,1.22 6.84,3.6 9.11,4.29 1.33,0.4 2.64,0.98 2.94,1.05 1.25,0.32 0.27,0.64 -0.24,1.15 -1.03,1.04 -5.52,1.84 -8.2,1.47 z m 90.6,-3.9 c -1.94,-1.18 -8.56,-3.24 -11.21,-3.67 -1.36,-0.23 -4.11,-0.14 -9.82,-0.13 -6.16,0.02 -7.7,0.06 -7.7,-0.16 0,-0.88 -6.48,-1.84 -11.38,-1.35 -3.2,0.32 -9.99,1.44 -17.72,2.91 -4.7,0.9 -5.57,1 -8.95,1 -11.62,-0.01 -22.01,-2.72 -26.58,-6.94 -2.77,-2.56 -3.73,-5.27 -3.17,-8.89 0.17,-1.1 -0.14,-2.78 -0.22,-3.1 -0.25,-0.96 1.76,-4.99 2.36,-4.99 0.23,0 0.34,0.83 0.76,1.54 0.25,0.42 2.48,2.81 3.15,2.96 0.33,0.07 1.2,0.33 1.94,0.57 0.73,0.24 2.85,0.57 4.71,0.73 3.15,0.27 3.55,0.25 5.7,-0.21 1.73,-0.38 2.84,-0.8 4.47,-1.71 l 2.16,-1.2 0.15,1.74 c 0.15,1.75 0.47,2.6 1.63,4.35 1.07,1.61 5.6,4.12 9.01,4.99 1.12,0.28 2.56,0.68 3.2,0.89 0.95,0.3 1.92,0.35 5.32,0.23 5.07,-0.17 6.79,-0.45 8.71,-1.4 1.84,-0.93 5.24,-4.43 6.95,-7.16 0.47,-0.74 0.66,-0.67 1.17,0.45 0.43,0.96 2.85,3.36 3.4,3.36 0.15,0 1,0.44 1.87,0.97 0.89,0.53 1.69,0.96 1.78,0.96 0.1,0 0.92,0.43 1.83,0.95 2.02,1.15 3.79,1.61 7.04,1.83 3.05,0.2 5.32,-0.17 6.74,-1.12 a 14.84,14.84 0 0 0 5.04,-5.82 16.5,16.5 0 0 0 1.82,-8.2 c 0,-1.43 0.09,-2.6 0.2,-2.6 0.1,0 0.72,0.56 1.38,1.24 1.53,1.56 3.18,2.62 6.57,4.24 a 14.94,14.94 0 0 0 5.08,1.65 c 2.92,0.44 3.96,0.44 5.51,0.03 a 24.73,24.73 0 0 0 5.9,-2.9 c 1.2,-0.86 5.11,-5.6 5.11,-6.12 0,-1.46 2.4,2.76 3.96,6.4 0.48,1.1 1.62,2.24 1.94,2.8 1.33,2.28 2.13,9.16 1.65,12.25 -0.29,1.84 -1.1,3.1 -1.46,3.1 -0.12,0 -0.78,0 -1.43,-0.2 -0.86,-0.25 -2.41,-0.21 -5.48,-0.21 -5.3,0 -10.12,0.7 -13.02,1.75 -1.7,0.61 -6.59,3.42 -7.47,4.26 -0.87,0.83 -1.53,0.58 -2.6,-0.08 z m -55.17,-14.17 c 0,-0.13 -0.9,-0.48 -2,-0.76 -2.73,-0.71 -3.07,-0.87 -4.12,-1.82 -0.5,-0.46 -1.37,-1.15 -1.93,-1.54 a 12.66,12.66 0 0 1 -2.17,-2.15 c -1.15,-1.45 -1.15,-1.47 -1.15,-3.32 0,-1.67 -0.1,-2.04 0.28,-1.89 0.9,0.37 5.61,0.7 10.84,0.96 3,0.14 7.26,0.64 9.52,0.87 2.26,0.24 4.28,0.24 4.77,0.18 0.5,-0.06 1.19,0.24 1.19,0.29 0,0.04 -0.25,0.86 -0.55,1.8 -0.53,1.69 -0.57,1.75 -2.6,3.28 a 14.05,14.05 0 0 1 -3.38,2 c -0.73,0.23 -2.14,0.82 -3.14,1.3 -1.5,0.71 -2.15,0.88 -3.69,0.95 -1.14,0.06 -1.87,0 -1.87,-0.15 z m 33.49,-0.64 a 20.04,20.04 0 0 1 -4.42,-1.74 c -1.43,-0.88 -4.7,-4.32 -5.4,-5.69 l -0.74,-1.45 0.5,-0.18 c 0.36,-0.08 1.37,-0.42 2.23,-0.76 2.65,-1.02 3.97,-1.51 7.5,-2.64 1.87,-0.6 5,-1.57 6.8,-2.37 1.83,-0.8 3.59,-1.52 3.92,-1.6 l 0.61,-0.16 v 2.5 c 0,2.06 -0.15,3.05 -0.83,5.67 -0.92,3.53 -1.34,4.5 -2.78,6.3 -1.8,2.27 -4.15,2.94 -7.4,2.12 z m -64.2,-10.61 c -3.32,-0.54 -3.91,-1.43 -4.83,-3.43 -0.83,-1.8 -1.21,-1.95 -0.8,-2.73 1.4,-2.59 4.99,-4.12 6.29,-2.83 1.56,1.55 6.16,4.13 10.31,5.91 0.77,0.33 1.96,0.57 1.91,0.7 -0.16,0.52 -4.32,2.48 -5.87,2.72 -2.63,0.4 -5.17,-0.04 -7.02,-0.34 z m 91.17,-0.9 a 3.1,3.1 0 0 1 -0.97,-0.4 8.34,8.34 0 0 0 -1.33,-0.77 c -1.58,-0.79 -4.32,-3.6 -5.23,-5.39 -0.4,-0.78 -0.9,-1.68 -0.86,-1.7 0.04,-0.03 0.8,0.06 1.45,-0.1 a 39,39 0 0 0 6.9,-3.23 c 0.85,-0.64 1.74,-0.49 4.9,0.75 1.57,0.6 4.72,1.54 6.32,2.1 4.92,1.76 4.12,0.82 3.94,2.08 -0.14,0.95 -0.16,1.84 -1.57,3.14 a 31.4,31.4 0 0 1 -3.68,2.83 l -1.62,0.97 -3.7,-0.02 a 30.65,30.65 0 0 1 -4.55,-0.27 z m -57.59,-0.94 C 96,113.47 88.97,111.78 83.83,109.22 74.33,104.49 68.2,96.28 65.21,84.3 62.64,73.99 62.51,60.77 64.86,46.03 c 0.26,-1.64 0.5,-3.3 0.55,-3.7 0.12,-1.17 2.97,-6.54 4.93,-9.28 0.24,-0.33 0.33,-1.27 0.73,-2.07 0.64,-1.3 1.88,-2.5 2.9,-3.71 0.18,-0.2 0.4,-1.05 0.98,-1.74 0.59,-0.68 1.74,-2.12 2.58,-3.2 0.83,-1.06 1.56,-2 1.64,-2 0.08,0 1.37,-0.59 2.36,-1.52 2.44,-2.28 5.95,-5.24 7.17,-5.57 0.55,-0.14 1.64,-0.25 2.14,-0.58 0.5,-0.34 1.46,-0.77 2.15,-0.95 0.68,-0.18 1.76,-1.04 2.82,-1.43 1.07,-0.39 3.15,-0.96 4.41,-1.26 1.27,-0.3 3.13,-0.28 3.93,-0.46 0.8,-0.2 2.1,-0.45 2.9,-0.57 2.15,-0.35 12,-0.92 14.53,-0.6 1.9,0.25 5.58,1.45 6.4,2.07 0.15,0.11 1.11,-0.08 2.14,-0.21 2.33,-0.3 4.03,0.47 5.26,1.73 0.7,0.7 0.37,1.1 0.47,1.99 0.13,1.13 0,0.8 1.55,1.56 1.57,0.77 1.88,1.25 5.92,2.78 5.44,2.06 5.39,1.48 7.68,3.22 0.8,0.61 1.78,1.9 2.4,2.28 1.13,0.69 2.63,0.36 1.26,1.83 -0.62,0.67 0.1,0.23 0.75,0.88 0.75,0.75 0.92,1.25 1.24,0.73 a 6.17,6.17 0 0 1 1.7,-0.41 c 0.32,0 0.93,1.06 1.47,2.17 0.65,1.32 0.15,2.08 0.26,3.9 0.1,1.8 0.57,1.73 0.21,2.4 -0.4,0.74 -0.88,1.8 -1.9,1.8 -0.6,0 -1.71,-0.4 -2.13,-0.63 l -2.08,-1.14 a 4.45,4.45 0 0 1 -1.2,-0.8 c -0.3,-0.49 0.23,-0.34 -1.05,0.58 -4.2,3.01 -14,3.55 -23.88,1.02 -1,-0.25 -3.49,-0.94 -3.95,-1.03 -0.75,-0.14 -2.14,-0.68 -3.45,-1.33 -0.56,-0.29 -1.15,-0.27 -1.15,0.03 0,0.13 -0.22,0.24 -0.5,0.24 -0.75,0 -3.9,1.83 -6.15,3.04 -2.28,1.23 -2.19,1.22 -2.25,-0.13 -0.04,-0.83 -0.04,-1.69 -0.61,-2.78 -1.14,-2.19 -1.98,-3.1 -0.67,-3.3 1.72,-0.25 3.87,-1.88 4.69,-3.3 0.86,-1.52 0.92,-1.68 0.58,-2.92 -1.2,-4.44 -5.32,-5.72 -8.47,-2.58 -0.36,0.36 -0.95,0.01 -1.17,-0.12 -1.5,-0.95 -9,2.01 -14.79,5.82 -4.24,2.8 -6.6,5.77 -7.4,7.78 -0.37,0.93 -0.95,1.5 -1.26,0.69 -0.26,-0.68 -0.14,-0.93 -0.14,-0.22 0,0.68 2.15,3.12 4.03,4.39 a 22.06,22.06 0 0 0 5.6,2.72 c 0.51,0.14 1.2,0.6 1.27,0.77 0.07,0.17 -0.3,0.91 -0.73,1.37 -0.44,0.45 -1.08,0.96 -1.28,1.22 -0.2,0.26 -0.4,0.82 -0.75,1.24 -0.35,0.43 -1.34,1.04 -1.58,1.68 -0.24,0.63 -0.15,1.36 -0.23,1.43 -0.09,0.06 -0.79,0.67 -1.13,1.53 -0.65,1.67 -1.04,3.74 -1.29,6.88 -0.16,2.13 1.17,2.18 0.2,2.42 -0.87,0.22 -4.57,1.9 -5.63,2.83 -0.86,0.75 -3.07,3.2 -4.04,4.47 -0.67,0.87 -2,4.84 -2,5.94 0,0.45 0.12,1.38 0.28,2.06 0.75,3.25 6.7,6.17 10.11,4.98 0.6,-0.21 1.18,-0.39 1.3,-0.39 0.11,0 -0.14,0.6 -0.57,1.35 -0.68,1.22 -0.75,1.51 -0.65,2.84 0.27,3.53 1.04,5.22 3.1,6.76 0.84,0.64 1.79,1.26 2.1,1.37 0.3,0.12 1.14,0.5 1.86,0.84 1.64,0.77 5.81,1.5 8.7,1.51 4.44,0.03 7.16,-0.64 9.8,-2.43 0.6,-0.4 1.69,-1.07 2.42,-1.46 a 10.2,10.2 0 0 0 4.3,-3.9 c 0.87,-1.31 1.14,-1.59 1.21,-1.22 0.06,0.27 0.24,0.65 0.4,0.85 0.18,0.2 0.39,0.59 0.47,0.87 0.2,0.63 1.5,1.84 2.6,2.4 0.44,0.22 0.98,0.54 1.17,0.71 0.2,0.17 1.13,0.54 2.06,0.84 0.93,0.29 2.18,0.7 2.78,0.92 1.63,0.59 10.02,0.58 11.73,0 0.67,-0.23 2.32,-0.76 3.67,-1.17 3.92,-1.18 5.74,-2.64 6.51,-5.22 0.36,-1.2 1.54,-3.71 1.85,-3.95 0.1,-0.07 0.2,-0.43 0.24,-0.8 0.05,-0.67 0.76,-1.34 1.82,-0.93 1.83,0.7 3.91,1.34 5.26,2.82 a 56.1,56.1 0 0 1 5.58,8.1 c 0.74,1.42 0.45,1.73 0.46,3.97 0,2.02 0.17,2.8 -0.38,3.76 -1.06,1.86 -2.72,3.4 -6.52,5 -2.79,1.17 -6.7,2.53 -6.6,2.19 0.05,-0.15 0.65,0.3 0,0 -0.68,0.36 -9.96,2.3 -14.58,3.41 -8.58,2.06 -17.62,3.48 -23.67,3.73 l -4.72,0.21 c -0.86,0.04 -3.05,0 -4.86,-0.1 z m 45.55,-86.13 c 0.84,-0.5 0.6,-0.52 0.35,-1.48 a 1.37,1.37 0 0 0 -1.36,-1.1 c -0.22,0 -0.15,0.05 -0.56,0.4 -0.6,0.49 -0.63,0.75 -0.63,1.48 0,0.73 -0.02,0.06 0.57,0.55 0.9,0.75 0.6,0.78 1.63,0.15 z m -79.65,77.04 c -0.3,-0.39 -0.3,-0.4 0.09,-0.1 0.23,0.19 0.42,0.38 0.42,0.43 0,0.2 -0.2,0.07 -0.51,-0.33 z M 95.84,88.53 93.58,88.11 92.04,86.58 a 12.45,12.45 0 0 1 -1.92,-2.3 6.02,6.02 0 0 1 -0.21,-3.44 c 0.2,-1.03 -0.5,-2.2 2.7,-0.93 2.88,1.14 5.65,2.92 8.57,3.4 1.92,0.31 9.21,0.58 9.75,0.44 0.32,-0.08 -0.12,1.15 -0.56,1.92 -0.31,0.57 -1.08,0.98 -3.05,1.99 l -2.63,1.34 -3.3,0.2 c -1.97,0.13 -4.2,-0.43 -5.55,-0.68 z m 31.87,-1.2 c -2.86,-0.72 -4.37,-1.48 -5.4,-2.74 -0.5,-0.61 -1.03,-1.56 -0.96,-1.67 0.08,-0.12 1.25,-0.29 2.35,-0.38 2.47,-0.19 6.68,-1.34 9.25,-2.2 1.72,-0.57 2.43,-0.47 6.09,-0.57 2.26,-0.05 5.05,0.37 5.98,0.48 1.53,0.18 1.76,-0.24 1.76,0.24 0,0.33 -0.88,1.99 -2.13,3.45 -1.58,1.86 -2.36,2.57 -3.38,3.08 -1.32,0.65 -1.39,0.66 -6.53,0.71 -4.4,0.04 -5.48,-0.02 -7.03,-0.4 z M 81.37,76.53 a 1.57,1.57 0 0 1 -0.79,-0.4 c -0.52,-0.63 -1.22,-3.14 -1.22,-4.35 0.01,-1.07 0.26,-1.8 1.22,-3.06 0.75,-1 2.35,-1.98 2.35,-1.98 1.83,-0.56 2.29,-1.15 2.15,-0.23 -0.14,0.97 0,4.05 0.84,6.67 0.65,2.02 1.36,1.76 1.05,2.16 -0.68,0.87 -4.33,1.45 -5.6,1.2 z m 12.5,-37.2 c -2.95,-0.22 -4.08,-0.52 -5.49,-1.49 -1.32,-0.9 -1.46,-1.16 -0.87,-1.63 l 2.15,-1.73 c 3.33,-2.69 9.32,-6.44 11.9,-7.45 1.93,-0.75 3.39,-0.8 4.22,0.5 0.45,0.7 1.05,1.24 1.87,1.68 1.13,0.62 1.04,1.5 0.54,1.7 -0.31,0.14 -1.77,2.5 -2.36,3.52 -0.4,0.68 -0.65,1.11 -0.79,2.12 l 0.68,1.85 -2.44,0.4 c -1.87,0.31 -5.1,0.84 -9.41,0.53 z m 10.42,-16.07 c 0,-0.28 0.06,-0.34 0.14,-0.15 0.07,0.18 0.06,0.39 -0.02,0.47 -0.08,0.08 -0.13,-0.07 -0.12,-0.32 z"
       id="path65"
       inkscape:connector-curvature="0"
       style="fill:#2f9b72" />
    <path
       d="m 108.33,32.16 c 0.18,-0.07 0.39,-0.06 0.47,0.02 0.08,0.08 -0.07,0.14 -0.32,0.13 -0.28,-0.02 -0.34,-0.07 -0.15,-0.15 z"
       id="path67"
       inkscape:connector-curvature="0"
       style="fill:#1e79a0" />
    <path
       d="m 174.76,182.83 c -3.76,-0.17 -5.32,-0.4 -11.9,-1.8 -3.5,-0.73 -7.69,-1.99 -10.49,-3.13 l -2.03,-0.83 1.11,-0.01 c 0.71,0 1.76,0.25 2.9,0.72 3.57,1.47 10.83,3.23 16.06,3.88 2.74,0.34 10.11,0.67 10.4,0.46 0.13,-0.1 1.44,-0.36 2.9,-0.6 6.59,-1.02 10.65,-2.45 12.34,-4.33 0.53,-0.6 1.3,-1.63 1.7,-2.3 0.5,-0.87 0.86,-1.21 1.25,-1.21 h 0.53 l -0.52,0.9 c -0.86,1.49 -2.57,3.63 -3.4,4.24 -1.24,0.93 -3.65,1.94 -6.1,2.55 -3.13,0.8 -8.8,1.73 -10.06,1.67 z M 162.7,144.19 c 0.5,-0.16 1.27,-0.16 2.3,0 l 1.54,0.24 h -2.3 c -1.87,0 -2.15,-0.04 -1.54,-0.24 z m 32.98,-2.04 a 51.26,51.26 0 0 0 -4.65,-3.17 6.66,6.66 0 0 1 -1.63,-1.07 c 0,-0.34 1.23,-0.17 2.16,0.3 1.06,0.54 7.45,5.25 7.96,5.87 0.3,0.36 0.27,0.4 -0.24,0.38 -0.32,-0.01 -1.9,-1.02 -3.6,-2.3 z m -140.1,-9.64 c -0.36,-0.36 -0.15,-1.05 0.32,-1.05 0.35,0 0.48,0.16 0.48,0.6 0,0.57 -0.44,0.81 -0.8,0.45 z m 128.9,-12.39 c -0.24,-0.4 -0.38,-0.72 -0.32,-0.72 0.06,0 0.28,-0.06 0.48,-0.14 0.24,-0.1 0.5,0.1 0.75,0.6 0.48,0.91 0.47,0.99 -0.06,0.99 -0.23,0 -0.62,-0.33 -0.86,-0.73 z M 65.95,101.5 c -0.38,-0.7 -0.86,-1.46 -1.06,-1.69 -0.33,-0.37 -0.33,-0.42 0.01,-0.42 0.36,0 1.7,1.64 2.33,2.83 0.24,0.47 0.22,0.55 -0.15,0.55 -0.27,0 -0.69,-0.48 -1.13,-1.27 z m -5.8,-15.41 c -0.25,-2.42 -0.2,-3.58 0.18,-3.58 0.24,0 0.36,0.56 0.46,2.1 0.08,1.17 0.22,2.3 0.3,2.54 0.13,0.31 0.05,0.42 -0.3,0.42 -0.4,0 -0.5,-0.22 -0.63,-1.48 z M 59.28,69.96 c 0,-0.26 0.16,-0.48 0.36,-0.48 0.2,0 0.36,0.22 0.36,0.48 0,0.27 -0.16,0.49 -0.36,0.49 -0.2,0 -0.36,-0.22 -0.36,-0.49 z m 77.38,-55.47 c -0.26,-0.17 0.16,-0.08 1.02,-0.07 0.9,0 0.47,-0.29 0.1,-0.13 -0.65,0.28 -0.68,0.48 -1.12,0.2 z"
       id="path69"
       inkscape:connector-curvature="0"
       style="fill:#010101" />
    <path
       d="m 198.89,144.28 a 28.32,28.32 0 0 1 -3.36,-2.27 49.3,49.3 0 0 0 -4.47,-3.03 c -0.82,-0.47 -1.35,-0.8 -1.51,-0.94 l -0.15,-0.14 0.08,-0.07 c 0.16,-0.14 0.8,-0.08 1.43,0.13 0.39,0.13 0.65,0.26 1.1,0.54 1.35,0.85 5.64,4.01 7.05,5.2 0.39,0.32 0.66,0.63 0.62,0.7 -0.01,0.02 -0.13,0.04 -0.26,0.04 -0.2,0 -0.27,-0.02 -0.53,-0.16 z"
       id="path71"
       inkscape:connector-curvature="0"
       style="fill:#0b281d" />
    <path
       d="m 165.54,145 -1.56,-0.09 a 4.98,4.98 0 0 1 -0.9,-0.21 l -0.63,-0.16 a 28.94,28.94 0 0 1 -6.83,-2.49 59.51,59.51 0 0 0 -9.07,-3.56 c -1.77,-0.5 -2.08,-0.54 -6.5,-0.6 a 1515.66,1515.66 0 0 0 -18.96,0.07 l -0.73,0.02 v -0.67 l 0.42,-0.02 c 3.94,-0.2 11.93,-0.34 16.95,-0.27 4.29,0.06 5.83,0.13 6.96,0.34 2.16,0.4 6.6,1.86 9.23,3.05 0.6,0.27 0.96,0.45 1.5,0.77 0.63,0.36 1.13,0.48 1.46,0.32 0.08,-0.03 0.27,-0.18 0.42,-0.32 0.36,-0.33 0.58,-0.5 1.22,-0.93 1.9,-1.26 4.88,-2.9 6.2,-3.43 2.78,-1.08 6.34,-1.7 10.78,-1.9 a 81.2,81.2 0 0 1 6.57,0.08 c 1.1,0.07 1.45,0.13 2.3,0.4 0.71,0.22 1.05,0.18 1.28,-0.15 0.45,-0.65 0.8,-2.14 0.94,-3.9 a 27.15,27.15 0 0 0 -1.07,-8.73 l -0.12,-0.35 h 1.28 l 0.11,0.46 c 0.44,1.85 0.7,3.45 0.87,5.2 0.07,0.86 0.09,3.34 0.01,4.02 a 13.06,13.06 0 0 1 -0.53,2.78 c -0.19,0.6 -0.26,1.06 -0.17,1.08 0.4,0.1 1.14,0.44 2.15,0.97 1.07,0.57 2.15,1.2 2.1,1.24 l -0.2,-0.06 c -0.53,-0.2 -1.32,-0.3 -1.54,-0.18 -0.14,0.07 -0.13,0.16 0.06,0.3 0.1,0.08 0.15,0.13 0.13,0.13 -0.1,0 -1.35,-0.56 -2.13,-0.95 a 8.07,8.07 0 0 0 -2.16,-0.74 c -0.37,-0.06 -0.54,-0.12 -0.73,-0.27 a 1.04,1.04 0 0 0 -0.33,-0.15 c -0.4,-0.1 -1.42,-0.2 -2.88,-0.27 -7.43,-0.34 -12.3,0.16 -16.35,1.67 -1.23,0.46 -2.33,1 -4.1,2.01 -2.35,1.35 -3.15,1.93 -3.24,2.36 -0.04,0.23 0.35,0.53 1.12,0.85 0.93,0.4 2,0.7 3.87,1.08 l 1.17,0.23 -0.3,0.02 -0.3,0.02 0.31,0.01 c 0.41,0 1.17,0.1 1.93,0.21 l 0.63,0.1 -0.84,0.02 a 109.9,109.9 0 0 0 4.18,-0.07 c 2.09,-0.19 3,-0.23 3.06,-0.14 0.1,0.16 -0.76,0.36 -2.57,0.6 -2.08,0.28 -2.46,0.3 -4.47,0.2 z m -2.15,-0.59 z m -0.82,-0.03 c -0.06,-0.01 -0.11,-0.03 -0.11,-0.05 0,-0.03 0.22,-0.12 0.43,-0.17 l 0.14,-0.04 -0.15,0.02 c -0.17,0.02 -0.5,0.15 -0.5,0.2 0,0.03 0.08,0.06 0.2,0.05 h 0.1 z m 0.68,-0.28 c -0.03,-0.01 -0.1,-0.01 -0.14,0 -0.04,0 -0.01,0.01 0.06,0.01 0.08,0 0.12,0 0.08,-0.01 z m 21.83,-23.37 c -0.2,-0.13 -0.42,-0.35 -0.58,-0.6 a 3.42,3.42 0 0 1 -0.33,-0.68 c 0,-0.04 0.36,-0.15 0.56,-0.18 0.18,-0.02 0.32,0.09 0.51,0.38 0.2,0.3 0.43,0.8 0.46,0.96 0.03,0.17 -0.05,0.22 -0.29,0.22 a 0.53,0.53 0 0 1 -0.33,-0.1 z M 61.03,48.57 c 0.33,-1.13 0.72,-2.14 1.37,-3.53 a 190.8,190.8 0 0 1 4.41,-8.63 c 0.1,-0.18 0.24,-0.37 0.3,-0.42 0.1,-0.08 0.14,-0.16 0.18,-0.32 0.07,-0.26 0.16,-0.43 0.71,-1.27 a 87.66,87.66 0 0 0 3.18,-5.31 c 0.09,-0.16 0.27,-0.43 0.4,-0.6 0.13,-0.16 0.38,-0.5 0.55,-0.75 l 0.62,-0.82 c 0.37,-0.46 0.5,-0.64 0.59,-0.85 0.08,-0.17 0.41,-0.59 1.03,-1.27 0.56,-0.62 1.24,-1.45 1.9,-2.3 a 29.92,29.92 0 0 1 2.57,-2.97 c 0.44,-0.45 0.63,-0.6 0.77,-0.67 0.26,-0.13 0.8,-0.6 1.92,-1.67 a 28.09,28.09 0 0 1 3.06,-2.63 c 0.39,-0.28 0.9,-0.55 1.02,-0.55 0.06,0 0.13,-0.05 0.22,-0.14 0.34,-0.38 0.42,-0.45 0.76,-0.62 0.19,-0.1 0.62,-0.3 0.96,-0.43 0.7,-0.29 1.7,-0.76 2.1,-1 0.78,-0.48 1.67,-0.83 3.64,-1.46 1.15,-0.37 1.9,-0.64 2.71,-0.96 1.01,-0.4 2.01,-0.69 4.73,-1.32 5.68,-1.32 6.02,-1.37 11.4,-1.53 3.54,-0.11 4.37,-0.13 6.07,-0.14 h 1.74 l 0.65,0.1 c 0.36,0.07 1.23,0.2 1.94,0.3 2.11,0.28 3.26,0.49 3.52,0.62 l 0.36,0.2 c 0.33,0.18 0.6,0.28 1.12,0.42 1.03,0.27 2.08,0.4 4,0.47 1.02,0.04 1.56,0.08 2.03,0.16 0.43,0.07 0.57,0.13 0.77,0.29 l 0.6,0.45 c 0.84,0.61 1.36,1.24 1.68,2.04 0.04,0.1 0.11,0.42 0.17,0.71 l 0.16,0.7 c 0.09,0.25 0.29,0.45 0.76,0.73 0.58,0.33 1.02,0.6 1.25,0.76 0.1,0.07 0.29,0.16 0.4,0.19 l 0.92,0.29 0.7,0.23 v 0.66 l -0.01,0.66 a 32.45,32.45 0 0 1 -3.56,-1.6 c 0,-0.04 -0.03,-0.06 -0.23,-0.1 -0.11,-0.02 -0.16,-0.09 -0.06,-0.09 0.03,0 0.13,-0.03 0.22,-0.08 0.12,-0.06 0.25,-0.09 0.47,-0.1 0.16,0 0.33,-0.04 0.38,-0.06 0.08,-0.04 0.08,-0.05 0.02,-0.1 -0.1,-0.06 -0.3,-0.05 -0.5,0.04 -0.17,0.08 -0.2,0.09 -0.7,0.07 l -0.51,-0.01 -0.17,-0.17 c -0.37,-0.36 -0.54,-0.78 -0.59,-1.43 -0.05,-0.65 -0.16,-0.9 -0.66,-1.47 a 5.56,5.56 0 0 0 -3.17,-1.82 6.45,6.45 0 0 0 -2.58,0.19 c -0.7,0.2 -1.04,0.15 -1.93,-0.25 A 13.7,13.7 0 0 0 123.13,8.08 L 121.29,7.8 c -1.36,-0.2 -1.8,-0.23 -3.99,-0.23 -3.96,0 -9.08,0.28 -11.64,0.64 -0.62,0.09 -0.7,0.1 -2,0.42 l -2.23,0.52 c -1.73,0.4 -2.84,0.71 -4.94,1.38 -2.78,0.9 -5.16,1.8 -5.78,2.18 -0.45,0.29 -1.15,0.6 -1.85,0.85 -0.72,0.24 -1.4,0.6 -2.55,1.38 a 31.18,31.18 0 0 0 -3.9,3.05 66.1,66.1 0 0 1 -2.14,1.88 c -0.78,0.65 -1.65,1.6 -2.51,2.7 a 77.93,77.93 0 0 1 -3,3.7 c -0.57,0.67 -1.1,1.33 -1.7,2.13 -0.74,0.98 -1.2,1.72 -1.68,2.67 a 23.8,23.8 0 0 1 -1.58,2.73 54.28,54.28 0 0 0 -3.3,5.77 c -0.84,1.63 -1.2,2.3 -1.44,2.57 -0.29,0.35 -0.89,1.42 -1.76,3.15 -0.75,1.5 -1.2,2.56 -1.5,3.52 l -0.08,0.27 h -0.85 z"
       id="path73"
       inkscape:connector-curvature="0"
       style="fill:#0b281d" />
    <path
       d="m 87.92,48.5 c 0.34,-0.75 0.55,-1.16 0.91,-1.7 0.55,-0.81 1.24,-1.65 2.17,-2.61 0.7,-0.74 1,-1.18 0.93,-1.35 -0.05,-0.1 -0.26,-0.25 -0.62,-0.43 a 8.04,8.04 0 0 0 -1.08,-0.45 25.5,25.5 0 0 1 -5.7,-3.18 14.82,14.82 0 0 1 -3.37,-3.6 c -0.17,-0.33 -0.04,-0.78 0.21,-0.78 0.1,0 0.26,0.17 0.36,0.37 0.52,1.1 3.15,3.65 4.72,4.57 1.14,0.67 2.81,1.55 3.64,1.9 0.62,0.28 1.54,0.57 2.44,0.8 0.97,0.23 2.18,0.56 2.78,0.75 0.81,0.25 1.34,0.36 2.35,0.48 2.7,0.34 7.31,0.4 10.6,0.13 0.76,-0.07 1.59,-0.17 2.2,-0.27 a 6.26,6.26 0 0 0 1.73,-0.5 c 0.55,-0.25 0.96,-0.4 1.07,-0.4 0.16,0 1.32,-0.67 2.56,-1.47 1.63,-1.05 2.74,-1.64 3.1,-1.64 0.41,0 2,0.38 6.96,1.67 3.93,1.03 4.26,1.11 5.26,1.28 1.11,0.18 2.1,0.27 4.6,0.39 6.06,0.29 12.8,-0.23 15.82,-1.23 1.8,-0.6 3.73,-1.63 5.16,-2.76 0.94,-0.75 1.43,-1.33 1.44,-1.71 0,-0.2 -0.05,-0.3 -0.22,-0.4 -0.21,-0.12 -0.33,-0.15 -0.84,-0.18 -0.61,-0.04 -0.76,-0.09 -1.09,-0.35 a 18.94,18.94 0 0 0 -2.5,-1.5 c -0.56,-0.3 -0.7,-0.34 -0.9,-0.3 -0.15,0.02 -0.75,0.38 -1.27,0.76 a 6.35,6.35 0 0 1 -2.68,1.18 c -0.73,0.17 -1.2,0.3 -1.44,0.42 -0.53,0.28 -1.86,0.41 -5.94,0.62 -1.69,0.08 -4.14,0.08 -5.05,0 a 75.42,75.42 0 0 1 -11.42,-2.07 c -2.61,-0.75 -4.8,-1.63 -5.2,-2.08 -0.1,-0.1 -0.1,-0.12 -0.05,-0.18 0.17,-0.18 0.62,-0.1 1.4,0.27 1.24,0.58 2.61,1.07 3.6,1.29 1.1,0.23 2.09,0.46 3.47,0.8 a 35.5,35.5 0 0 0 7.25,1.22 c 0.93,0.05 5.57,0.05 6.68,0 3.2,-0.18 5.2,-0.48 6.94,-1.05 a 8.5,8.5 0 0 0 2.83,-1.5 c 0.5,-0.37 0.73,-0.51 0.99,-0.6 0.24,-0.07 0.35,-0.03 0.38,0.15 0.04,0.22 0.35,0.44 1.68,1.19 0.5,0.27 1.05,0.59 1.23,0.7 a 5.6,5.6 0 0 0 2.09,0.66 c 0.55,0.08 0.88,0.06 1.06,-0.06 0.15,-0.1 0.56,-0.7 0.74,-1.06 0.2,-0.43 0.23,-0.58 0.22,-1.54 0,-1.35 -0.11,-2.72 -0.27,-3.45 a 7.22,7.22 0 0 0 -0.8,-1.91 30.5,30.5 0 0 1 -0.72,-1.41 c -0.1,-0.12 -0.27,-0.08 -0.85,0.21 -0.86,0.44 -1.24,0.48 -1.76,0.22 a 3.71,3.71 0 0 1 -1.25,-1.22 c -0.1,-0.23 -0.1,-0.62 0.04,-1.47 l 0.1,-0.69 -0.85,-0.48 a 25.71,25.71 0 0 1 -3.4,-2.33 c -0.79,-0.62 -1.5,-1.07 -2.23,-1.43 -0.77,-0.38 -1.16,-0.54 -3.53,-1.42 a 73.36,73.36 0 0 1 -7.1,-2.9 c -0.1,-0.04 -0.14,-0.08 -0.12,-0.1 0.02,0 -0.04,-0.04 -0.14,-0.06 -0.1,-0.02 -0.18,-0.05 -0.18,-0.07 0,-0.06 0.43,-0.19 0.71,-0.21 0.36,-0.04 0.45,-0.06 0.45,-0.12 0,-0.12 -0.27,-0.12 -0.52,0 -0.17,0.08 -0.2,0.08 -0.7,0.07 l -0.51,-0.02 -0.17,-0.17 a 1.95,1.95 0 0 1 -0.59,-1.39 c -0.01,-0.23 -0.05,-0.5 -0.08,-0.59 -0.09,-0.3 -0.3,-0.6 -0.73,-1.06 a 5.34,5.34 0 0 0 -2.34,-1.5 5.82,5.82 0 0 0 -3.19,0 c -0.33,0.08 -0.5,0.1 -0.77,0.1 -0.43,0 -0.59,-0.04 -1.59,-0.5 a 14.47,14.47 0 0 0 -4.36,-1.24 l -1.59,-0.24 c -0.87,-0.14 -1.17,-0.16 -2.4,-0.2 a 112.07,112.07 0 0 0 -6.2,0.11 c -2.93,0.13 -5.98,0.38 -7.25,0.6 a 34,34 0 0 0 -1.49,0.33 l -2.3,0.54 c -1.72,0.4 -3.1,0.78 -5.08,1.43 -2.91,0.94 -5.03,1.75 -5.64,2.13 -0.46,0.29 -1.14,0.6 -1.87,0.85 -1.53,0.53 -4.17,2.36 -6.56,4.54 A 83.7,83.7 0 0 1 80.12,20 c -0.22,0.2 -0.61,0.57 -0.86,0.83 l -0.45,0.47 v -1.76 l 0.31,-0.3 c 0.18,-0.16 0.4,-0.34 0.52,-0.4 0.28,-0.15 0.7,-0.52 1.76,-1.52 a 29.63,29.63 0 0 1 2.87,-2.53 c 0.66,-0.5 1.06,-0.72 1.4,-0.8 0.05,0 0.14,-0.07 0.2,-0.15 0.28,-0.38 0.63,-0.6 1.72,-1.04 0.7,-0.28 1.62,-0.72 2,-0.95 a 14.8,14.8 0 0 1 3.08,-1.3 c 1.38,-0.44 2.49,-0.82 3.2,-1.1 a 27.3,27.3 0 0 1 4.4,-1.26 c 5.43,-1.28 6.36,-1.43 9.35,-1.56 2.12,-0.09 6.3,-0.2 8.39,-0.23 a 12.1,12.1 0 0 1 2.08,0.03 c 0.37,0.08 1.42,0.24 2.7,0.41 2.18,0.3 3.1,0.48 3.43,0.69 0.87,0.53 2.41,0.85 4.6,0.95 2.06,0.1 2.63,0.15 3.08,0.27 0.16,0.04 0.29,0.11 0.52,0.3 l 0.6,0.43 c 0.35,0.26 0.8,0.7 1.05,1.02 0.38,0.5 0.59,0.99 0.72,1.68 0.1,0.6 0.19,0.83 0.35,1.01 0.1,0.1 0.38,0.3 0.83,0.57 0.38,0.22 0.8,0.48 0.93,0.57 0.17,0.1 0.34,0.19 0.53,0.24 0.45,0.13 1.15,0.36 2.5,0.86 a 73.16,73.16 0 0 1 7.53,3.09 c 0.75,0.38 1,0.54 1.34,0.85 0.17,0.15 0.54,0.44 0.83,0.64 l 1.06,0.78 c 0.58,0.43 1.17,0.82 2.09,1.36 0.93,0.55 1.91,1.23 2.76,1.9 1.2,0.98 2.08,1.88 2.08,2.15 0,0.15 0.1,0.32 0.19,0.35 0.28,0.07 0.59,0.75 0.93,2.06 0.44,1.73 0.72,3.96 0.63,5 -0.18,1.94 -1.57,3.91 -4.03,5.73 -0.9,0.68 -1.72,1.17 -3.09,1.88 -1.22,0.64 -1.74,0.92 -2.06,1.12 -0.42,0.28 -0.47,0.29 -1.78,0.38 -0.6,0.04 -1.86,0.2 -2.94,0.36 -2.14,0.34 -4.2,0.44 -8.73,0.44 -4.6,0 -6.94,-0.14 -8.79,-0.52 -0.96,-0.2 -1.44,-0.34 -3.22,-0.96 a 34.6,34.6 0 0 0 -3.29,-0.93 l -2.82,-0.69 -1.63,-0.4 -1,0.68 a 24.87,24.87 0 0 1 -7.14,3.36 c -0.8,0.17 -1.93,0.32 -3.16,0.4 -2.42,0.18 -7.36,-0.02 -11,-0.43 a 15.36,15.36 0 0 1 -2.53,-0.44 l -0.82,-0.22 -0.31,0.33 a 23.62,23.62 0 0 0 -3.76,4.85 l -0.3,0.53 h -1.31 z"
       id="path75"
       inkscape:connector-curvature="0"
       style="fill:#0b281d" />
    <path
       d="m 137.75,14.32 c 0.15,-0.07 0.35,-0.08 0.43,-0.03 0.07,0.04 -0.17,0.1 -0.4,0.1 h -0.17 z m -0.97,0.18 -0.19,-0.09 h 0.72 l 0.12,0.03 -0.17,0.08 c -0.23,0.1 -0.25,0.1 -0.48,-0.01 z m 10.58,14.34 a 4.5,4.5 0 0 1 -1.13,-0.74 c -0.6,-0.59 -0.73,-1.4 -0.36,-2.12 0.23,-0.46 0.6,-0.8 1.2,-1.09 0.3,-0.15 0.34,-0.16 0.6,-0.16 0.24,0 0.33,0.02 0.56,0.12 0.72,0.3 1.19,0.78 1.37,1.4 0.07,0.24 0.07,0.73 0,0.98 -0.09,0.28 -0.28,0.63 -0.47,0.84 -0.33,0.37 -1.05,0.8 -1.41,0.82 a 0.72,0.72 0 0 1 -0.36,-0.05 z"
       id="path77"
       inkscape:connector-curvature="0"
       style="fill:#0b281d" />
    <path
       d="m 147.34,28.83 a 3.8,3.8 0 0 1 -1.25,-0.87 c -0.32,-0.4 -0.44,-0.79 -0.41,-1.26 0.04,-0.75 0.48,-1.34 1.32,-1.78 0.36,-0.19 0.37,-0.2 0.66,-0.2 0.26,0 0.33,0.02 0.57,0.12 0.72,0.31 1.19,0.8 1.37,1.4 0.07,0.25 0.07,0.74 0,0.99 a 2.41,2.41 0 0 1 -1.37,1.49 c -0.4,0.2 -0.61,0.22 -0.89,0.1 z m -87.9,41.48 c -0.24,-0.25 -0.11,-0.8 0.19,-0.8 0.23,0 0.35,0.16 0.35,0.45 0,0.39 -0.31,0.59 -0.54,0.35 z m 1.14,17.19 c -0.22,-0.12 -0.3,-0.43 -0.43,-1.72 -0.2,-2.09 -0.14,-3.25 0.17,-3.25 0.25,0 0.35,0.5 0.48,2.22 0.09,1.19 0.18,1.94 0.28,2.35 0.07,0.29 0.07,0.37 -0.04,0.41 A 0.72,0.72 0 0 1 60.58,87.5 Z m 117.72,95.46 -2.23,-0.1 a 47.62,47.62 0 0 1 -7.48,-0.7 c -1.33,-0.23 -4.42,-0.85 -6.32,-1.27 a 73.42,73.42 0 0 1 -8.33,-2.42 c -0.72,-0.25 -1.17,-0.43 -2.99,-1.17 l -0.46,-0.19 0.46,-0.02 c 1.07,-0.05 1.88,0.12 3.48,0.75 3.45,1.36 9.34,2.84 14.33,3.6 a 70.02,70.02 0 0 0 10.51,0.74 c 1.42,0 1.45,0 1.65,-0.08 0.28,-0.1 1.34,-0.31 2.87,-0.56 1.6,-0.27 2.57,-0.45 3.6,-0.67 3.88,-0.83 6.5,-1.84 8.05,-3.08 0.65,-0.53 1.46,-1.53 2.32,-2.88 0.39,-0.61 0.58,-0.86 0.79,-1.03 0.18,-0.14 0.34,-0.18 0.66,-0.17 l 0.27,0.01 -0.35,0.61 c -1.13,1.94 -2.82,4.01 -3.8,4.66 -1.36,0.9 -3.62,1.81 -5.92,2.39 a 73.4,73.4 0 0 1 -9.36,1.62 c -0.28,0.01 -0.92,0 -1.74,-0.04 z"
       id="path79"
       inkscape:connector-curvature="0"
       style="fill:#0b281d" />
    <g
       clip-path="url(#j)"
       transform="matrix(-0.98917011,0.14677364,0.14677364,0.98917011,84.093437,-48.851994)"
       id="g82">
      <path
         id="b"
         d="m 93.75,186.33 c -7.04,-0.76 -11.33,-1.86 -16.64,-4.3 -2.16,-0.98 -5.77,-2.52 -8.03,-3.4 -4.7,-1.85 -9.76,-4.3 -11.58,-5.61 a 87.04,87.04 0 0 1 -7.4,-6.34 c -1.67,-1.69 -4.3,-5.38 -5.03,-7.06 -0.5,-1.17 -0.54,-1.5 -0.41,-4.38 a 29.9,29.9 0 0 1 1.36,-8.2 c 0.69,-2.28 1.13,-3.13 3.44,-6.53 2.4,-3.54 3.75,-5.1 5.2,-6 1.4,-0.88 1.32,-0.79 1.09,-1.16 -0.4,-0.63 -0.52,-2.86 0.16,-2.76 0.46,0.07 1,2.34 1.2,2.79 0.36,0.89 2.85,2.7 6.27,4.55 5.19,2.81 7.55,3.67 11.14,4.03 0.87,0.09 2.11,0.31 2.77,0.5 2.57,0.73 12.31,1.1 15.37,0.6 0.73,-0.13 2.14,-0.3 3.14,-0.4 a 11.2,11.2 0 0 0 3.63,-0.95 c 5.87,-2.58 7.75,-3.09 13.78,-3.72 1.27,-0.13 3.17,-0.34 4.24,-0.47 4.56,-0.56 23.21,-0.74 26.76,-0.26 2.56,0.34 9.07,2.59 11.12,3.83 1.02,0.63 1.47,0.63 2.03,0 0.51,-0.56 3.5,-2.38 6.04,-3.69 3.33,-1.71 8.68,-2.6 15.23,-2.54 2.92,0.04 4.66,0.16 5.3,0.38 1.35,0.47 1.58,0.41 1.96,-0.5 1.04,-2.47 0.94,-7.24 -0.22,-11.6 -0.32,-1.2 -1.67,-4.31 -1.62,-4.36 0.05,-0.05 1.46,1.57 1.78,1.65 0.52,0.13 0.66,0.93 1.12,2.9 1.02,4.38 1.09,8.86 0.19,11.47 -0.2,0.55 -0.25,1 -0.14,1 0.46,0 4.46,2.15 4.36,2.32 -0.3,0.48 -0.32,0.9 -3.94,-0.9 -0.9,-0.45 -1.89,-0.7 -2.11,-0.7 -0.23,0 -0.55,-0.13 -0.72,-0.3 -0.2,-0.2 -1.71,-0.34 -4.94,-0.44 -7.98,-0.24 -13.12,0.66 -17.43,3.06 -3.25,1.8 -4.37,2.57 -4.46,3.04 -0.09,0.45 1.85,1.26 4.19,1.73 1.41,0.3 5,0.97 4.29,1.2 -1.37,0.47 -5.99,-0.48 -9.77,-2.33 a 60.62,60.62 0 0 0 -10.35,-4.1 c -1.75,-0.48 -2.35,-0.5 -13.68,-0.49 -6.52,0.01 -12.56,0.07 -13.42,0.14 -2.84,0.23 -12.19,1.61 -13.47,2 -0.69,0.2 -1.34,0.35 -1.45,0.32 -0.1,-0.02 -0.47,0.07 -0.8,0.2 l -1.51,0.64 c -1.01,0.42 -1.53,1.27 -1.3,2.15 0.07,0.32 1.04,1.39 2.13,2.37 1.1,0.99 3.36,3.2 5.03,4.9 a 81.95,81.95 0 0 0 4.48,4.32 c 0.8,0.66 2.19,1.89 3.09,2.72 0.9,0.84 2.48,1.98 3.5,2.54 a 24.4,24.4 0 0 1 2.84,1.79 28.87,28.87 0 0 0 6.2,3.56 c 1.14,0.49 3.48,1.58 5.2,2.43 1.7,0.84 3.82,1.85 4.68,2.22 0.87,0.38 1.96,0.92 2.44,1.22 a 78.38,78.38 0 0 0 9.15,4.34 l 4.12,1.6 -0.4,0.1 c -1.58,0.43 -6.25,-1.34 -10.48,-3.68 -2.83,-1.56 -3.38,-1.77 -3.38,-1.27 0,0.87 -5.14,5.37 -7.62,6.68 -1.91,1 -5.83,2.76 -7.37,3.29 -0.87,0.3 -2.39,0.88 -3.39,1.29 -4.02,1.64 -6.88,2.22 -14.54,2.92 -3.91,0.36 -6.56,0.29 -12.42,-0.35 z m 15.67,-0.97 c 6.32,-0.69 11.9,-2.5 20.27,-6.63 3.5,-1.72 8.83,-6.13 8.63,-7.16 -0.08,-0.44 -2.5,-1.97 -3.13,-1.99 -0.8,-0.02 -11.74,-5.4 -13.27,-6.52 a 54.44,54.44 0 0 0 -3.5,-2.31 33.96,33.96 0 0 1 -4.33,-3.35 3636.52,3636.52 0 0 1 -7.7,-7.04 c -0.37,-0.33 -0.67,-0.68 -0.67,-0.77 0,-0.1 -0.54,-0.72 -1.2,-1.37 a 7.28,7.28 0 0 1 -1.22,-1.4 c 0,-0.33 0.52,0.2 0.15,0.2 -0.6,0 -3.54,-3.01 -3.54,-3.66 0,-0.78 -0.5,-0.92 -1.74,-0.48 -1.84,0.65 -4.86,0.93 -10.27,0.95 -5.84,0.03 -7.45,-0.07 -10.48,-0.64 a 22.67,22.67 0 0 0 -2.9,-0.4 c -0.46,0 -2.24,-0.42 -3.95,-0.94 a 42.32,42.32 0 0 1 -11.14,-5.64 c -1.25,-0.9 -2.15,-1.37 -2.6,-1.37 -0.38,0 -0.69,0.09 -0.69,0.2 0,0.1 -0.43,0.38 -0.95,0.6 -1.2,0.53 -2.26,1.8 -5.06,6.02 -2.44,3.68 -3.45,6.24 -3.94,9.94 a 12.52,12.52 0 0 1 -0.47,2.35 c -0.12,0.23 -0.22,1.3 -0.22,2.36 0,2.17 0.42,3.25 2.5,6.31 1.34,2 6.91,7.27 9.83,9.31 a 51.38,51.38 0 0 0 11,5.37 c 0.54,0.16 3.6,1.47 6.79,2.9 5.75,2.59 6.5,2.84 12.83,4.3 1.22,0.29 3.72,0.63 5.56,0.77 1.85,0.14 3.4,0.3 3.46,0.36 0.26,0.26 8.85,0.07 11.95,-0.27 z m 67.6,-2.45 c 0.17,-0.07 0.38,-0.06 0.46,0.02 0.08,0.08 -0.06,0.14 -0.32,0.13 -0.28,-0.01 -0.34,-0.07 -0.15,-0.15 z m 21.56,-9.42 c 0.14,-0.2 0.68,-1.25 2.66,-3.92 3.63,-4.92 5.35,-9.2 5,-12.5 -0.3,-2.87 -3.2,-8.39 -5.84,-11.08 -1.07,-1.1 -2.54,-2.27 -2.22,-2.27 0.25,0 1.58,0.66 1.5,0.54 -0.08,-0.13 -0.97,-0.76 -0.64,-0.6 0.8,0.41 3.87,3.3 4.9,4.93 4.4,6.93 4.63,10.84 1,17.48 a 69.56,69.56 0 0 1 -5.47,7.85 c -0.55,0.63 -1.66,0.75 -1.41,0.38 z m -34.32,-28.54 a 3.36,3.36 0 0 1 -1.45,-0.36 c -0.07,-0.07 1.96,-0.24 4.51,-0.2 2.55,0.04 6,-0.59 5.18,-0.04 -0.43,0.28 -4.73,0.75 -4.99,0.74 z M 55.08,131.08 c -0.52,-1.34 0.35,-5.33 2.12,-9.79 a 27.63,27.63 0 0 0 1.12,-3.13 c 0,-0.18 0.43,-1.17 0.97,-2.2 0.53,-1.03 0.96,-2.02 0.96,-2.21 0,-0.45 2.83,-4.76 4.15,-6.33 0.7,-0.82 1.42,-1.4 2.14,-1.67 0.6,-0.23 1.13,-0.45 1.17,-0.48 a 3.2,3.2 0 0 0 -0.54,-0.98 c -0.79,-1.15 -3.49,-5.34 -2.72,-5.34 0.33,0 3.3,3.91 3.3,4.04 0,0.76 3.26,4.2 4.71,4.97 0.27,0.14 1.8,1.01 3.4,1.93 3.24,1.87 3,1.77 8.82,3.74 5.09,1.72 7.12,2.06 13.78,2.27 2.73,0.1 5.72,0.27 6.65,0.4 4.68,0.64 13.79,1.08 14.04,0.68 0.07,-0.12 0.93,-0.21 1.91,-0.2 2.34,0 3.92,-0.24 4.83,-0.77 0.91,-0.52 4.66,-1.85 6.17,-2.17 1.1,-0.24 7.03,-2.56 9.81,-3.85 0.8,-0.36 2.87,-1.13 4.6,-1.7 a 35.6,35.6 0 0 0 3.86,-1.45 c 0.4,-0.23 1.55,-0.66 2.55,-0.95 1,-0.3 3,-1.03 4.47,-1.63 3.99,-1.65 5.42,-2.76 6.46,-5 0.46,-1 0.55,-1.6 0.55,-3.62 0,-2.26 -0.05,-2.5 -0.81,-3.98 a 47.2,47.2 0 0 0 -5.38,-7.58 8.9,8.9 0 0 0 -5.99,-2.92 c -0.85,-0.06 -1.72,-0.15 -1.93,-0.22 -1.18,-0.36 -7.18,-0.85 -10.45,-0.85 -3.73,0 -3.8,0 -7.56,1.07 a 53.18,53.18 0 0 1 -6.75,1.45 c -1.63,0.2 -4.05,0.53 -5.38,0.73 -3.39,0.48 -11.21,0.67 -15.21,0.37 -5,-0.39 -7.16,-0.92 -12.48,-3.09 -2.2,-0.9 -2.35,-1.01 -3.43,-2.48 -0.62,-0.86 -1.4,-1.83 -1.72,-2.16 -0.64,-0.65 -1.7,-3.53 -2.22,-6.03 -0.36,-1.68 -0.18,-8.33 0.34,-13.02 0.37,-3.37 0.85,-5.19 1.83,-6.98 0.18,-0.34 0.55,-1.14 0.82,-1.77 A 15,15 0 0 1 91.14,44 c 0.44,-0.43 0.8,-0.93 0.8,-1.1 0,-0.18 -0.71,-0.57 -1.57,-0.87 a 24.36,24.36 0 0 1 -5.84,-3.22 c -1.43,-1.05 -3.48,-3.35 -3.48,-3.9 0,-0.64 0.47,-0.72 0.7,-0.13 0.38,0.94 3.23,3.7 4.67,4.53 3.05,1.74 4.2,2.25 5.99,2.68 1.12,0.26 2.53,0.65 3.14,0.85 3.04,1.03 14.35,0.93 16.46,-0.15 a 4.8,4.8 0 0 1 1.26,-0.48 c 0.17,0 1.38,-0.7 2.7,-1.57 1.3,-0.86 2.61,-1.56 2.9,-1.55 0.5,0 2.4,0.47 9.22,2.26 3.05,0.8 3.84,0.92 7.98,1.1 5,0.23 10.69,-0.11 14.15,-0.86 2.2,-0.48 4.72,-1.71 6.57,-3.2 1.78,-1.45 1.82,-2.2 0.1,-2.2 -0.29,0 -0.64,-0.11 -0.77,-0.24 a 15.4,15.4 0 0 0 -3.4,-1.94 c -0.17,0 -0.81,0.38 -1.4,0.83 a 6.2,6.2 0 0 1 -2.49,1.11 c -0.77,0.16 -1.5,0.37 -1.64,0.48 -0.32,0.25 -2.37,0.44 -6.67,0.62 -2.9,0.12 -4.17,0.06 -7.06,-0.36 a 61.9,61.9 0 0 1 -3.85,-0.63 26.4,26.4 0 0 0 -2.13,-0.45 c -3.11,-0.57 -7.97,-2.31 -7.98,-2.86 0,-0.25 0.64,-0.23 1.15,0.03 1.23,0.62 2.97,1.27 3.93,1.45 0.6,0.11 1.96,0.42 3.02,0.69 a 36.02,36.02 0 0 0 11,1.38 c 6.98,0 10.86,-0.75 13.02,-2.52 0.89,-0.73 1.5,-0.93 1.5,-0.5 0,0.14 0.52,0.52 1.15,0.86 0.63,0.34 1.47,0.82 1.87,1.06 0.4,0.24 1.24,0.5 1.86,0.59 1.1,0.14 1.15,0.11 1.67,-0.72 0.48,-0.78 0.52,-1.08 0.4,-3.2 -0.11,-2 -0.24,-2.55 -0.86,-3.71 -0.4,-0.75 -0.77,-1.5 -0.83,-1.67 -0.09,-0.25 -0.28,-0.22 -0.85,0.1 -1.05,0.6 -1.69,0.53 -2.52,-0.3 -0.67,-0.66 -0.72,-0.83 -0.58,-1.79 l 0.16,-1.05 -1.28,-0.74 c -0.7,-0.4 -1.93,-1.25 -2.73,-1.9 -1.55,-1.24 -2.4,-1.7 -4.8,-2.58 a 93.26,93.26 0 0 1 -7.04,-2.76 l -1.43,-0.67 0.73,-0.26 c 0.6,-0.2 0.99,-0.17 2.64,0.42 5.14,1.81 9.3,3.57 10.05,4.31 0.21,0.22 0.64,0.55 0.94,0.75 0.3,0.2 0.83,0.59 1.18,0.86 0.35,0.28 1.18,0.81 1.84,1.19 2.18,1.24 4.96,3.57 4.96,4.15 0,0.18 0.08,0.32 0.18,0.32 0.61,0 1.64,4.46 1.57,6.83 -0.07,2.74 -2.74,5.67 -7.2,7.9 a 19.3,19.3 0 0 0 -2.16,1.2 c -0.12,0.13 -0.64,0.23 -1.14,0.23 -0.5,0 -2.08,0.19 -3.52,0.42 -2,0.32 -4.06,0.42 -8.77,0.42 -6.55,0 -8.52,-0.24 -11.6,-1.4 -0.74,-0.26 -2.15,-0.68 -3.15,-0.91 l -3.34,-0.8 -1.53,-0.39 -1.5,1.02 c -1.82,1.23 -5.23,2.76 -6.84,3.06 -2.47,0.47 -5.2,0.54 -9.77,0.28 -2.6,-0.15 -5.35,-0.44 -6.13,-0.64 L 93.34,43.4 92.7,44.09 a 20.54,20.54 0 0 0 -4.27,6.16 22.96,22.96 0 0 0 -1.42,3.9 c -0.52,2.39 -0.9,7.07 -0.96,11.58 -0.04,3.44 0.02,4.06 0.52,5.65 0.61,1.94 0.7,2.1 2.65,5.01 l 1.33,1.98 2.93,1.32 c 4.95,2.22 7.7,2.77 14.78,2.98 7.66,0.21 17.6,-0.85 23.1,-2.49 1.66,-0.49 3.56,-0.98 4.22,-1.08 2.5,-0.39 7.48,-0.23 12.94,0.4 6.72,0.77 7.79,1.14 10.15,3.48 1.94,1.91 5.25,6.55 6.2,8.68 0.63,1.42 0.7,1.82 0.7,4.1 -0.02,2.12 -0.11,2.75 -0.6,3.86 a 8.86,8.86 0 0 1 -1.05,1.87 l -0.48,0.54 0.82,0.33 c 1.29,0.51 6.38,2.44 9.05,3.42 3.02,1.1 4.02,1.69 6,3.5 1.76,1.61 3.92,4.94 5.11,7.91 0.6,1.49 1.7,3.06 1.41,3.24 -0.58,0.37 -1.8,-1.1 -2.72,-3.23 -0.94,-2.15 -3.28,-6 -3.65,-6 -0.12,0 -0.22,-0.15 -0.22,-0.34 0,-0.51 -2.71,-3.03 -3.27,-3.03 -0.5,0 -5.16,-1.65 -10.34,-3.64 -1.7,-0.66 -3.3,-1.2 -3.57,-1.2 -0.27,0 -1.05,0.33 -1.75,0.72 -1.61,0.9 -5.83,2.58 -7.01,2.8 -0.5,0.09 -0.9,0.26 -0.9,0.37 0,0.12 -0.26,0.22 -0.57,0.22 -0.75,0 0.64,-0.54 0.64,-0.28 0,0.11 -3.87,1.53 -4.37,1.6 -0.5,0.09 -1.26,0.31 -1.7,0.5 -0.44,0.2 -1,0.35 -1.27,0.35 -0.26,0 0.47,-0.18 0.47,-0.06 0,0.11 -1.25,0.56 -1.61,0.66 -0.37,0.09 -2.1,0.8 -3.87,1.6 a 79.46,79.46 0 0 1 -7.13,2.65 77.9,77.9 0 0 0 -5.5,1.91 18.69,18.69 0 0 1 -5.93,1.56 86,86 0 0 1 -12.9,-0.22 c -1.82,-0.2 -5.7,-0.48 -8.63,-0.63 -5.94,-0.3 -10.16,-0.75 -10.94,-1.16 -0.28,-0.16 -0.79,-0.28 -1.13,-0.28 -0.34,0 -0.62,-0.1 -0.62,-0.2 0,-0.26 -4.06,-1.49 -4.92,-1.49 -0.36,0 -0.64,-0.1 -0.64,-0.24 0,-0.13 0.48,0.07 0.3,0.07 -1.21,0 -8.7,-3.92 -11.06,-5.8 -1.75,-1.4 -2.27,-1.5 -3.9,-0.83 -1.08,0.44 -3.98,3.55 -4.33,4.63 -0.1,0.33 -0.44,0.98 -0.75,1.44 -0.3,0.47 -0.63,1.31 -0.72,1.88 -0.09,0.56 -0.26,1.02 -0.37,1.02 -0.3,0 -1.3,2.06 -1.76,3.6 -0.21,0.73 -0.5,1.39 -0.63,1.47 -0.73,0.45 -2.49,7.25 -2.38,9.18 0.08,1.33 0.08,3.25 -0.4,3.25 -0.29,0 -0.62,-2 -0.7,-2.2 z M 64.22,99.2 c -0.44,-0.3 -1.91,-3 -2.46,-4.52 a 39.9,39.9 0 0 1 -1.5,-6.63 c 0,-0.32 -0.65,-5.24 -0.35,-5.24 0.38,0 1.33,5.02 1.55,6.14 0.73,3.72 1.12,4.96 2.33,7.39 0.71,1.44 3.26,5.48 3.26,5.6 0,0.25 -2.47,-2.5 -2.83,-2.74 z m -31.5,-15.51 -2.1,-2.18 -2.9,1.08 -2.9,1.08 -7.61,-7.58 -7.62,-7.58 1.93,-1.93 1.93,-1.94 L 11.7,62.9 9.96,61.16 8.56,62.54 7.16,63.93 6.08,62.83 5,61.74 l 3.93,-3.91 3.92,-3.91 1.1,1.09 1.08,1.09 -1.33,1.3 -1.33,1.32 1.74,1.76 1.75,1.76 1.95,-1.93 1.94,-1.93 7.58,7.56 7.58,7.56 -1,2.74 c -0.54,1.5 -0.99,2.85 -0.99,3 0,0.14 0.88,1.12 1.96,2.18 2.17,2.13 2.54,2.76 2.12,3.56 -0.37,0.7 -0.68,0.88 -1.5,0.89 -0.57,0 -1.1,-0.41 -2.79,-2.18 z m -4.63,-4.3 1.81,-0.68 0.72,-2.08 0.73,-2.09 -1.69,-1.7 -1.68,-1.68 -2.85,2.83 -2.84,2.83 1.62,1.63 c 0.9,0.9 1.8,1.63 2,1.62 a 15,15 0 0 0 2.18,-0.69 z m -5.44,-13.53 -3.03,-3.02 -2.84,2.83 -2.83,2.83 3.01,3.02 3.02,3.02 2.85,-2.84 2.84,-2.83 z m -4.06,3.9 -1.14,-1.15 1.15,-1.14 1.16,-1.14 1.14,1.16 1.14,1.15 -1.16,1.14 -1.15,1.14 z m 41.17,12.77 c -0.25,-4.35 -0.37,-8.1 -0.5,-9.93 -0.17,-2.29 -0.24,-2.8 0.25,-2.68 0.63,0.16 0.72,1.62 0.95,8.04 0.14,4.17 0.61,8.79 0.22,8.89 -0.23,0.06 -0.92,-4.23 -0.92,-4.32 z m -0.77,-15.9 c -0.14,-4.65 0.62,-12.61 1.58,-16.46 0.73,-2.9 1.11,-3.83 3.55,-8.68 a 69.8,69.8 0 0 1 2.94,-5.5 c 0.11,-0.05 0.2,-0.2 0.2,-0.32 0,-0.12 0.2,-0.52 0.46,-0.88 0.75,-1.1 2.8,-4.47 3.18,-5.24 0.2,-0.4 0.46,-0.84 0.6,-1 0.13,-0.14 0.4,-0.5 0.6,-0.8 0.2,-0.3 0.56,-0.76 0.79,-1.03 0.23,-0.28 0.42,-0.57 0.42,-0.65 0,-0.09 0.45,-0.64 1,-1.23 0.54,-0.6 1.44,-1.67 1.99,-2.4 1.23,-1.64 3.07,-3.62 3.34,-3.62 0.12,0 1,-0.77 1.95,-1.72 1.72,-1.68 3.55,-3.1 4.01,-3.1 0.13,0 0.3,-0.15 0.36,-0.33 0.07,-0.17 0.76,-0.56 1.54,-0.85 0.77,-0.3 1.8,-0.79 2.26,-1.1 0.47,-0.3 1.83,-0.86 3.03,-1.22 1.19,-0.37 2.62,-0.87 3.18,-1.11 a 22.3,22.3 0 0 1 3.02,-0.92 c 7.94,-1.86 7.18,-1.75 14.1,-1.97 3.6,-0.12 6.7,-0.16 6.9,-0.1 0.2,0.06 1.6,0.27 3.1,0.46 1.52,0.2 2.88,0.46 3.03,0.57 0.81,0.61 2.66,0.99 5.21,1.06 1.91,0.06 2.7,0.21 2.87,0.35 l 0.41,0.33 c 0.13,0.1 0.7,0.43 1.17,0.95 0.61,0.67 0.9,1.26 1.03,2.07 0.14,0.96 0.32,1.06 0.86,1.37 3.18,1.81 1.4,1.24 0.15,1.24 -1.15,0 -2.11,-0.79 -2.11,-2.1 0,-0.59 -0.24,-1 -0.96,-1.71 a 5.27,5.27 0 0 0 -5.42,-1.32 c -0.84,0.23 -1.1,0.18 -2.54,-0.5 -0.88,-0.43 -2.31,-0.88 -3.18,-1 -0.86,-0.12 -2.22,-0.33 -3.02,-0.46 -2.37,-0.4 -13.56,0.1 -15.96,0.7 -1.06,0.27 -2.75,0.66 -3.75,0.88 -2.69,0.6 -9.2,2.8 -10.1,3.41 -0.45,0.3 -1.32,0.7 -1.94,0.88 -1.27,0.38 -4.32,2.47 -6.34,4.36 -0.73,0.68 -1.8,1.62 -2.38,2.08 -0.58,0.47 -1.66,1.65 -2.4,2.64 -0.75,1 -1.8,2.3 -2.34,2.92 -0.54,0.62 -1.14,1.33 -1.34,1.59 a 19.13,19.13 0 0 0 -2.66,3.93 c -0.43,0.86 -0.97,1.84 -1.2,2.18 a 53.07,53.07 0 0 0 -3.65,6.28 16.49,16.49 0 0 1 -1.46,2.61 c -0.12,0.05 -0.88,1.39 -1.69,2.99 A 18.8,18.8 0 0 0 61.42,50.38 77.88,77.88 0 0 0 60,65.91 c 0.02,3.35 0.3,5.99 -0.56,5.67 -0.4,-0.14 -0.35,-2.34 -0.44,-4.94 z m 47.45,-27.29 c -1.73,-0.94 -2.17,-3.16 -0.97,-4.84 0.27,-0.38 0.49,-0.77 0.49,-0.87 0,-0.22 1.95,-2.6 2.23,-2.71 0.32,-0.14 0.2,-1 -0.14,-1 -0.84,0 -3.37,-2.48 -3.5,-3.43 -0.03,-0.19 0.09,0.02 0,-0.08 -0.25,-0.24 -0.55,-2.99 -0.29,-3.15 0.12,-0.07 0.08,0.28 0,0.03 -0.12,-0.35 1.09,-2.16 1.12,-2.1 0.18,0.35 0.02,0.28 -0.07,0.28 -0.28,0 0.97,-1.21 1.74,-1.69 3.1,-1.91 7.28,-0.08 8.24,3.6 0.78,3.02 -1.4,6.14 -4.76,6.8 -0.78,0.15 -1.43,0.37 -1.43,0.5 a 19,19 0 0 0 0.97,2.25 c 1.06,2.22 1.23,3.6 0.64,5.02 -0.65,1.55 -2.73,2.23 -4.27,1.4 z m 3.34,-0.64 c 0.46,-0.32 0.53,-0.6 0.53,-1.92 0,-1.26 -0.14,-1.85 -0.77,-3.12 -0.43,-0.87 -0.9,-1.58 -1.05,-1.58 -0.36,0 -1.37,1.11 -2.14,2.35 -0.9,1.46 -0.9,3.44 0,4.15 0.78,0.61 2.63,0.68 3.42,0.12 z m -1.17,-10.83 c 0.64,-0.77 -0.3,-1.95 -1.14,-1.43 -0.84,0.53 -0.54,1.78 0.42,1.78 0.24,0 0.56,-0.15 0.72,-0.35 z m 3.37,-2.4 c 0.38,-0.2 0.82,-0.7 1,-1.11 0.67,-1.62 -1.06,-3.31 -2.69,-2.64 -1.06,0.44 -1.6,1.64 -1.19,2.64 0.3,0.72 1.22,1.42 1.89,1.44 0.17,0 0.62,-0.15 1,-0.34 z m 34.68,3 c -1.4,-0.85 -1.34,-2.6 0.12,-3.45 0.67,-0.4 0.9,-0.42 1.5,-0.17 1.84,0.76 1.88,2.9 0.08,3.83 -0.7,0.36 -0.8,0.35 -1.7,-0.2 z"
         clip-path="url(#k)"
         transform="translate(-67.38,51.5)"
         inkscape:connector-curvature="0"
         style="fill:#0b281d;stroke-width:0.23999999" />
    </g>
    <path
       d="m 130.74,86.83 3.08,-4.53 -3.62,4.22 z"
       id="path84"
       inkscape:connector-curvature="0"
       style="fill:#211c1d" />
    <path
       d="m 130.04,87.08 0.03,0.03 v 0.04 l 0.03,-0.02 0.04,0.02 v -0.04 l 0.02,-0.03 h -0.04 l -0.02,-0.04 -0.02,0.03 z m -0.6,0.94 0.1,-0.73 -0.52,-0.54 0.73,-0.14 0.35,-0.65 0.36,0.65 0.72,0.13 -0.5,0.54 0.1,0.74 -0.67,-0.32 -0.67,0.32"
       id="path86"
       inkscape:connector-curvature="0"
       style="fill:#211c1d" />
    <g
       clip-path="url(#l)"
       transform="matrix(0.0142,0,0,-0.0142,122.1,94.45)"
       id="g90">
      <path
         d="m 568.85,564.72 13.2,-24.07 27.05,-4.96 -18.8,-20.04 3.6,-27.22 -24.84,11.68 -24.75,-11.86 3.42,27.27 -18.93,19.88 26.96,5.18 13.09,24.14"
         id="path88"
         inkscape:connector-curvature="0"
         style="fill:url(#m)" />
    </g>
    <path
       d="m 129.24,75.68 4.25,3.47 -3.9,-3.97 z"
       id="path92"
       inkscape:connector-curvature="0"
       style="fill:#211c1d" />
    <path
       d="m 129.06,74.97 -0.04,0.03 -0.04,-0.01 0.02,0.03 -0.02,0.04 h 0.04 l 0.03,0.03 v -0.04 l 0.04,-0.02 -0.03,-0.02 z m -0.89,-0.69 0.72,0.16 0.58,-0.46 0.08,0.73 0.62,0.41 -0.68,0.3 -0.2,0.72 -0.5,-0.56 -0.73,0.04 0.37,-0.64 -0.26,-0.7"
       id="path94"
       inkscape:connector-curvature="0"
       style="fill:#211c1d" />
    <g
       clip-path="url(#n)"
       transform="matrix(-0.00125,0.01415,0.01415,0.00125,122.42,66.4)"
       id="g98">
      <path
         d="m 568.85,564.72 13.2,-24.07 27.05,-4.96 -18.8,-20.04 3.6,-27.22 -24.84,11.68 -24.75,-11.86 3.42,27.27 -18.93,19.88 26.96,5.18 13.09,24.14"
         id="path96"
         inkscape:connector-curvature="0"
         style="fill:url(#o)" />
    </g>
    <path
       d="m 126.17,79.45 5.39,1.04 -5.32,-1.66 z"
       id="path100"
       inkscape:connector-curvature="0"
       style="fill:#211c1d" />
    <path
       d="m 125.67,78.9 -0.02,0.05 h -0.04 l 0.03,0.03 v 0.04 l 0.04,-0.02 0.04,0.02 -0.01,-0.04 0.02,-0.04 h -0.04 z m -1.1,-0.18 0.7,-0.2 0.3,-0.68 0.41,0.61 0.74,0.07 -0.46,0.58 0.17,0.72 -0.7,-0.25 -0.63,0.38 0.02,-0.74 -0.56,-0.49"
       id="path102"
       inkscape:connector-curvature="0"
       style="fill:#211c1d" />
    <g
       clip-path="url(#p)"
       transform="matrix(0.00561219,0.0130439,0.0130439,-0.00561219,115.72927,74.505102)"
       id="g106">
      <path
         d="m 568.85,564.72 13.2,-24.07 27.05,-4.96 -18.8,-20.04 3.6,-27.22 -24.84,11.68 -24.75,-11.86 3.42,27.27 -18.93,19.88 26.96,5.18 13.09,24.14"
         id="path104"
         inkscape:connector-curvature="0"
         style="fill:url(#q)" />
    </g>
    <g
       id="g116">
      <path
         d="m 127.07,85.04 4.74,-2.77 -5.09,2.26 z"
         id="path108"
         inkscape:connector-curvature="0"
         style="fill:#211c1d" />
      <path
         d="m 126.34,84.97 0.01,0.04 -0.02,0.03 h 0.04 l 0.03,0.03 0.01,-0.04 0.04,-0.01 -0.04,-0.03 v -0.04 l -0.03,0.03 z m -0.95,0.59 0.4,-0.63 -0.23,-0.7 0.71,0.19 0.6,-0.44 0.04,0.74 0.6,0.43 -0.68,0.27 -0.23,0.7 -0.47,-0.56 h -0.74"
         id="path110"
         inkscape:connector-curvature="0"
         style="fill:#211c1d" />
      <g
         clip-path="url(#r)"
         transform="matrix(0.01283,0.0061,0.0061,-0.01283,116,88.21)"
         id="g114">
        <path
           d="m 568.85,564.72 13.2,-24.07 27.05,-4.96 -18.8,-20.04 3.6,-27.22 -24.84,11.68 -24.75,-11.86 3.42,27.27 -18.93,19.88 26.96,5.18 13.09,24.14"
           id="path112"
           inkscape:connector-curvature="0"
           style="fill:url(#s)" />
      </g>
    </g>
    <path
       d="m 93.75,186.33 c -7.04,-0.76 -11.33,-1.86 -16.64,-4.3 -2.16,-0.98 -5.77,-2.52 -8.03,-3.4 -4.7,-1.85 -9.76,-4.3 -11.58,-5.61 a 87.04,87.04 0 0 1 -7.4,-6.34 c -1.67,-1.69 -4.3,-5.38 -5.03,-7.06 -0.5,-1.17 -0.54,-1.5 -0.41,-4.38 a 29.9,29.9 0 0 1 1.36,-8.2 c 0.69,-2.28 1.13,-3.13 3.44,-6.53 2.4,-3.54 3.75,-5.1 5.2,-6 1.4,-0.88 1.32,-0.79 1.09,-1.16 -0.4,-0.63 -0.52,-2.86 0.16,-2.76 0.46,0.07 1,2.34 1.2,2.79 0.36,0.89 2.85,2.7 6.27,4.55 5.19,2.81 7.55,3.67 11.14,4.03 0.87,0.09 2.11,0.31 2.77,0.5 2.57,0.73 12.31,1.1 15.37,0.6 0.73,-0.13 2.14,-0.3 3.14,-0.4 a 11.2,11.2 0 0 0 3.63,-0.95 c 5.87,-2.58 7.75,-3.09 13.78,-3.72 1.27,-0.13 3.17,-0.34 4.24,-0.47 4.56,-0.56 23.21,-0.74 26.76,-0.26 2.56,0.34 9.07,2.59 11.12,3.83 1.02,0.63 1.47,0.63 2.03,0 0.51,-0.56 3.5,-2.38 6.04,-3.69 3.33,-1.71 8.68,-2.6 15.23,-2.54 2.92,0.04 4.66,0.16 5.3,0.38 1.35,0.47 1.58,0.41 1.96,-0.5 1.04,-2.47 0.94,-7.24 -0.22,-11.6 -0.32,-1.2 -1.67,-4.31 -1.62,-4.36 0.05,-0.05 1.46,1.57 1.78,1.65 0.52,0.13 0.66,0.93 1.12,2.9 1.02,4.38 1.09,8.86 0.19,11.47 -0.2,0.55 -0.25,1 -0.14,1 0.46,0 4.46,2.15 4.36,2.32 -0.3,0.48 -0.32,0.9 -3.94,-0.9 -0.9,-0.45 -1.89,-0.7 -2.11,-0.7 -0.23,0 -0.55,-0.13 -0.72,-0.3 -0.2,-0.2 -1.71,-0.34 -4.94,-0.44 -7.98,-0.24 -13.12,0.66 -17.43,3.06 -3.25,1.8 -4.37,2.57 -4.46,3.04 -0.09,0.45 1.85,1.26 4.19,1.73 1.41,0.3 5,0.97 4.29,1.2 -1.37,0.47 -5.99,-0.48 -9.77,-2.33 a 60.62,60.62 0 0 0 -10.35,-4.1 c -1.75,-0.48 -2.35,-0.5 -13.68,-0.49 -6.52,0.01 -12.56,0.07 -13.42,0.14 -2.84,0.23 -12.19,1.61 -13.47,2 -0.69,0.2 -1.34,0.35 -1.45,0.32 -0.1,-0.02 -0.47,0.07 -0.8,0.2 l -1.51,0.64 c -1.01,0.42 -1.53,1.27 -1.3,2.15 0.07,0.32 1.04,1.39 2.13,2.37 1.1,0.99 3.36,3.2 5.03,4.9 a 81.95,81.95 0 0 0 4.48,4.32 c 0.8,0.66 2.19,1.89 3.09,2.72 0.9,0.84 2.48,1.98 3.5,2.54 a 24.4,24.4 0 0 1 2.84,1.79 28.87,28.87 0 0 0 6.2,3.56 c 1.14,0.49 3.48,1.58 5.2,2.43 1.7,0.84 3.82,1.85 4.68,2.22 0.87,0.38 1.96,0.92 2.44,1.22 a 78.38,78.38 0 0 0 9.15,4.34 l 4.12,1.6 -0.4,0.1 c -1.58,0.43 -6.25,-1.34 -10.48,-3.68 -2.83,-1.56 -3.38,-1.77 -3.38,-1.27 0,0.87 -5.14,5.37 -7.62,6.68 -1.91,1 -5.83,2.76 -7.37,3.29 -0.87,0.3 -2.39,0.88 -3.39,1.29 -4.02,1.64 -6.88,2.22 -14.54,2.92 -3.91,0.36 -6.56,0.29 -12.42,-0.35 z m 15.67,-0.97 c 6.32,-0.69 11.9,-2.5 20.27,-6.63 3.5,-1.72 8.83,-6.13 8.63,-7.16 -0.08,-0.44 -2.5,-1.97 -3.13,-1.99 -0.8,-0.02 -11.74,-5.4 -13.27,-6.52 a 54.44,54.44 0 0 0 -3.5,-2.31 33.96,33.96 0 0 1 -4.33,-3.35 3636.52,3636.52 0 0 1 -7.7,-7.04 c -0.37,-0.33 -0.67,-0.68 -0.67,-0.77 0,-0.1 -0.54,-0.72 -1.2,-1.37 a 7.28,7.28 0 0 1 -1.22,-1.4 c 0,-0.33 0.52,0.2 0.15,0.2 -0.6,0 -3.54,-3.01 -3.54,-3.66 0,-0.78 -0.5,-0.92 -1.74,-0.48 -1.84,0.65 -4.86,0.93 -10.27,0.95 -5.84,0.03 -7.45,-0.07 -10.48,-0.64 a 22.67,22.67 0 0 0 -2.9,-0.4 c -0.46,0 -2.24,-0.42 -3.95,-0.94 a 42.32,42.32 0 0 1 -11.14,-5.64 c -1.25,-0.9 -2.15,-1.37 -2.6,-1.37 -0.38,0 -0.69,0.09 -0.69,0.2 0,0.1 -0.43,0.38 -0.95,0.6 -1.2,0.53 -2.26,1.8 -5.06,6.02 -2.44,3.68 -3.45,6.24 -3.94,9.94 a 12.52,12.52 0 0 1 -0.47,2.35 c -0.12,0.23 -0.22,1.3 -0.22,2.36 0,2.17 0.42,3.25 2.5,6.31 1.34,2 6.91,7.27 9.83,9.31 a 51.38,51.38 0 0 0 11,5.37 c 0.54,0.16 3.6,1.47 6.79,2.9 5.75,2.59 6.5,2.84 12.83,4.3 1.22,0.29 3.72,0.63 5.56,0.77 1.85,0.14 3.4,0.3 3.46,0.36 0.26,0.26 8.85,0.07 11.95,-0.27 z m 67.6,-2.45 c 0.17,-0.07 0.38,-0.06 0.46,0.02 0.08,0.08 -0.06,0.14 -0.32,0.13 -0.28,-0.01 -0.34,-0.07 -0.15,-0.15 z m 21.56,-9.42 c 0.14,-0.2 0.68,-1.25 2.66,-3.92 3.63,-4.92 5.35,-9.2 5,-12.5 -0.3,-2.87 -3.2,-8.39 -5.84,-11.08 -1.07,-1.1 -2.54,-2.27 -2.22,-2.27 0.25,0 1.58,0.66 1.5,0.54 -0.08,-0.13 -0.97,-0.76 -0.64,-0.6 0.8,0.41 3.87,3.3 4.9,4.93 4.4,6.93 4.63,10.84 1,17.48 a 69.56,69.56 0 0 1 -5.47,7.85 c -0.55,0.63 -1.66,0.75 -1.41,0.38 z m -34.32,-28.54 a 3.36,3.36 0 0 1 -1.45,-0.36 c -0.07,-0.07 1.96,-0.24 4.51,-0.2 2.55,0.04 6,-0.59 5.18,-0.04 -0.43,0.28 -4.73,0.75 -4.99,0.74 z M 55.08,131.08 c -0.52,-1.34 0.35,-5.33 2.12,-9.79 a 27.63,27.63 0 0 0 1.12,-3.13 c 0,-0.18 0.43,-1.17 0.97,-2.2 0.53,-1.03 0.96,-2.02 0.96,-2.21 0,-0.45 2.83,-4.76 4.15,-6.33 0.7,-0.82 1.42,-1.4 2.14,-1.67 0.6,-0.23 1.13,-0.45 1.17,-0.48 a 3.2,3.2 0 0 0 -0.54,-0.98 c -0.79,-1.15 -3.49,-5.34 -2.72,-5.34 0.33,0 3.3,3.91 3.3,4.04 0,0.76 3.26,4.2 4.71,4.97 0.27,0.14 1.8,1.01 3.4,1.93 3.24,1.87 3,1.77 8.82,3.74 5.09,1.72 7.12,2.06 13.78,2.27 2.73,0.1 5.72,0.27 6.65,0.4 4.68,0.64 13.79,1.08 14.04,0.68 0.07,-0.12 0.93,-0.21 1.91,-0.2 2.34,0 3.92,-0.24 4.83,-0.77 0.91,-0.52 4.66,-1.85 6.17,-2.17 1.1,-0.24 7.03,-2.56 9.81,-3.85 0.8,-0.36 2.87,-1.13 4.6,-1.7 a 35.6,35.6 0 0 0 3.86,-1.45 c 0.4,-0.23 1.55,-0.66 2.55,-0.95 1,-0.3 3,-1.03 4.47,-1.63 3.99,-1.65 5.42,-2.76 6.46,-5 0.46,-1 0.55,-1.6 0.55,-3.62 0,-2.26 -0.05,-2.5 -0.81,-3.98 a 47.2,47.2 0 0 0 -5.38,-7.58 8.9,8.9 0 0 0 -5.99,-2.92 c -0.85,-0.06 -1.72,-0.15 -1.93,-0.22 -1.18,-0.36 -7.18,-0.85 -10.45,-0.85 -3.73,0 -3.8,0 -7.56,1.07 a 53.18,53.18 0 0 1 -6.75,1.45 c -1.63,0.2 -4.05,0.53 -5.38,0.73 -3.39,0.48 -11.21,0.67 -15.21,0.37 -5,-0.39 -7.16,-0.92 -12.48,-3.09 -2.2,-0.9 -2.35,-1.01 -3.43,-2.48 -0.62,-0.86 -1.4,-1.83 -1.72,-2.16 -0.64,-0.65 -1.7,-3.53 -2.22,-6.03 -0.36,-1.68 -0.18,-8.33 0.34,-13.02 0.37,-3.37 0.85,-5.19 1.83,-6.98 0.18,-0.34 0.55,-1.14 0.82,-1.77 A 15,15 0 0 1 91.14,44 c 0.44,-0.43 0.8,-0.93 0.8,-1.1 0,-0.18 -0.71,-0.57 -1.57,-0.87 a 24.36,24.36 0 0 1 -5.84,-3.22 c -1.43,-1.05 -3.48,-3.35 -3.48,-3.9 0,-0.64 0.47,-0.72 0.7,-0.13 0.38,0.94 3.23,3.7 4.67,4.53 3.05,1.74 4.2,2.25 5.99,2.68 1.12,0.26 2.53,0.65 3.14,0.85 3.04,1.03 14.35,0.93 16.46,-0.15 a 4.8,4.8 0 0 1 1.26,-0.48 c 0.17,0 1.38,-0.7 2.7,-1.57 1.3,-0.86 2.61,-1.56 2.9,-1.55 0.5,0 2.4,0.47 9.22,2.26 3.05,0.8 3.84,0.92 7.98,1.1 5,0.23 10.69,-0.11 14.15,-0.86 2.2,-0.48 4.72,-1.71 6.57,-3.2 1.78,-1.45 1.82,-2.2 0.1,-2.2 -0.29,0 -0.64,-0.11 -0.77,-0.24 a 15.4,15.4 0 0 0 -3.4,-1.94 c -0.17,0 -0.81,0.38 -1.4,0.83 a 6.2,6.2 0 0 1 -2.49,1.11 c -0.77,0.16 -1.5,0.37 -1.64,0.48 -0.32,0.25 -2.37,0.44 -6.67,0.62 -2.9,0.12 -4.17,0.06 -7.06,-0.36 a 61.9,61.9 0 0 1 -3.85,-0.63 26.4,26.4 0 0 0 -2.13,-0.45 c -3.11,-0.57 -7.97,-2.31 -7.98,-2.86 0,-0.25 0.64,-0.23 1.15,0.03 1.23,0.62 2.97,1.27 3.93,1.45 0.6,0.11 1.96,0.42 3.02,0.69 a 36.02,36.02 0 0 0 11,1.38 c 6.98,0 10.86,-0.75 13.02,-2.52 0.89,-0.73 1.5,-0.93 1.5,-0.5 0,0.14 0.52,0.52 1.15,0.86 0.63,0.34 1.47,0.82 1.87,1.06 0.4,0.24 1.24,0.5 1.86,0.59 1.1,0.14 1.15,0.11 1.67,-0.72 0.48,-0.78 0.52,-1.08 0.4,-3.2 -0.11,-2 -0.24,-2.55 -0.86,-3.71 -0.4,-0.75 -0.77,-1.5 -0.83,-1.67 -0.09,-0.25 -0.28,-0.22 -0.85,0.1 -1.05,0.6 -1.69,0.53 -2.52,-0.3 -0.67,-0.66 -0.72,-0.83 -0.58,-1.79 l 0.16,-1.05 -1.28,-0.74 c -0.7,-0.4 -1.93,-1.25 -2.73,-1.9 -1.55,-1.24 -2.4,-1.7 -4.8,-2.58 a 93.26,93.26 0 0 1 -7.04,-2.76 l -1.43,-0.67 0.73,-0.26 c 0.6,-0.2 0.99,-0.17 2.64,0.42 5.14,1.81 9.3,3.57 10.05,4.31 0.21,0.22 0.64,0.55 0.94,0.75 0.3,0.2 0.83,0.59 1.18,0.86 0.35,0.28 1.18,0.81 1.84,1.19 2.18,1.24 4.96,3.57 4.96,4.15 0,0.18 0.08,0.32 0.18,0.32 0.61,0 1.64,4.46 1.57,6.83 -0.07,2.74 -2.74,5.67 -7.2,7.9 a 19.3,19.3 0 0 0 -2.16,1.2 c -0.12,0.13 -0.64,0.23 -1.14,0.23 -0.5,0 -2.08,0.19 -3.52,0.42 -2,0.32 -4.06,0.42 -8.77,0.42 -6.55,0 -8.52,-0.24 -11.6,-1.4 -0.74,-0.26 -2.15,-0.68 -3.15,-0.91 l -3.34,-0.8 -1.53,-0.39 -1.5,1.02 c -1.82,1.23 -5.23,2.76 -6.84,3.06 -2.47,0.47 -5.2,0.54 -9.77,0.28 -2.6,-0.15 -5.35,-0.44 -6.13,-0.64 L 93.34,43.4 92.7,44.09 a 20.54,20.54 0 0 0 -4.27,6.16 22.96,22.96 0 0 0 -1.42,3.9 c -0.52,2.39 -0.9,7.07 -0.96,11.58 -0.04,3.44 0.02,4.06 0.52,5.65 0.61,1.94 0.7,2.1 2.65,5.01 l 1.33,1.98 2.93,1.32 c 4.95,2.22 7.7,2.77 14.78,2.98 7.66,0.21 17.6,-0.85 23.1,-2.49 1.66,-0.49 3.56,-0.98 4.22,-1.08 2.5,-0.39 7.48,-0.23 12.94,0.4 6.72,0.77 7.79,1.14 10.15,3.48 1.94,1.91 5.25,6.55 6.2,8.68 0.63,1.42 0.7,1.82 0.7,4.1 -0.02,2.12 -0.11,2.75 -0.6,3.86 a 8.86,8.86 0 0 1 -1.05,1.87 l -0.48,0.54 0.82,0.33 c 1.29,0.51 6.38,2.44 9.05,3.42 3.02,1.1 4.02,1.69 6,3.5 1.76,1.61 3.92,4.94 5.11,7.91 0.6,1.49 1.7,3.06 1.41,3.24 -0.58,0.37 -1.8,-1.1 -2.72,-3.23 -0.94,-2.15 -3.28,-6 -3.65,-6 -0.12,0 -0.22,-0.15 -0.22,-0.34 0,-0.51 -2.71,-3.03 -3.27,-3.03 -0.5,0 -5.16,-1.65 -10.34,-3.64 -1.7,-0.66 -3.3,-1.2 -3.57,-1.2 -0.27,0 -1.05,0.33 -1.75,0.72 -1.61,0.9 -5.83,2.58 -7.01,2.8 -0.5,0.09 -0.9,0.26 -0.9,0.37 0,0.12 -0.26,0.22 -0.57,0.22 -0.75,0 0.64,-0.54 0.64,-0.28 0,0.11 -3.87,1.53 -4.37,1.6 -0.5,0.09 -1.26,0.31 -1.7,0.5 -0.44,0.2 -1,0.35 -1.27,0.35 -0.26,0 0.47,-0.18 0.47,-0.06 0,0.11 -1.25,0.56 -1.61,0.66 -0.37,0.09 -2.1,0.8 -3.87,1.6 a 79.46,79.46 0 0 1 -7.13,2.65 77.9,77.9 0 0 0 -5.5,1.91 18.69,18.69 0 0 1 -5.93,1.56 86,86 0 0 1 -12.9,-0.22 c -1.82,-0.2 -5.7,-0.48 -8.63,-0.63 -5.94,-0.3 -10.16,-0.75 -10.94,-1.16 -0.28,-0.16 -0.79,-0.28 -1.13,-0.28 -0.34,0 -0.62,-0.1 -0.62,-0.2 0,-0.26 -4.06,-1.49 -4.92,-1.49 -0.36,0 -0.64,-0.1 -0.64,-0.24 0,-0.13 0.48,0.07 0.3,0.07 -1.21,0 -8.7,-3.92 -11.06,-5.8 -1.75,-1.4 -2.27,-1.5 -3.9,-0.83 -1.08,0.44 -3.98,3.55 -4.33,4.63 -0.1,0.33 -0.44,0.98 -0.75,1.44 -0.3,0.47 -0.63,1.31 -0.72,1.88 -0.09,0.56 -0.26,1.02 -0.37,1.02 -0.3,0 -1.3,2.06 -1.76,3.6 -0.21,0.73 -0.5,1.39 -0.63,1.47 -0.73,0.45 -2.49,7.25 -2.38,9.18 0.08,1.33 0.08,3.25 -0.4,3.25 -0.29,0 -0.62,-2 -0.7,-2.2 z M 64.22,99.2 c -0.44,-0.3 -1.91,-3 -2.46,-4.52 a 39.9,39.9 0 0 1 -1.5,-6.63 c 0,-0.32 -0.65,-5.24 -0.35,-5.24 0.38,0 1.33,5.02 1.55,6.14 0.73,3.72 1.12,4.96 2.33,7.39 0.71,1.44 3.26,5.48 3.26,5.6 0,0.25 -2.47,-2.5 -2.83,-2.74 z m -31.5,-15.51 -2.1,-2.18 -2.9,1.08 -2.9,1.08 -7.61,-7.58 -7.62,-7.58 1.93,-1.93 1.93,-1.94 L 11.7,62.9 9.96,61.16 8.56,62.54 7.16,63.93 6.08,62.83 5,61.74 l 3.93,-3.91 3.92,-3.91 1.1,1.09 1.08,1.09 -1.33,1.3 -1.33,1.32 1.74,1.76 1.75,1.76 1.95,-1.93 1.94,-1.93 7.58,7.56 7.58,7.56 -1,2.74 c -0.54,1.5 -0.99,2.85 -0.99,3 0,0.14 0.88,1.12 1.96,2.18 2.17,2.13 2.54,2.76 2.12,3.56 -0.37,0.7 -0.68,0.88 -1.5,0.89 -0.57,0 -1.1,-0.41 -2.79,-2.18 z m -4.63,-4.3 1.81,-0.68 0.72,-2.08 0.73,-2.09 -1.69,-1.7 -1.68,-1.68 -2.85,2.83 -2.84,2.83 1.62,1.63 c 0.9,0.9 1.8,1.63 2,1.62 a 15,15 0 0 0 2.18,-0.69 z m -5.44,-13.53 -3.03,-3.02 -2.84,2.83 -2.83,2.83 3.01,3.02 3.02,3.02 2.85,-2.84 2.84,-2.83 z m -4.06,3.9 -1.14,-1.15 1.15,-1.14 1.16,-1.14 1.14,1.16 1.14,1.15 -1.16,1.14 -1.15,1.14 z m 41.17,12.77 c -0.25,-4.35 -0.37,-8.1 -0.5,-9.93 -0.17,-2.29 -0.24,-2.8 0.25,-2.68 0.63,0.16 0.72,1.62 0.95,8.04 0.14,4.17 0.61,8.79 0.22,8.89 -0.23,0.06 -0.92,-4.23 -0.92,-4.32 z m -0.77,-15.9 c -0.14,-4.65 0.62,-12.61 1.58,-16.46 0.73,-2.9 1.11,-3.83 3.55,-8.68 a 69.8,69.8 0 0 1 2.94,-5.5 c 0.11,-0.05 0.2,-0.2 0.2,-0.32 0,-0.12 0.2,-0.52 0.46,-0.88 0.75,-1.1 2.8,-4.47 3.18,-5.24 0.2,-0.4 0.46,-0.84 0.6,-1 0.13,-0.14 0.4,-0.5 0.6,-0.8 0.2,-0.3 0.56,-0.76 0.79,-1.03 0.23,-0.28 0.42,-0.57 0.42,-0.65 0,-0.09 0.45,-0.64 1,-1.23 0.54,-0.6 1.44,-1.67 1.99,-2.4 1.23,-1.64 3.07,-3.62 3.34,-3.62 0.12,0 1,-0.77 1.95,-1.72 1.72,-1.68 3.55,-3.1 4.01,-3.1 0.13,0 0.3,-0.15 0.36,-0.33 0.07,-0.17 0.76,-0.56 1.54,-0.85 0.77,-0.3 1.8,-0.79 2.26,-1.1 0.47,-0.3 1.83,-0.86 3.03,-1.22 1.19,-0.37 2.62,-0.87 3.18,-1.11 a 22.3,22.3 0 0 1 3.02,-0.92 c 7.94,-1.86 7.18,-1.75 14.1,-1.97 3.6,-0.12 6.7,-0.16 6.9,-0.1 0.2,0.06 1.6,0.27 3.1,0.46 1.52,0.2 2.88,0.46 3.03,0.57 0.81,0.61 2.66,0.99 5.21,1.06 1.91,0.06 2.7,0.21 2.87,0.35 l 0.41,0.33 c 0.13,0.1 0.7,0.43 1.17,0.95 0.61,0.67 0.9,1.26 1.03,2.07 0.14,0.96 0.32,1.06 0.86,1.37 3.18,1.81 1.4,1.24 0.15,1.24 -1.15,0 -2.11,-0.79 -2.11,-2.1 0,-0.59 -0.24,-1 -0.96,-1.71 a 5.27,5.27 0 0 0 -5.42,-1.32 c -0.84,0.23 -1.1,0.18 -2.54,-0.5 -0.88,-0.43 -2.31,-0.88 -3.18,-1 -0.86,-0.12 -2.22,-0.33 -3.02,-0.46 -2.37,-0.4 -13.56,0.1 -15.96,0.7 -1.06,0.27 -2.75,0.66 -3.75,0.88 -2.69,0.6 -9.2,2.8 -10.1,3.41 -0.45,0.3 -1.32,0.7 -1.94,0.88 -1.27,0.38 -4.32,2.47 -6.34,4.36 -0.73,0.68 -1.8,1.62 -2.38,2.08 -0.58,0.47 -1.66,1.65 -2.4,2.64 -0.75,1 -1.8,2.3 -2.34,2.92 -0.54,0.62 -1.14,1.33 -1.34,1.59 a 19.13,19.13 0 0 0 -2.66,3.93 c -0.43,0.86 -0.97,1.84 -1.2,2.18 a 53.07,53.07 0 0 0 -3.65,6.28 16.49,16.49 0 0 1 -1.46,2.61 c -0.12,0.05 -0.88,1.39 -1.69,2.99 A 18.8,18.8 0 0 0 61.42,50.38 77.88,77.88 0 0 0 60,65.91 c 0.02,3.35 0.3,5.99 -0.56,5.67 -0.4,-0.14 -0.35,-2.34 -0.44,-4.94 z m 47.45,-27.29 c -1.73,-0.94 -2.17,-3.16 -0.97,-4.84 0.27,-0.38 0.49,-0.77 0.49,-0.87 0,-0.22 1.95,-2.6 2.23,-2.71 0.32,-0.14 0.2,-1 -0.14,-1 -0.84,0 -3.37,-2.48 -3.5,-3.43 -0.03,-0.19 0.09,0.02 0,-0.08 -0.25,-0.24 -0.55,-2.99 -0.29,-3.15 0.12,-0.07 0.08,0.28 0,0.03 -0.12,-0.35 1.09,-2.16 1.12,-2.1 0.18,0.35 0.02,0.28 -0.07,0.28 -0.28,0 0.97,-1.21 1.74,-1.69 3.1,-1.91 7.28,-0.08 8.24,3.6 0.78,3.02 -1.4,6.14 -4.76,6.8 -0.78,0.15 -1.43,0.37 -1.43,0.5 a 19,19 0 0 0 0.97,2.25 c 1.06,2.22 1.23,3.6 0.64,5.02 -0.65,1.55 -2.73,2.23 -4.27,1.4 z m 3.34,-0.64 c 0.46,-0.32 0.53,-0.6 0.53,-1.92 0,-1.26 -0.14,-1.85 -0.77,-3.12 -0.43,-0.87 -0.9,-1.58 -1.05,-1.58 -0.36,0 -1.37,1.11 -2.14,2.35 -0.9,1.46 -0.9,3.44 0,4.15 0.78,0.61 2.63,0.68 3.42,0.12 z m -1.17,-10.83 c 0.64,-0.77 -0.3,-1.95 -1.14,-1.43 -0.84,0.53 -0.54,1.78 0.42,1.78 0.24,0 0.56,-0.15 0.72,-0.35 z m 3.37,-2.4 c 0.38,-0.2 0.82,-0.7 1,-1.11 0.67,-1.62 -1.06,-3.31 -2.69,-2.64 -1.06,0.44 -1.6,1.64 -1.19,2.64 0.3,0.72 1.22,1.42 1.89,1.44 0.17,0 0.62,-0.15 1,-0.34 z m 34.68,3 c -1.4,-0.85 -1.34,-2.6 0.12,-3.45 0.67,-0.4 0.9,-0.42 1.5,-0.17 1.84,0.76 1.88,2.9 0.08,3.83 -0.7,0.36 -0.8,0.35 -1.7,-0.2 z"
       clip-path="url(#t)"
       transform="translate(0,-0.02)"
       id="path118"
       inkscape:connector-curvature="0"
       style="fill:#0b281d" />
    <path
       d="M 40.48,4.54 H 209.75 V 189.16 H 40.48 Z"
       id="path120"
       inkscape:connector-curvature="0"
       style="fill:none" />
    <path
       d="M 40.48,4.54 H 209.75 V 189.16 H 40.48 Z"
       id="path122"
       inkscape:connector-curvature="0"
       style="fill:none" />
  </g>
  <path
     d="m 11.17,292.5 h 86.55 v 37.7 H 11.17 Z"
     id="path126"
     inkscape:connector-curvature="0"
     style="fill:none" />
</svg>
